<svg version="1.1" viewBox="0.0 0.0 464.0 278.0" fill="none" stroke="none" stroke-linecap="square" stroke-miterlimit="10" width="464" height="278" xmlns:xlink="http://www.w3.org/1999/xlink" xmlns="http://www.w3.org/2000/svg"><path fill="#ffffff" d="M0 0L464.0 0L464.0 278.0L0 278.0L0 0Z" fill-rule="nonzero"/><path stroke="#333333" stroke-width="1.0" stroke-linecap="butt" d="M81.5 204.5L450.5 204.5" fill-rule="nonzero"/><path stroke="#efefef" stroke-width="1.0" stroke-linecap="butt" d="M81.5 158.5L450.5 158.5" fill-rule="nonzero"/><path stroke="#efefef" stroke-width="1.0" stroke-linecap="butt" d="M81.5 113.5L450.5 113.5" fill-rule="nonzero"/><path stroke="#efefef" stroke-width="1.0" stroke-linecap="butt" d="M81.5 67.5L450.5 67.5" fill-rule="nonzero"/><path stroke="#efefef" stroke-width="1.0" stroke-linecap="butt" d="M81.5 21.5L450.5 21.5" fill-rule="nonzero"/><clipPath id="id_0"><path d="M81.9 21.9L450.1 21.9L450.1 204.1L81.9 204.1L81.9 21.9Z" clip-rule="nonzero"/></clipPath><path stroke="#0b5cd5" stroke-width="1.0" stroke-linecap="butt" stroke-opacity="0.3019608" clip-path="url(#id_0)" d="M133.0 204.0L100.0 204.0L100.0 199.0C100.0 197.89543 100.89543 197.0 102.0 197.0L131.0 197.0C132.10457 197.0 133.0 197.89543 133.0 199.0Z" fill-rule="nonzero"/><path fill="#0b5cd5" fill-opacity="0.2" clip-path="url(#id_0)" d="M133.0 204.0L100.0 204.0L100.0 199.0C100.0 197.89543 100.89543 197.0 102.0 197.0L131.0 197.0C132.10457 197.0 133.0 197.89543 133.0 199.0Z" fill-rule="nonzero"/><path stroke="#560dcb" stroke-width="1.0" stroke-linecap="butt" stroke-opacity="0.3019608" clip-path="url(#id_0)" d="M183.0 204.0L150.0 204.0L150.0 163.0C150.0 161.89543 150.89543 161.0 152.0 161.0L181.0 161.0C182.10457 161.0 183.0 161.89543 183.0 163.0Z" fill-rule="nonzero"/><path fill="#560dcb" fill-opacity="0.2" clip-path="url(#id_0)" d="M183.0 204.0L150.0 204.0L150.0 163.0C150.0 161.89543 150.89543 161.0 152.0 161.0L181.0 161.0C182.10457 161.0 183.0 161.89543 183.0 163.0Z" fill-rule="nonzero"/><path stroke="#8660cb" stroke-width="1.0" stroke-linecap="butt" stroke-opacity="0.3019608" clip-path="url(#id_0)" d="M233.0 204.0L200.0 204.0L200.0 99.0C200.0 97.89543 200.89543 97.0 202.0 97.0L231.0 97.0C232.10457 97.0 233.0 97.89543 233.0 99.0Z" fill-rule="nonzero"/><path fill="#8660cb" fill-opacity="0.2" clip-path="url(#id_0)" d="M233.0 204.0L200.0 204.0L200.0 99.0C200.0 97.89543 200.89543 97.0 202.0 97.0L231.0 97.0C232.10457 97.0 233.0 97.89543 233.0 99.0Z" fill-rule="nonzero"/><path stroke="#d63384" stroke-width="1.0" stroke-linecap="butt" stroke-opacity="0.3019608" clip-path="url(#id_0)" d="M283.0 204.0L250.0 204.0L250.0 64.0C250.0 62.89543 250.89543 62.0 252.0 62.0L281.0 62.0C282.10458 62.0 283.0 62.89543 283.0 64.0Z" fill-rule="nonzero"/><path fill="#d63384" fill-opacity="0.2" clip-path="url(#id_0)" d="M283.0 204.0L250.0 204.0L250.0 64.0C250.0 62.89543 250.89543 62.0 252.0 62.0L281.0 62.0C282.10458 62.0 283.0 62.89543 283.0 64.0Z" fill-rule="nonzero"/><path stroke="#dc3545" stroke-width="1.0" stroke-linecap="butt" stroke-opacity="0.3019608" clip-path="url(#id_0)" d="M333.0 204.0L300.0 204.0L300.0 99.0C300.0 97.89543 300.89542 97.0 302.0 97.0L331.0 97.0C332.10458 97.0 333.0 97.89543 333.0 99.0Z" fill-rule="nonzero"/><path fill="#dc3545" fill-opacity="0.2" clip-path="url(#id_0)" d="M333.0 204.0L300.0 204.0L300.0 99.0C300.0 97.89543 300.89542 97.0 302.0 97.0L331.0 97.0C332.10458 97.0 333.0 97.89543 333.0 99.0Z" fill-rule="nonzero"/><path stroke="#d6a206" stroke-width="1.0" stroke-linecap="butt" stroke-opacity="0.3019608" clip-path="url(#id_0)" d="M383.0 204.0L350.0 204.0L350.0 163.0C350.0 161.89543 350.89542 161.0 352.0 161.0L381.0 161.0C382.10458 161.0 383.0 161.89543 383.0 163.0Z" fill-rule="nonzero"/><path fill="#d6a206" fill-opacity="0.2" clip-path="url(#id_0)" d="M383.0 204.0L350.0 204.0L350.0 163.0C350.0 161.89543 350.89542 161.0 352.0 161.0L381.0 161.0C382.10458 161.0 383.0 161.89543 383.0 163.0Z" fill-rule="nonzero"/><path stroke="#228c3a" stroke-width="1.0" stroke-linecap="butt" stroke-opacity="0.3019608" clip-path="url(#id_0)" d="M433.0 204.0L400.0 204.0L400.0 199.0C400.0 197.89543 400.89542 197.0 402.0 197.0L431.0 197.0C432.10458 197.0 433.0 197.89543 433.0 199.0Z" fill-rule="nonzero"/><path fill="#228c3a" fill-opacity="0.2" clip-path="url(#id_0)" d="M433.0 204.0L400.0 204.0L400.0 199.0C400.0 197.89543 400.89542 197.0 402.0 197.0L431.0 197.0C432.10458 197.0 433.0 197.89543 433.0 199.0Z" fill-rule="nonzero"/><path fill="#000000" d="M224.57812 261.1L224.57812 251.08438L228.35938 251.08438Q229.35938 251.08438 229.89062 251.17813Q230.625 251.30313 231.125 251.64688Q231.625 251.99063 231.92188 252.61563Q232.23438 253.225 232.23438 253.975Q232.23438 255.25626 231.42188 256.14688Q230.60938 257.02188 228.48438 257.02188L225.90625 257.02188L225.90625 261.1L224.57812 261.1ZM225.90625 255.85L228.5 255.85Q229.78125 255.85 230.3125 255.36563Q230.85938 254.88126 230.85938 254.02188Q230.85938 253.38126 230.54688 252.94376Q230.23438 252.49063 229.70312 252.35Q229.375 252.25626 228.46875 252.25626L225.90625 252.25626L225.90625 255.85ZM232.96875 257.475Q232.96875 255.45938 234.09375 254.475Q235.01562 253.67813 236.375 253.67813Q237.85938 253.67813 238.8125 254.6625Q239.76562 255.63126 239.76562 257.36563Q239.76562 258.77188 239.34375 259.58438Q238.92188 260.38126 238.10938 260.83438Q237.3125 261.27188 236.375 261.27188Q234.84375 261.27188 233.90625 260.2875Q232.96875 259.30313 232.96875 257.475ZM234.23438 257.475Q234.23438 258.86563 234.84375 259.56876Q235.45312 260.25626 236.375 260.25626Q237.28125 260.25626 237.89062 259.55313Q238.5 258.85 238.5 257.42813Q238.5 256.08438 237.89062 255.39688Q237.28125 254.69376 236.375 254.69376Q235.45312 254.69376 234.84375 255.38126Q234.23438 256.06876 234.23438 257.475ZM240.9375 258.92813L242.14062 258.74063Q242.25 259.475 242.71875 259.86563Q243.1875 260.25626 244.03125 260.25626Q244.875 260.25626 245.28125 259.9125Q245.70312 259.56876 245.70312 259.1Q245.70312 258.67813 245.32812 258.44376Q245.07812 258.27188 244.07812 258.02188Q242.71875 257.67813 242.1875 257.42813Q241.67188 257.17813 241.40625 256.74063Q241.14062 256.30313 241.14062 255.77188Q241.14062 255.2875 241.35938 254.88126Q241.57812 254.45938 241.96875 254.17813Q242.25 253.975 242.73438 253.83438Q243.23438 253.67813 243.8125 253.67813Q244.65625 253.67813 245.29688 253.92813Q245.95312 254.1625 246.26562 254.58438Q246.57812 255.00626 246.6875 255.70938L245.48438 255.88126Q245.40625 255.31876 245.0 255.00626Q244.60938 254.69376 243.89062 254.69376Q243.04688 254.69376 242.6875 254.975Q242.32812 255.24063 242.32812 255.63126Q242.32812 255.86563 242.46875 256.05313Q242.625 256.25626 242.95312 256.38126Q243.125 256.44376 244.03125 256.69376Q245.34375 257.05313 245.85938 257.27188Q246.375 257.49063 246.65625 257.9125Q246.95312 258.33438 246.95312 258.95938Q246.95312 259.58438 246.59375 260.13126Q246.25 260.6625 245.5625 260.975Q244.89062 261.27188 244.03125 261.27188Q242.625 261.27188 241.875 260.67813Q241.14062 260.08438 240.9375 258.92813ZM248.4375 252.49063L248.4375 251.08438L249.65625 251.08438L249.65625 252.49063L248.4375 252.49063ZM248.4375 261.1L248.4375 253.83438L249.65625 253.83438L249.65625 261.1L248.4375 261.1ZM256.15625 258.44376L257.375 258.6Q257.17188 259.85 256.34375 260.56876Q255.53125 261.27188 254.34375 261.27188Q252.85938 261.27188 251.95312 260.30313Q251.04688 259.31876 251.04688 257.49063Q251.04688 256.31876 251.4375 255.44376Q251.82812 254.55313 252.625 254.11563Q253.42188 253.67813 254.35938 253.67813Q255.53125 253.67813 256.28125 254.27188Q257.04688 254.86563 257.25 255.975L256.0625 256.1625Q255.89062 255.42813 255.45312 255.06876Q255.01562 254.69376 254.40625 254.69376Q253.46875 254.69376 252.89062 255.36563Q252.3125 256.02188 252.3125 257.45938Q252.3125 258.92813 252.875 259.6Q253.4375 260.25626 254.32812 260.25626Q255.0625 260.25626 255.54688 259.81876Q256.03125 259.36563 256.15625 258.44376ZM253.3125 262.00626L253.65625 260.80313L254.57812 260.80313L254.34375 261.5375Q254.9375 261.6 255.21875 261.88126Q255.51562 262.17813 255.51562 262.5375Q255.51562 263.05313 255.01562 263.44376Q254.53125 263.83438 253.54688 263.83438Q252.98438 263.83438 252.5625 263.75626L252.64062 262.95938Q253.07812 262.99063 253.28125 262.99063Q253.92188 262.99063 254.1875 262.80313Q254.375 262.6625 254.375 262.475Q254.375 262.35 254.29688 262.25626Q254.21875 262.1625 254.0 262.08438Q253.79688 262.02188 253.3125 262.00626ZM263.15625 260.20938Q262.48438 260.7875 261.84375 261.0375Q261.21875 261.27188 260.48438 261.27188Q259.29688 261.27188 258.64062 260.69376Q258.0 260.1 258.0 259.17813Q258.0 258.64688 258.23438 258.20938Q258.48438 257.77188 258.875 257.50626Q259.28125 257.24063 259.76562 257.1Q260.125 257.00626 260.85938 256.9125Q262.35938 256.74063 263.0625 256.49063Q263.0625 256.24063 263.0625 256.17813Q263.0625 255.4125 262.71875 255.11563Q262.25 254.69376 261.3125 254.69376Q260.45312 254.69376 260.03125 255.00626Q259.625 255.30313 259.42188 256.06876L258.21875 255.9125Q258.375 255.13126 258.75 254.6625Q259.14062 254.19376 259.84375 253.94376Q260.5625 253.67813 261.5 253.67813Q262.42188 253.67813 263.0 253.89688Q263.57812 254.11563 263.84375 254.44376Q264.125 254.77188 264.23438 255.2875Q264.29688 255.6 264.29688 256.4125L264.29688 258.05313Q264.29688 259.77188 264.375 260.225Q264.45312 260.67813 264.6875 261.1L263.40625 261.1Q263.21875 260.70938 263.15625 260.20938ZM263.0625 257.45938Q262.39062 257.725 261.04688 257.92813Q260.29688 258.0375 259.96875 258.17813Q259.65625 258.30313 259.48438 258.56876Q259.3125 258.83438 259.3125 259.14688Q259.3125 259.64688 259.6875 259.975Q260.0625 260.30313 260.78125 260.30313Q261.5 260.30313 262.04688 259.99063Q262.59375 259.67813 262.85938 259.13126Q263.0625 258.725 263.0625 257.9125L263.0625 257.45938ZM259.0625 252.77188Q259.0625 252.05313 259.45312 251.63126Q259.84375 251.20938 260.45312 251.20938Q260.875 251.20938 261.60938 251.58438Q262.01562 251.7875 262.25 251.7875Q262.46875 251.7875 262.57812 251.6625Q262.70312 251.5375 262.75 251.19376L263.64062 251.19376Q263.60938 251.95938 263.23438 252.35Q262.875 252.74063 262.29688 252.74063Q261.85938 252.74063 261.15625 252.36563Q260.70312 252.11563 260.5 252.11563Q260.26562 252.11563 260.10938 252.2875Q259.96875 252.44376 259.96875 252.77188L259.0625 252.77188ZM265.96875 257.475Q265.96875 255.45938 267.09375 254.475Q268.01562 253.67813 269.375 253.67813Q270.85938 253.67813 271.8125 254.6625Q272.76562 255.63126 272.76562 257.36563Q272.76562 258.77188 272.34375 259.58438Q271.92188 260.38126 271.10938 260.83438Q270.3125 261.27188 269.375 261.27188Q267.84375 261.27188 266.90625 260.2875Q265.96875 259.30313 265.96875 257.475ZM267.23438 257.475Q267.23438 258.86563 267.84375 259.56876Q268.45312 260.25626 269.375 260.25626Q270.28125 260.25626 270.89062 259.55313Q271.5 258.85 271.5 257.42813Q271.5 256.08438 270.89062 255.39688Q270.28125 254.69376 269.375 254.69376Q268.45312 254.69376 267.84375 255.38126Q267.23438 256.06876 267.23438 257.475ZM278.65625 261.1L278.65625 251.08438L285.40625 251.08438L285.40625 252.25626L279.96875 252.25626L279.96875 255.36563L284.67188 255.36563L284.67188 256.55313L279.96875 256.55313L279.96875 261.1L278.65625 261.1ZM287.4375 252.49063L287.4375 251.08438L288.65625 251.08438L288.65625 252.49063L287.4375 252.49063ZM287.4375 261.1L287.4375 253.83438L288.65625 253.83438L288.65625 261.1L287.4375 261.1ZM290.42188 261.1L290.42188 253.83438L291.53125 253.83438L291.53125 254.86563Q292.32812 253.67813 293.84375 253.67813Q294.5 253.67813 295.04688 253.9125Q295.59375 254.14688 295.85938 254.5375Q296.14062 254.9125 296.25 255.44376Q296.32812 255.7875 296.32812 256.63126L296.32812 261.1L295.09375 261.1L295.09375 256.67813Q295.09375 255.92813 294.95312 255.56876Q294.8125 255.19376 294.4375 254.975Q294.07812 254.74063 293.57812 254.74063Q292.79688 254.74063 292.21875 255.24063Q291.65625 255.74063 291.65625 257.13126L291.65625 261.1L290.42188 261.1ZM303.15625 260.20938Q302.48438 260.7875 301.84375 261.0375Q301.21875 261.27188 300.48438 261.27188Q299.29688 261.27188 298.64062 260.69376Q298.0 260.1 298.0 259.17813Q298.0 258.64688 298.23438 258.20938Q298.48438 257.77188 298.875 257.50626Q299.28125 257.24063 299.76562 257.1Q300.125 257.00626 300.85938 256.9125Q302.35938 256.74063 303.0625 256.49063Q303.0625 256.24063 303.0625 256.17813Q303.0625 255.4125 302.71875 255.11563Q302.25 254.69376 301.3125 254.69376Q300.45312 254.69376 300.03125 255.00626Q299.625 255.30313 299.42188 256.06876L298.21875 255.9125Q298.375 255.13126 298.75 254.6625Q299.14062 254.19376 299.84375 253.94376Q300.5625 253.67813 301.5 253.67813Q302.42188 253.67813 303.0 253.89688Q303.57812 254.11563 303.84375 254.44376Q304.125 254.77188 304.23438 255.2875Q304.29688 255.6 304.29688 256.4125L304.29688 258.05313Q304.29688 259.77188 304.375 260.225Q304.45312 260.67813 304.6875 261.1L303.40625 261.1Q303.21875 260.70938 303.15625 260.20938ZM303.0625 257.45938Q302.39062 257.725 301.04688 257.92813Q300.29688 258.0375 299.96875 258.17813Q299.65625 258.30313 299.48438 258.56876Q299.3125 258.83438 299.3125 259.14688Q299.3125 259.64688 299.6875 259.975Q300.0625 260.30313 300.78125 260.30313Q301.5 260.30313 302.04688 259.99063Q302.59375 259.67813 302.85938 259.13126Q303.0625 258.725 303.0625 257.9125L303.0625 257.45938ZM306.39062 261.1L306.39062 251.08438L307.625 251.08438L307.625 261.1L306.39062 261.1Z" fill-rule="nonzero"/><path fill="#000000" d="M26.900005 162.92188L16.88438 162.92188L16.88438 159.14062Q16.88438 158.14062 16.97813 157.60938Q17.10313 156.875 17.44688 156.375Q17.79063 155.875 18.41563 155.57812Q19.025005 155.26562 19.775005 155.26562Q21.056255 155.26562 21.94688 156.07812Q22.82188 156.89062 22.82188 159.01562L22.82188 161.59375L26.900005 161.59375L26.900005 162.92188ZM21.650005 161.59375L21.650005 159.0Q21.650005 157.71875 21.16563 157.1875Q20.681255 156.64062 19.82188 156.64062Q19.181255 156.64062 18.743755 156.95312Q18.29063 157.26562 18.150005 157.79688Q18.056255 158.125 18.056255 159.03125L18.056255 161.59375L21.650005 161.59375ZM26.900005 154.09375L19.63438 154.09375L19.63438 152.98438L20.743755 152.98438Q19.962505 152.5625 19.72813 152.20312Q19.47813 151.84375 19.47813 151.40625Q19.47813 150.78125 19.868755 150.14062L21.00938 150.5625Q20.743755 151.01562 20.743755 151.46875Q20.743755 151.875 20.993755 152.20312Q21.22813 152.51562 21.66563 152.65625Q22.32188 152.85938 23.10313 152.85938L26.900005 152.85938L26.900005 154.09375ZM23.275005 149.53125Q21.25938 149.53125 20.275005 148.40625Q19.47813 147.48438 19.47813 146.125Q19.47813 144.64062 20.462505 143.6875Q21.431255 142.73438 23.16563 142.73438Q24.57188 142.73438 25.38438 143.15625Q26.181255 143.57812 26.63438 144.39062Q27.07188 145.1875 27.07188 146.125Q27.07188 147.65625 26.087505 148.59375Q25.10313 149.53125 23.275005 149.53125ZM23.275005 148.26562Q24.66563 148.26562 25.368755 147.65625Q26.056255 147.04688 26.056255 146.125Q26.056255 145.21875 25.35313 144.60938Q24.650005 144.0 23.22813 144.0Q21.88438 144.0 21.19688 144.60938Q20.493755 145.21875 20.493755 146.125Q20.493755 147.04688 21.181255 147.65625Q21.868755 148.26562 23.275005 148.26562ZM26.900005 139.9375L26.900005 141.07812L16.88438 141.07812L16.88438 139.85938L20.44688 139.85938Q19.47813 139.07812 19.47813 137.85938Q19.47813 137.1875 19.743755 136.59375Q20.00938 136.0 20.50938 135.60938Q20.993755 135.21875 21.681255 135.0Q22.368755 134.78125 23.16563 134.78125Q25.025005 134.78125 26.056255 135.71875Q27.07188 136.64062 27.07188 137.92188Q27.07188 139.20312 25.993755 139.9375L26.900005 139.9375ZM23.212505 139.95312Q24.525005 139.95312 25.10313 139.59375Q26.056255 139.01562 26.056255 138.03125Q26.056255 137.21875 25.35313 136.64062Q24.650005 136.04688 23.25938 136.04688Q21.837505 136.04688 21.16563 136.60938Q20.493755 137.17188 20.493755 137.96875Q20.493755 138.78125 21.19688 139.375Q21.88438 139.95312 23.212505 139.95312ZM26.00938 128.34375Q26.587505 129.01562 26.837505 129.65625Q27.07188 130.28125 27.07188 131.01562Q27.07188 132.20312 26.493755 132.85938Q25.900005 133.5 24.97813 133.5Q24.44688 133.5 24.00938 133.26562Q23.57188 133.01562 23.306255 132.625Q23.04063 132.21875 22.900005 131.73438Q22.806255 131.375 22.712505 130.64062Q22.54063 129.14062 22.29063 128.4375Q22.04063 128.4375 21.97813 128.4375Q21.212505 128.4375 20.91563 128.78125Q20.493755 129.25 20.493755 130.1875Q20.493755 131.04688 20.806255 131.46875Q21.10313 131.875 21.868755 132.07812L21.712505 133.28125Q20.931255 133.125 20.462505 132.75Q19.993755 132.35938 19.743755 131.65625Q19.47813 130.9375 19.47813 130.0Q19.47813 129.07812 19.69688 128.5Q19.91563 127.921875 20.243755 127.65625Q20.57188 127.375 21.087505 127.265625Q21.400005 127.203125 22.212505 127.203125L23.85313 127.203125Q25.57188 127.203125 26.025005 127.125Q26.47813 127.046875 26.900005 126.8125L26.900005 128.09375Q26.50938 128.28125 26.00938 128.34375ZM23.25938 128.4375Q23.525005 129.10938 23.72813 130.45312Q23.837505 131.20312 23.97813 131.53125Q24.10313 131.84375 24.368755 132.01562Q24.63438 132.1875 24.94688 132.1875Q25.44688 132.1875 25.775005 131.8125Q26.10313 131.4375 26.10313 130.71875Q26.10313 130.0 25.79063 129.45312Q25.47813 128.90625 24.931255 128.64062Q24.525005 128.4375 23.712505 128.4375L23.25938 128.4375ZM26.900005 123.9375L26.900005 125.078125L16.88438 125.078125L16.88438 123.859375L20.44688 123.859375Q19.47813 123.078125 19.47813 121.859375Q19.47813 121.1875 19.743755 120.59375Q20.00938 120.0 20.50938 119.609375Q20.993755 119.21875 21.681255 119.0Q22.368755 118.78125 23.16563 118.78125Q25.025005 118.78125 26.056255 119.71875Q27.07188 120.640625 27.07188 121.921875Q27.07188 123.203125 25.993755 123.9375L26.900005 123.9375ZM23.212505 123.953125Q24.525005 123.953125 25.10313 123.59375Q26.056255 123.015625 26.056255 122.03125Q26.056255 121.21875 25.35313 120.640625Q24.650005 120.046875 23.25938 120.046875Q21.837505 120.046875 21.16563 120.609375Q20.493755 121.171875 20.493755 121.96875Q20.493755 122.78125 21.19688 123.375Q21.88438 123.953125 23.212505 123.953125ZM18.29063 117.0625L16.88438 117.0625L16.88438 115.84375L18.29063 115.84375L18.29063 117.0625ZM26.900005 117.0625L19.63438 117.0625L19.63438 115.84375L26.900005 115.84375L26.900005 117.0625ZM26.900005 114.109375L16.88438 114.109375L16.88438 112.875L26.900005 112.875L26.900005 114.109375ZM18.29063 111.0625L16.88438 111.0625L16.88438 109.84375L18.29063 109.84375L18.29063 111.0625ZM26.900005 111.0625L19.63438 111.0625L19.63438 109.84375L26.900005 109.84375L26.900005 111.0625ZM26.900005 103.359375L25.97813 103.359375Q27.07188 104.0625 27.07188 105.390625Q27.07188 106.265625 26.587505 107.0Q26.10313 107.71875 25.243755 108.125Q24.38438 108.515625 23.275005 108.515625Q22.19688 108.515625 21.306255 108.15625Q20.41563 107.796875 19.94688 107.078125Q19.47813 106.34375 19.47813 105.453125Q19.47813 104.796875 19.75938 104.28125Q20.025005 103.765625 20.47813 103.453125L16.88438 103.453125L16.88438 102.21875L26.900005 102.21875L26.900005 103.359375ZM23.275005 107.25Q24.66563 107.25 25.368755 106.671875Q26.056255 106.078125 26.056255 105.28125Q26.056255 104.46875 25.400005 103.90625Q24.72813 103.34375 23.38438 103.34375Q21.88438 103.34375 21.19688 103.921875Q20.493755 104.5 20.493755 105.328125Q20.493755 106.15625 21.16563 106.703125Q21.837505 107.25 23.275005 107.25ZM26.00938 95.34375Q26.587505 96.015625 26.837505 96.65625Q27.07188 97.28125 27.07188 98.015625Q27.07188 99.203125 26.493755 99.859375Q25.900005 100.5 24.97813 100.5Q24.44688 100.5 24.00938 100.265625Q23.57188 100.015625 23.306255 99.625Q23.04063 99.21875 22.900005 98.734375Q22.806255 98.375 22.712505 97.640625Q22.54063 96.140625 22.29063 95.4375Q22.04063 95.4375 21.97813 95.4375Q21.212505 95.4375 20.91563 95.78125Q20.493755 96.25 20.493755 97.1875Q20.493755 98.046875 20.806255 98.46875Q21.10313 98.875 21.868755 99.078125L21.712505 100.28125Q20.931255 100.125 20.462505 99.75Q19.993755 99.359375 19.743755 98.65625Q19.47813 97.9375 19.47813 97.0Q19.47813 96.078125 19.69688 95.5Q19.91563 94.921875 20.243755 94.65625Q20.57188 94.375 21.087505 94.265625Q21.400005 94.203125 22.212505 94.203125L23.85313 94.203125Q25.57188 94.203125 26.025005 94.125Q26.47813 94.046875 26.900005 93.8125L26.900005 95.09375Q26.50938 95.28125 26.00938 95.34375ZM23.25938 95.4375Q23.525005 96.109375 23.72813 97.453125Q23.837505 98.203125 23.97813 98.53125Q24.10313 98.84375 24.368755 99.015625Q24.63438 99.1875 24.94688 99.1875Q25.44688 99.1875 25.775005 98.8125Q26.10313 98.4375 26.10313 97.71875Q26.10313 97.0 25.79063 96.453125Q25.47813 95.90625 24.931255 95.640625Q24.525005 95.4375 23.712505 95.4375L23.25938 95.4375ZM26.900005 87.359375L25.97813 87.359375Q27.07188 88.0625 27.07188 89.390625Q27.07188 90.265625 26.587505 91.0Q26.10313 91.71875 25.243755 92.125Q24.38438 92.515625 23.275005 92.515625Q22.19688 92.515625 21.306255 92.15625Q20.41563 91.796875 19.94688 91.078125Q19.47813 90.34375 19.47813 89.453125Q19.47813 88.796875 19.75938 88.28125Q20.025005 87.765625 20.47813 87.453125L16.88438 87.453125L16.88438 86.21875L26.900005 86.21875L26.900005 87.359375ZM23.275005 91.25Q24.66563 91.25 25.368755 90.671875Q26.056255 90.078125 26.056255 89.28125Q26.056255 88.46875 25.400005 87.90625Q24.72813 87.34375 23.38438 87.34375Q21.88438 87.34375 21.19688 87.921875Q20.493755 88.5 20.493755 89.328125Q20.493755 90.15625 21.16563 90.703125Q21.837505 91.25 23.275005 91.25ZM24.556255 79.109375L24.712505 77.828125Q25.837505 78.140625 26.462505 78.953125Q27.07188 79.765625 27.07188 81.03125Q27.07188 82.625 26.087505 83.5625Q25.10313 84.484375 23.337505 84.484375Q21.493755 84.484375 20.493755 83.546875Q19.47813 82.59375 19.47813 81.09375Q19.47813 79.640625 20.47813 78.71875Q21.462505 77.796875 23.25938 77.796875Q23.368755 77.796875 23.587505 77.796875L23.587505 83.21875Q24.775005 83.140625 25.41563 82.546875Q26.056255 81.9375 26.056255 81.015625Q26.056255 80.34375 25.69688 79.875Q25.337505 79.390625 24.556255 79.109375ZM22.57188 83.140625L22.57188 79.09375Q21.650005 79.171875 21.19688 79.5625Q20.493755 80.140625 20.493755 81.078125Q20.493755 81.9375 21.056255 82.515625Q21.618755 83.078125 22.57188 83.140625Z" fill-rule="nonzero"/><path fill="#000000" d="M55.478127 204.1625Q55.478127 202.38126 55.8375 201.30313Q56.2125 200.20938 56.93125 199.63126Q57.65 199.0375 58.74375 199.0375Q59.55625 199.0375 60.165627 199.36563Q60.775 199.69376 61.165627 200.30313Q61.571877 200.9125 61.790627 201.7875Q62.009377 202.6625 62.009377 204.1625Q62.009377 205.92813 61.65 207.00626Q61.290627 208.08438 60.571877 208.67813Q59.853127 209.27188 58.74375 209.27188Q57.30625 209.27188 56.478127 208.225Q55.478127 206.975 55.478127 204.1625ZM56.74375 204.1625Q56.74375 206.63126 57.321877 207.44376Q57.9 208.25626 58.74375 208.25626Q59.603127 208.25626 60.18125 207.44376Q60.759377 206.61563 60.759377 204.1625Q60.759377 201.67813 60.18125 200.86563Q59.603127 200.05313 58.728127 200.05313Q57.884377 200.05313 57.384377 200.77188Q56.74375 201.69376 56.74375 204.1625ZM64.15 209.1L64.15 207.69376L65.54063 207.69376L65.54063 209.1Q65.54063 209.86563 65.25938 210.33438Q64.99375 210.81876 64.4 211.08438L64.05625 210.55313Q64.44688 210.38126 64.63438 210.05313Q64.82188 209.725 64.8375 209.1L64.15 209.1ZM67.47813 204.1625Q67.47813 202.38126 67.8375 201.30313Q68.2125 200.20938 68.93125 199.63126Q69.65 199.0375 70.74375 199.0375Q71.55625 199.0375 72.16563 199.36563Q72.775 199.69376 73.16563 200.30313Q73.57188 200.9125 73.79063 201.7875Q74.00938 202.6625 74.00938 204.1625Q74.00938 205.92813 73.65 207.00626Q73.29063 208.08438 72.57188 208.67813Q71.85313 209.27188 70.74375 209.27188Q69.30625 209.27188 68.47813 208.225Q67.47813 206.975 67.47813 204.1625ZM68.74375 204.1625Q68.74375 206.63126 69.32188 207.44376Q69.9 208.25626 70.74375 208.25626Q71.60313 208.25626 72.18125 207.44376Q72.75938 206.61563 72.75938 204.1625Q72.75938 201.67813 72.18125 200.86563Q71.60313 200.05313 70.72813 200.05313Q69.88438 200.05313 69.38438 200.77188Q68.74375 201.69376 68.74375 204.1625Z" fill-rule="nonzero"/><path fill="#000000" d="M55.478127 158.6125Q55.478127 156.83125 55.8375 155.75313Q56.2125 154.65938 56.93125 154.08125Q57.65 153.4875 58.74375 153.4875Q59.55625 153.4875 60.165627 153.81563Q60.775 154.14375 61.165627 154.75313Q61.571877 155.3625 61.790627 156.2375Q62.009377 157.1125 62.009377 158.6125Q62.009377 160.37813 61.65 161.45625Q61.290627 162.53438 60.571877 163.12813Q59.853127 163.72188 58.74375 163.72188Q57.30625 163.72188 56.478127 162.675Q55.478127 161.425 55.478127 158.6125ZM56.74375 158.6125Q56.74375 161.08125 57.321877 161.89375Q57.9 162.70625 58.74375 162.70625Q59.603127 162.70625 60.18125 161.89375Q60.759377 161.06563 60.759377 158.6125Q60.759377 156.12813 60.18125 155.31563Q59.603127 154.50313 58.728127 154.50313Q57.884377 154.50313 57.384377 155.22188Q56.74375 156.14375 56.74375 158.6125ZM64.15 163.55L64.15 162.14375L65.54063 162.14375L65.54063 163.55Q65.54063 164.31563 65.25938 164.78438Q64.99375 165.26875 64.4 165.53438L64.05625 165.00313Q64.44688 164.83125 64.63438 164.50313Q64.82188 164.175 64.8375 163.55L64.15 163.55ZM72.11875 163.55L70.88438 163.55L70.88438 155.70625Q70.44688 156.12813 69.7125 156.56563Q68.99375 156.9875 68.43125 157.19063L68.43125 156.00313Q69.4625 155.51875 70.22813 154.83125Q71.00938 154.14375 71.32188 153.4875L72.11875 153.4875L72.11875 163.55Z" fill-rule="nonzero"/><path fill="#000000" d="M55.478127 113.0625Q55.478127 111.28125 55.8375 110.203125Q56.2125 109.109375 56.93125 108.53125Q57.65 107.9375 58.74375 107.9375Q59.55625 107.9375 60.165627 108.265625Q60.775 108.59375 61.165627 109.203125Q61.571877 109.8125 61.790627 110.6875Q62.009377 111.5625 62.009377 113.0625Q62.009377 114.828125 61.65 115.90625Q61.290627 116.984375 60.571877 117.578125Q59.853127 118.171875 58.74375 118.171875Q57.30625 118.171875 56.478127 117.125Q55.478127 115.875 55.478127 113.0625ZM56.74375 113.0625Q56.74375 115.53125 57.321877 116.34375Q57.9 117.15625 58.74375 117.15625Q59.603127 117.15625 60.18125 116.34375Q60.759377 115.515625 60.759377 113.0625Q60.759377 110.578125 60.18125 109.765625Q59.603127 108.953125 58.728127 108.953125Q57.884377 108.953125 57.384377 109.671875Q56.74375 110.59375 56.74375 113.0625ZM64.15 118.0L64.15 116.59375L65.54063 116.59375L65.54063 118.0Q65.54063 118.765625 65.25938 119.234375Q64.99375 119.71875 64.4 119.984375L64.05625 119.453125Q64.44688 119.28125 64.63438 118.953125Q64.82188 118.625 64.8375 118.0L64.15 118.0ZM73.94688 116.8125L73.94688 118.0L67.32188 118.0Q67.30625 117.5625 67.4625 117.140625Q67.72813 116.46875 68.275 115.8125Q68.8375 115.15625 69.88438 114.296875Q71.525 112.953125 72.0875 112.171875Q72.66563 111.390625 72.66563 110.6875Q72.66563 109.953125 72.13438 109.453125Q71.61875 108.953125 70.79063 108.953125Q69.9 108.953125 69.35313 109.484375Q68.82188 110.015625 68.82188 110.96875L67.55625 110.828125Q67.68125 109.421875 68.525 108.6875Q69.38438 107.9375 70.80625 107.9375Q72.25938 107.9375 73.0875 108.734375Q73.93125 109.53125 73.93125 110.71875Q73.93125 111.328125 73.68125 111.90625Q73.44688 112.484375 72.86875 113.125Q72.30625 113.765625 70.97813 114.890625Q69.86875 115.8125 69.55625 116.15625Q69.24375 116.484375 69.04063 116.8125L73.94688 116.8125Z" fill-rule="nonzero"/><path fill="#000000" d="M55.478127 67.5125Q55.478127 65.73125 55.8375 64.65312Q56.2125 63.559372 56.93125 62.981247Q57.65 62.387497 58.74375 62.387497Q59.55625 62.387497 60.165627 62.715622Q60.775 63.043747 61.165627 63.653122Q61.571877 64.2625 61.790627 65.1375Q62.009377 66.0125 62.009377 67.5125Q62.009377 69.27812 61.65 70.35625Q61.290627 71.43437 60.571877 72.02812Q59.853127 72.62187 58.74375 72.62187Q57.30625 72.62187 56.478127 71.575Q55.478127 70.325 55.478127 67.5125ZM56.74375 67.5125Q56.74375 69.98125 57.321877 70.79375Q57.9 71.60625 58.74375 71.60625Q59.603127 71.60625 60.18125 70.79375Q60.759377 69.96562 60.759377 67.5125Q60.759377 65.02812 60.18125 64.21562Q59.603127 63.403122 58.728127 63.403122Q57.884377 63.403122 57.384377 64.12187Q56.74375 65.04375 56.74375 67.5125ZM64.15 72.45L64.15 71.04375L65.54063 71.04375L65.54063 72.45Q65.54063 73.21562 65.25938 73.68437Q64.99375 74.16875 64.4 74.43437L64.05625 73.90312Q64.44688 73.73125 64.63438 73.40312Q64.82188 73.075 64.8375 72.45L64.15 72.45ZM67.49375 69.80937L68.7125 69.6375Q68.93125 70.68437 69.43125 71.15312Q69.94688 71.60625 70.68125 71.60625Q71.55625 71.60625 72.15 71.0125Q72.74375 70.40312 72.74375 69.5125Q72.74375 68.66875 72.18125 68.12187Q71.63438 67.575 70.79063 67.575Q70.43125 67.575 69.91563 67.7L70.05625 66.62187Q70.18125 66.6375 70.24375 66.6375Q71.04063 66.6375 71.66563 66.23125Q72.29063 65.825 72.29063 64.96562Q72.29063 64.29375 71.8375 63.856247Q71.38438 63.403122 70.65 63.403122Q69.93125 63.403122 69.44688 63.856247Q68.97813 64.29375 68.8375 65.2L67.61875 64.98125Q67.8375 63.746872 68.63438 63.074997Q69.43125 62.387497 70.61875 62.387497Q71.44688 62.387497 72.13438 62.746872Q72.82188 63.090622 73.18125 63.699997Q73.55625 64.30937 73.55625 64.99687Q73.55625 65.6375 73.2125 66.16875Q72.86875 66.7 72.18125 67.02812Q73.07188 67.23125 73.55625 67.87187Q74.05625 68.5125 74.05625 69.49687Q74.05625 70.80937 73.0875 71.71562Q72.13438 72.62187 70.68125 72.62187Q69.35313 72.62187 68.47813 71.84062Q67.61875 71.05937 67.49375 69.80937Z" fill-rule="nonzero"/><path fill="#000000" d="M55.478127 21.9625Q55.478127 20.18125 55.8375 19.103125Q56.2125 18.009375 56.93125 17.43125Q57.65 16.8375 58.74375 16.8375Q59.55625 16.8375 60.165627 17.165625Q60.775 17.49375 61.165627 18.103125Q61.571877 18.7125 61.790627 19.5875Q62.009377 20.4625 62.009377 21.9625Q62.009377 23.728125 61.65 24.80625Q61.290627 25.884375 60.571877 26.478125Q59.853127 27.071875 58.74375 27.071875Q57.30625 27.071875 56.478127 26.025Q55.478127 24.775 55.478127 21.9625ZM56.74375 21.9625Q56.74375 24.43125 57.321877 25.24375Q57.9 26.05625 58.74375 26.05625Q59.603127 26.05625 60.18125 25.24375Q60.759377 24.415625 60.759377 21.9625Q60.759377 19.478125 60.18125 18.665625Q59.603127 17.853125 58.728127 17.853125Q57.884377 17.853125 57.384377 18.571875Q56.74375 19.49375 56.74375 21.9625ZM64.15 26.9L64.15 25.49375L65.54063 25.49375L65.54063 26.9Q65.54063 27.665625 65.25938 28.134375Q64.99375 28.61875 64.4 28.884375L64.05625 28.353125Q64.44688 28.18125 64.63438 27.853125Q64.82188 27.525 64.8375 26.9L64.15 26.9ZM71.43125 26.9L71.43125 24.49375L67.07188 24.49375L67.07188 23.36875L71.65 16.884375L72.65 16.884375L72.65 23.36875L74.00938 23.36875L74.00938 24.49375L72.65 24.49375L72.65 26.9L71.43125 26.9ZM71.43125 23.36875L71.43125 18.853125L68.29063 23.36875L71.43125 23.36875Z" fill-rule="nonzero"/><path fill="#000000" d="M109.65179 221.08438L109.65179 219.85L113.43304 219.85L113.43304 221.08438L109.65179 221.08438ZM121.18304 216.5375L119.96429 216.63126Q119.79241 215.89688 119.49554 215.56876Q118.99554 215.05313 118.26116 215.05313Q117.66741 215.05313 117.22991 215.38126Q116.65179 215.80313 116.30804 216.61563Q115.97991 217.42813 115.96429 218.92813Q116.40179 218.25626 117.04241 217.92813Q117.69866 217.6 118.40179 217.6Q119.63616 217.6 120.49554 218.50626Q121.35491 219.4125 121.35491 220.85Q121.35491 221.7875 120.94866 222.6Q120.54241 223.4125 119.82366 223.85Q119.12054 224.27188 118.21429 224.27188Q116.68304 224.27188 115.71429 223.14688Q114.74554 222.00626 114.74554 219.4125Q114.74554 216.50626 115.80804 215.17813Q116.74554 214.0375 118.33929 214.0375Q119.52679 214.0375 120.27679 214.70938Q121.02679 215.36563 121.18304 216.5375ZM116.15179 220.85Q116.15179 221.49063 116.41741 222.06876Q116.69866 222.64688 117.18304 222.95938Q117.66741 223.25626 118.19866 223.25626Q118.97991 223.25626 119.54241 222.63126Q120.10491 222.00626 120.10491 220.92813Q120.10491 219.88126 119.54241 219.2875Q118.99554 218.67813 118.15179 218.67813Q117.32366 218.67813 116.72991 219.2875Q116.15179 219.88126 116.15179 220.85Z" fill-rule="nonzero"/><path fill="#000000" d="M159.74702 221.08438L159.74702 219.85L163.52827 219.85L163.52827 221.08438L159.74702 221.08438ZM168.84077 224.1L168.84077 221.69376L164.4814 221.69376L164.4814 220.56876L169.05952 214.08438L170.05952 214.08438L170.05952 220.56876L171.4189 220.56876L171.4189 221.69376L170.05952 221.69376L170.05952 224.1L168.84077 224.1ZM168.84077 220.56876L168.84077 216.05313L165.70015 220.56876L168.84077 220.56876Z" fill-rule="nonzero"/><path fill="#000000" d="M209.84225 221.08438L209.84225 219.85L213.6235 219.85L213.6235 221.08438L209.84225 221.08438ZM221.45163 222.9125L221.45163 224.1L214.82663 224.1Q214.811 223.6625 214.96725 223.24063Q215.23288 222.56876 215.77975 221.9125Q216.34225 221.25626 217.38913 220.39688Q219.02975 219.05313 219.59225 218.27188Q220.17038 217.49063 220.17038 216.7875Q220.17038 216.05313 219.63913 215.55313Q219.1235 215.05313 218.29538 215.05313Q217.40475 215.05313 216.85788 215.58438Q216.32663 216.11563 216.32663 217.06876L215.061 216.92813Q215.186 215.52188 216.02975 214.7875Q216.88913 214.0375 218.311 214.0375Q219.76413 214.0375 220.59225 214.83438Q221.436 215.63126 221.436 216.81876Q221.436 217.42813 221.186 218.00626Q220.95163 218.58438 220.3735 219.225Q219.811 219.86563 218.48288 220.99063Q217.3735 221.9125 217.061 222.25626Q216.7485 222.58438 216.54538 222.9125L221.45163 222.9125Z" fill-rule="nonzero"/><path fill="#000000" d="M262.57812 219.1625Q262.57812 217.38126 262.9375 216.30313Q263.3125 215.20938 264.03125 214.63126Q264.75 214.0375 265.84375 214.0375Q266.65625 214.0375 267.26562 214.36563Q267.875 214.69376 268.26562 215.30313Q268.67188 215.9125 268.89062 216.7875Q269.10938 217.6625 269.10938 219.1625Q269.10938 220.92813 268.75 222.00626Q268.39062 223.08438 267.67188 223.67813Q266.95312 224.27188 265.84375 224.27188Q264.40625 224.27188 263.57812 223.225Q262.57812 221.975 262.57812 219.1625ZM263.84375 219.1625Q263.84375 221.63126 264.42188 222.44376Q265.0 223.25626 265.84375 223.25626Q266.70312 223.25626 267.28125 222.44376Q267.85938 221.61563 267.85938 219.1625Q267.85938 216.67813 267.28125 215.86563Q266.70312 215.05313 265.82812 215.05313Q264.98438 215.05313 264.48438 215.77188Q263.84375 216.69376 263.84375 219.1625Z" fill-rule="nonzero"/><path fill="#000000" d="M319.14212 222.9125L319.14212 224.1L312.51712 224.1Q312.5015 223.6625 312.65775 223.24063Q312.92337 222.56876 313.47025 221.9125Q314.03275 221.25626 315.07962 220.39688Q316.72025 219.05313 317.28275 218.27188Q317.86087 217.49063 317.86087 216.7875Q317.86087 216.05313 317.32962 215.55313Q316.814 215.05313 315.98587 215.05313Q315.09525 215.05313 314.54837 215.58438Q314.01712 216.11563 314.01712 217.06876L312.7515 216.92813Q312.8765 215.52188 313.72025 214.7875Q314.57962 214.0375 316.0015 214.0375Q317.45462 214.0375 318.28275 214.83438Q319.1265 215.63126 319.1265 216.81876Q319.1265 217.42813 318.8765 218.00626Q318.64212 218.58438 318.064 219.225Q317.5015 219.86563 316.17337 220.99063Q315.064 221.9125 314.7515 222.25626Q314.439 222.58438 314.23587 222.9125L319.14212 222.9125Z" fill-rule="nonzero"/><path fill="#000000" d="M366.72174 224.1L366.72174 221.69376L362.36237 221.69376L362.36237 220.56876L366.9405 214.08438L367.9405 214.08438L367.9405 220.56876L369.29987 220.56876L369.29987 221.69376L367.9405 221.69376L367.9405 224.1L366.72174 224.1ZM366.72174 220.56876L366.72174 216.05313L363.58112 220.56876L366.72174 220.56876Z" fill-rule="nonzero"/><path fill="#000000" d="M419.25446 216.5375L418.0357 216.63126Q417.86383 215.89688 417.56696 215.56876Q417.06696 215.05313 416.33258 215.05313Q415.73883 215.05313 415.30133 215.38126Q414.7232 215.80313 414.37946 216.61563Q414.05133 217.42813 414.0357 218.92813Q414.4732 218.25626 415.11383 217.92813Q415.77008 217.6 416.4732 217.6Q417.70758 217.6 418.56696 218.50626Q419.42633 219.4125 419.42633 220.85Q419.42633 221.7875 419.02008 222.6Q418.61383 223.4125 417.89508 223.85Q417.19196 224.27188 416.2857 224.27188Q414.75446 224.27188 413.7857 223.14688Q412.81696 222.00626 412.81696 219.4125Q412.81696 216.50626 413.87946 215.17813Q414.81696 214.0375 416.4107 214.0375Q417.5982 214.0375 418.3482 214.70938Q419.0982 215.36563 419.25446 216.5375ZM414.2232 220.85Q414.2232 221.49063 414.48883 222.06876Q414.77008 222.64688 415.25446 222.95938Q415.73883 223.25626 416.27008 223.25626Q417.05133 223.25626 417.61383 222.63126Q418.17633 222.00626 418.17633 220.92813Q418.17633 219.88126 417.61383 219.2875Q417.06696 218.67813 416.2232 218.67813Q415.39508 218.67813 414.80133 219.2875Q414.2232 219.88126 414.2232 220.85Z" fill-rule="nonzero"/></svg>