<svg version="1.1" viewBox="0.0 0.0 459.0 278.0" fill="none" stroke="none" stroke-linecap="square" stroke-miterlimit="10" width="459" height="278" xmlns:xlink="http://www.w3.org/1999/xlink" xmlns="http://www.w3.org/2000/svg"><path fill="#ffffff" d="M0 0L459.0 0L459.0 278.0L0 278.0L0 0Z" fill-rule="nonzero"/><path stroke="#333333" stroke-width="1.0" stroke-linecap="butt" d="M85.5 199.5L445.5 199.5" fill-rule="nonzero"/><path stroke="#efefef" stroke-width="1.0" stroke-linecap="butt" d="M85.5 154.5L445.5 154.5" fill-rule="nonzero"/><path stroke="#efefef" stroke-width="1.0" stroke-linecap="butt" d="M85.5 110.5L445.5 110.5" fill-rule="nonzero"/><path stroke="#efefef" stroke-width="1.0" stroke-linecap="butt" d="M85.5 66.5L445.5 66.5" fill-rule="nonzero"/><path stroke="#efefef" stroke-width="1.0" stroke-linecap="butt" d="M85.5 21.5L445.5 21.5" fill-rule="nonzero"/><clipPath id="id_0"><path d="M85.9 21.9L445.1 21.9L445.1 199.1L85.9 199.1L85.9 21.9Z" clip-rule="nonzero"/></clipPath><path stroke="#001128" stroke-width="1.0" stroke-linecap="butt" stroke-opacity="0.14901961" clip-path="url(#id_0)" d="M104.0 199.0L93.0 199.0L93.0 199.0C93.0 199.0 93.0 199.0 93.0 199.0L104.0 199.0C104.0 199.0 104.0 199.0 104.0 199.0Z" fill-rule="nonzero"/><path fill="#001128" fill-opacity="0.101960786" clip-path="url(#id_0)" d="M104.0 199.0L93.0 199.0L93.0 199.0C93.0 199.0 93.0 199.0 93.0 199.0L104.0 199.0C104.0 199.0 104.0 199.0 104.0 199.0Z" fill-rule="nonzero"/><path stroke="#001128" stroke-width="1.0" stroke-linecap="butt" stroke-opacity="0.14901961" clip-path="url(#id_0)" d="M121.0 199.0L110.0 199.0L110.0 199.0C110.0 199.0 110.0 199.0 110.0 199.0L121.0 199.0C121.0 199.0 121.0 199.0 121.0 199.0Z" fill-rule="nonzero"/><path fill="#001128" fill-opacity="0.101960786" clip-path="url(#id_0)" d="M121.0 199.0L110.0 199.0L110.0 199.0C110.0 199.0 110.0 199.0 110.0 199.0L121.0 199.0C121.0 199.0 121.0 199.0 121.0 199.0Z" fill-rule="nonzero"/><path stroke="#001128" stroke-width="1.0" stroke-linecap="butt" stroke-opacity="0.14901961" clip-path="url(#id_0)" d="M139.0 199.0L128.0 199.0L128.0 199.0C128.0 199.0 128.0 199.0 128.0 199.0L139.0 199.0C139.0 199.0 139.0 199.0 139.0 199.0Z" fill-rule="nonzero"/><path fill="#001128" fill-opacity="0.101960786" clip-path="url(#id_0)" d="M139.0 199.0L128.0 199.0L128.0 199.0C128.0 199.0 128.0 199.0 128.0 199.0L139.0 199.0C139.0 199.0 139.0 199.0 139.0 199.0Z" fill-rule="nonzero"/><path stroke="#001128" stroke-width="1.0" stroke-linecap="butt" stroke-opacity="0.14901961" clip-path="url(#id_0)" d="M157.0 199.0L146.0 199.0L146.0 198.0C146.0 197.44771 146.44771 197.0 147.0 197.0L156.0 197.0C156.55229 197.0 157.0 197.44771 157.0 198.0Z" fill-rule="nonzero"/><path fill="#001128" fill-opacity="0.101960786" clip-path="url(#id_0)" d="M157.0 199.0L146.0 199.0L146.0 198.0C146.0 197.44771 146.44771 197.0 147.0 197.0L156.0 197.0C156.55229 197.0 157.0 197.44771 157.0 198.0Z" fill-rule="nonzero"/><path stroke="#001128" stroke-width="1.0" stroke-linecap="butt" stroke-opacity="0.14901961" clip-path="url(#id_0)" d="M174.0 199.0L163.0 199.0L163.0 195.0C163.0 193.89543 163.89543 193.0 165.0 193.0L172.0 193.0C173.10457 193.0 174.0 193.89543 174.0 195.0Z" fill-rule="nonzero"/><path fill="#001128" fill-opacity="0.101960786" clip-path="url(#id_0)" d="M174.0 199.0L163.0 199.0L163.0 195.0C163.0 193.89543 163.89543 193.0 165.0 193.0L172.0 193.0C173.10457 193.0 174.0 193.89543 174.0 195.0Z" fill-rule="nonzero"/><path stroke="#001128" stroke-width="1.0" stroke-linecap="butt" stroke-opacity="0.14901961" clip-path="url(#id_0)" d="M192.0 199.0L181.0 199.0L181.0 181.0C181.0 179.89543 181.89543 179.0 183.0 179.0L190.0 179.0C191.10457 179.0 192.0 179.89543 192.0 181.0Z" fill-rule="nonzero"/><path fill="#001128" fill-opacity="0.101960786" clip-path="url(#id_0)" d="M192.0 199.0L181.0 199.0L181.0 181.0C181.0 179.89543 181.89543 179.0 183.0 179.0L190.0 179.0C191.10457 179.0 192.0 179.89543 192.0 181.0Z" fill-rule="nonzero"/><path stroke="#001128" stroke-width="1.0" stroke-linecap="butt" stroke-opacity="0.14901961" clip-path="url(#id_0)" d="M210.0 199.0L199.0 199.0L199.0 155.0C199.0 153.89543 199.89543 153.0 201.0 153.0L208.0 153.0C209.10457 153.0 210.0 153.89543 210.0 155.0Z" fill-rule="nonzero"/><path fill="#001128" fill-opacity="0.101960786" clip-path="url(#id_0)" d="M210.0 199.0L199.0 199.0L199.0 155.0C199.0 153.89543 199.89543 153.0 201.0 153.0L208.0 153.0C209.10457 153.0 210.0 153.89543 210.0 155.0Z" fill-rule="nonzero"/><path stroke="#001128" stroke-width="1.0" stroke-linecap="butt" stroke-opacity="0.14901961" clip-path="url(#id_0)" d="M227.0 199.0L216.0 199.0L216.0 116.0C216.0 114.89543 216.89543 114.0 218.0 114.0L225.0 114.0C226.10457 114.0 227.0 114.89543 227.0 116.0Z" fill-rule="nonzero"/><path fill="#001128" fill-opacity="0.101960786" clip-path="url(#id_0)" d="M227.0 199.0L216.0 199.0L216.0 116.0C216.0 114.89543 216.89543 114.0 218.0 114.0L225.0 114.0C226.10457 114.0 227.0 114.89543 227.0 116.0Z" fill-rule="nonzero"/><path stroke="#001128" stroke-width="1.0" stroke-linecap="butt" stroke-opacity="0.14901961" clip-path="url(#id_0)" d="M245.0 199.0L234.0 199.0L234.0 73.0C234.0 71.89543 234.89543 71.0 236.0 71.0L243.0 71.0C244.10457 71.0 245.0 71.89543 245.0 73.0Z" fill-rule="nonzero"/><path fill="#001128" fill-opacity="0.101960786" clip-path="url(#id_0)" d="M245.0 199.0L234.0 199.0L234.0 73.0C234.0 71.89543 234.89543 71.0 236.0 71.0L243.0 71.0C244.10457 71.0 245.0 71.89543 245.0 73.0Z" fill-rule="nonzero"/><path stroke="#001128" stroke-width="1.0" stroke-linecap="butt" stroke-opacity="0.14901961" clip-path="url(#id_0)" d="M263.0 199.0L252.0 199.0L252.0 45.0C252.0 43.89543 252.89543 43.0 254.0 43.0L261.0 43.0C262.10458 43.0 263.0 43.89543 263.0 45.0Z" fill-rule="nonzero"/><path fill="#001128" fill-opacity="0.101960786" clip-path="url(#id_0)" d="M263.0 199.0L252.0 199.0L252.0 45.0C252.0 43.89543 252.89543 43.0 254.0 43.0L261.0 43.0C262.10458 43.0 263.0 43.89543 263.0 45.0Z" fill-rule="nonzero"/><path stroke="#001128" stroke-width="1.0" stroke-linecap="butt" stroke-opacity="0.14901961" clip-path="url(#id_0)" d="M280.0 199.0L269.0 199.0L269.0 45.0C269.0 43.89543 269.89542 43.0 271.0 43.0L278.0 43.0C279.10458 43.0 280.0 43.89543 280.0 45.0Z" fill-rule="nonzero"/><path fill="#001128" fill-opacity="0.101960786" clip-path="url(#id_0)" d="M280.0 199.0L269.0 199.0L269.0 45.0C269.0 43.89543 269.89542 43.0 271.0 43.0L278.0 43.0C279.10458 43.0 280.0 43.89543 280.0 45.0Z" fill-rule="nonzero"/><path stroke="#001128" stroke-width="1.0" stroke-linecap="butt" stroke-opacity="0.14901961" clip-path="url(#id_0)" d="M298.0 199.0L287.0 199.0L287.0 73.0C287.0 71.89543 287.89542 71.0 289.0 71.0L296.0 71.0C297.10458 71.0 298.0 71.89543 298.0 73.0Z" fill-rule="nonzero"/><path fill="#001128" fill-opacity="0.101960786" clip-path="url(#id_0)" d="M298.0 199.0L287.0 199.0L287.0 73.0C287.0 71.89543 287.89542 71.0 289.0 71.0L296.0 71.0C297.10458 71.0 298.0 71.89543 298.0 73.0Z" fill-rule="nonzero"/><path stroke="#001128" stroke-width="1.0" stroke-linecap="butt" stroke-opacity="0.14901961" clip-path="url(#id_0)" d="M316.0 199.0L305.0 199.0L305.0 116.0C305.0 114.89543 305.89542 114.0 307.0 114.0L314.0 114.0C315.10458 114.0 316.0 114.89543 316.0 116.0Z" fill-rule="nonzero"/><path fill="#001128" fill-opacity="0.101960786" clip-path="url(#id_0)" d="M316.0 199.0L305.0 199.0L305.0 116.0C305.0 114.89543 305.89542 114.0 307.0 114.0L314.0 114.0C315.10458 114.0 316.0 114.89543 316.0 116.0Z" fill-rule="nonzero"/><path stroke="#001128" stroke-width="1.0" stroke-linecap="butt" stroke-opacity="0.14901961" clip-path="url(#id_0)" d="M333.0 199.0L322.0 199.0L322.0 155.0C322.0 153.89543 322.89542 153.0 324.0 153.0L331.0 153.0C332.10458 153.0 333.0 153.89543 333.0 155.0Z" fill-rule="nonzero"/><path fill="#001128" fill-opacity="0.101960786" clip-path="url(#id_0)" d="M333.0 199.0L322.0 199.0L322.0 155.0C322.0 153.89543 322.89542 153.0 324.0 153.0L331.0 153.0C332.10458 153.0 333.0 153.89543 333.0 155.0Z" fill-rule="nonzero"/><path stroke="#001128" stroke-width="1.0" stroke-linecap="butt" stroke-opacity="0.14901961" clip-path="url(#id_0)" d="M351.0 199.0L340.0 199.0L340.0 181.0C340.0 179.89543 340.89542 179.0 342.0 179.0L349.0 179.0C350.10458 179.0 351.0 179.89543 351.0 181.0Z" fill-rule="nonzero"/><path fill="#001128" fill-opacity="0.101960786" clip-path="url(#id_0)" d="M351.0 199.0L340.0 199.0L340.0 181.0C340.0 179.89543 340.89542 179.0 342.0 179.0L349.0 179.0C350.10458 179.0 351.0 179.89543 351.0 181.0Z" fill-rule="nonzero"/><path stroke="#001128" stroke-width="1.0" stroke-linecap="butt" stroke-opacity="0.14901961" clip-path="url(#id_0)" d="M369.0 199.0L358.0 199.0L358.0 195.0C358.0 193.89543 358.89542 193.0 360.0 193.0L367.0 193.0C368.10458 193.0 369.0 193.89543 369.0 195.0Z" fill-rule="nonzero"/><path fill="#001128" fill-opacity="0.101960786" clip-path="url(#id_0)" d="M369.0 199.0L358.0 199.0L358.0 195.0C358.0 193.89543 358.89542 193.0 360.0 193.0L367.0 193.0C368.10458 193.0 369.0 193.89543 369.0 195.0Z" fill-rule="nonzero"/><path stroke="#001128" stroke-width="1.0" stroke-linecap="butt" stroke-opacity="0.14901961" clip-path="url(#id_0)" d="M386.0 199.0L375.0 199.0L375.0 198.0C375.0 197.44771 375.44772 197.0 376.0 197.0L385.0 197.0C385.55228 197.0 386.0 197.44771 386.0 198.0Z" fill-rule="nonzero"/><path fill="#001128" fill-opacity="0.101960786" clip-path="url(#id_0)" d="M386.0 199.0L375.0 199.0L375.0 198.0C375.0 197.44771 375.44772 197.0 376.0 197.0L385.0 197.0C385.55228 197.0 386.0 197.44771 386.0 198.0Z" fill-rule="nonzero"/><path stroke="#001128" stroke-width="1.0" stroke-linecap="butt" stroke-opacity="0.14901961" clip-path="url(#id_0)" d="M404.0 199.0L393.0 199.0L393.0 199.0C393.0 199.0 393.0 199.0 393.0 199.0L404.0 199.0C404.0 199.0 404.0 199.0 404.0 199.0Z" fill-rule="nonzero"/><path fill="#001128" fill-opacity="0.101960786" clip-path="url(#id_0)" d="M404.0 199.0L393.0 199.0L393.0 199.0C393.0 199.0 393.0 199.0 393.0 199.0L404.0 199.0C404.0 199.0 404.0 199.0 404.0 199.0Z" fill-rule="nonzero"/><path stroke="#001128" stroke-width="1.0" stroke-linecap="butt" stroke-opacity="0.14901961" clip-path="url(#id_0)" d="M422.0 199.0L411.0 199.0L411.0 199.0C411.0 199.0 411.0 199.0 411.0 199.0L422.0 199.0C422.0 199.0 422.0 199.0 422.0 199.0Z" fill-rule="nonzero"/><path fill="#001128" fill-opacity="0.101960786" clip-path="url(#id_0)" d="M422.0 199.0L411.0 199.0L411.0 199.0C411.0 199.0 411.0 199.0 411.0 199.0L422.0 199.0C422.0 199.0 422.0 199.0 422.0 199.0Z" fill-rule="nonzero"/><path stroke="#001128" stroke-width="1.0" stroke-linecap="butt" stroke-opacity="0.14901961" clip-path="url(#id_0)" d="M439.0 199.0L428.0 199.0L428.0 199.0C428.0 199.0 428.0 199.0 428.0 199.0L439.0 199.0C439.0 199.0 439.0 199.0 439.0 199.0Z" fill-rule="nonzero"/><path fill="#001128" fill-opacity="0.101960786" clip-path="url(#id_0)" d="M439.0 199.0L428.0 199.0L428.0 199.0C428.0 199.0 428.0 199.0 428.0 199.0L439.0 199.0C439.0 199.0 439.0 199.0 439.0 199.0Z" fill-rule="nonzero"/><path fill="#000000" d="M224.07812 261.1L224.07812 251.08438L227.85938 251.08438Q228.85938 251.08438 229.39062 251.17813Q230.125 251.30313 230.625 251.64688Q231.125 251.99063 231.42188 252.61563Q231.73438 253.225 231.73438 253.975Q231.73438 255.25626 230.92188 256.14688Q230.10938 257.02188 227.98438 257.02188L225.40625 257.02188L225.40625 261.1L224.07812 261.1ZM225.40625 255.85L228.0 255.85Q229.28125 255.85 229.8125 255.36563Q230.35938 254.88126 230.35938 254.02188Q230.35938 253.38126 230.04688 252.94376Q229.73438 252.49063 229.20312 252.35Q228.875 252.25626 227.96875 252.25626L225.40625 252.25626L225.40625 255.85ZM232.46875 257.475Q232.46875 255.45938 233.59375 254.475Q234.51562 253.67813 235.875 253.67813Q237.35938 253.67813 238.3125 254.6625Q239.26562 255.63126 239.26562 257.36563Q239.26562 258.77188 238.84375 259.58438Q238.42188 260.38126 237.60938 260.83438Q236.8125 261.27188 235.875 261.27188Q234.34375 261.27188 233.40625 260.2875Q232.46875 259.30313 232.46875 257.475ZM233.73438 257.475Q233.73438 258.86563 234.34375 259.56876Q234.95312 260.25626 235.875 260.25626Q236.78125 260.25626 237.39062 259.55313Q238.0 258.85 238.0 257.42813Q238.0 256.08438 237.39062 255.39688Q236.78125 254.69376 235.875 254.69376Q234.95312 254.69376 234.34375 255.38126Q233.73438 256.06876 233.73438 257.475ZM240.4375 258.92813L241.64062 258.74063Q241.75 259.475 242.21875 259.86563Q242.6875 260.25626 243.53125 260.25626Q244.375 260.25626 244.78125 259.9125Q245.20312 259.56876 245.20312 259.1Q245.20312 258.67813 244.82812 258.44376Q244.57812 258.27188 243.57812 258.02188Q242.21875 257.67813 241.6875 257.42813Q241.17188 257.17813 240.90625 256.74063Q240.64062 256.30313 240.64062 255.77188Q240.64062 255.2875 240.85938 254.88126Q241.07812 254.45938 241.46875 254.17813Q241.75 253.975 242.23438 253.83438Q242.73438 253.67813 243.3125 253.67813Q244.15625 253.67813 244.79688 253.92813Q245.45312 254.1625 245.76562 254.58438Q246.07812 255.00626 246.1875 255.70938L244.98438 255.88126Q244.90625 255.31876 244.5 255.00626Q244.10938 254.69376 243.39062 254.69376Q242.54688 254.69376 242.1875 254.975Q241.82812 255.24063 241.82812 255.63126Q241.82812 255.86563 241.96875 256.05313Q242.125 256.25626 242.45312 256.38126Q242.625 256.44376 243.53125 256.69376Q244.84375 257.05313 245.35938 257.27188Q245.875 257.49063 246.15625 257.9125Q246.45312 258.33438 246.45312 258.95938Q246.45312 259.58438 246.09375 260.13126Q245.75 260.6625 245.0625 260.975Q244.39062 261.27188 243.53125 261.27188Q242.125 261.27188 241.375 260.67813Q240.64062 260.08438 240.4375 258.92813ZM247.9375 252.49063L247.9375 251.08438L249.15625 251.08438L249.15625 252.49063L247.9375 252.49063ZM247.9375 261.1L247.9375 253.83438L249.15625 253.83438L249.15625 261.1L247.9375 261.1ZM255.65625 258.44376L256.875 258.6Q256.67188 259.85 255.84375 260.56876Q255.03125 261.27188 253.84375 261.27188Q252.35938 261.27188 251.45312 260.30313Q250.54688 259.31876 250.54688 257.49063Q250.54688 256.31876 250.9375 255.44376Q251.32812 254.55313 252.125 254.11563Q252.92188 253.67813 253.85938 253.67813Q255.03125 253.67813 255.78125 254.27188Q256.54688 254.86563 256.75 255.975L255.5625 256.1625Q255.39062 255.42813 254.95312 255.06876Q254.51562 254.69376 253.90625 254.69376Q252.96875 254.69376 252.39062 255.36563Q251.8125 256.02188 251.8125 257.45938Q251.8125 258.92813 252.375 259.6Q252.9375 260.25626 253.82812 260.25626Q254.5625 260.25626 255.04688 259.81876Q255.53125 259.36563 255.65625 258.44376ZM252.8125 262.00626L253.15625 260.80313L254.07812 260.80313L253.84375 261.5375Q254.4375 261.6 254.71875 261.88126Q255.01562 262.17813 255.01562 262.5375Q255.01562 263.05313 254.51562 263.44376Q254.03125 263.83438 253.04688 263.83438Q252.48438 263.83438 252.0625 263.75626L252.14062 262.95938Q252.57812 262.99063 252.78125 262.99063Q253.42188 262.99063 253.6875 262.80313Q253.875 262.6625 253.875 262.475Q253.875 262.35 253.79688 262.25626Q253.71875 262.1625 253.5 262.08438Q253.29688 262.02188 252.8125 262.00626ZM262.65625 260.20938Q261.98438 260.7875 261.34375 261.0375Q260.71875 261.27188 259.98438 261.27188Q258.79688 261.27188 258.14062 260.69376Q257.5 260.1 257.5 259.17813Q257.5 258.64688 257.73438 258.20938Q257.98438 257.77188 258.375 257.50626Q258.78125 257.24063 259.26562 257.1Q259.625 257.00626 260.35938 256.9125Q261.85938 256.74063 262.5625 256.49063Q262.5625 256.24063 262.5625 256.17813Q262.5625 255.4125 262.21875 255.11563Q261.75 254.69376 260.8125 254.69376Q259.95312 254.69376 259.53125 255.00626Q259.125 255.30313 258.92188 256.06876L257.71875 255.9125Q257.875 255.13126 258.25 254.6625Q258.64062 254.19376 259.34375 253.94376Q260.0625 253.67813 261.0 253.67813Q261.92188 253.67813 262.5 253.89688Q263.07812 254.11563 263.34375 254.44376Q263.625 254.77188 263.73438 255.2875Q263.79688 255.6 263.79688 256.4125L263.79688 258.05313Q263.79688 259.77188 263.875 260.225Q263.95312 260.67813 264.1875 261.1L262.90625 261.1Q262.71875 260.70938 262.65625 260.20938ZM262.5625 257.45938Q261.89062 257.725 260.54688 257.92813Q259.79688 258.0375 259.46875 258.17813Q259.15625 258.30313 258.98438 258.56876Q258.8125 258.83438 258.8125 259.14688Q258.8125 259.64688 259.1875 259.975Q259.5625 260.30313 260.28125 260.30313Q261.0 260.30313 261.54688 259.99063Q262.09375 259.67813 262.35938 259.13126Q262.5625 258.725 262.5625 257.9125L262.5625 257.45938ZM258.5625 252.77188Q258.5625 252.05313 258.95312 251.63126Q259.34375 251.20938 259.95312 251.20938Q260.375 251.20938 261.10938 251.58438Q261.51562 251.7875 261.75 251.7875Q261.96875 251.7875 262.07812 251.6625Q262.20312 251.5375 262.25 251.19376L263.14062 251.19376Q263.10938 251.95938 262.73438 252.35Q262.375 252.74063 261.79688 252.74063Q261.35938 252.74063 260.65625 252.36563Q260.20312 252.11563 260.0 252.11563Q259.76562 252.11563 259.60938 252.2875Q259.46875 252.44376 259.46875 252.77188L258.5625 252.77188ZM265.46875 257.475Q265.46875 255.45938 266.59375 254.475Q267.51562 253.67813 268.875 253.67813Q270.35938 253.67813 271.3125 254.6625Q272.26562 255.63126 272.26562 257.36563Q272.26562 258.77188 271.84375 259.58438Q271.42188 260.38126 270.60938 260.83438Q269.8125 261.27188 268.875 261.27188Q267.34375 261.27188 266.40625 260.2875Q265.46875 259.30313 265.46875 257.475ZM266.73438 257.475Q266.73438 258.86563 267.34375 259.56876Q267.95312 260.25626 268.875 260.25626Q269.78125 260.25626 270.39062 259.55313Q271.0 258.85 271.0 257.42813Q271.0 256.08438 270.39062 255.39688Q269.78125 254.69376 268.875 254.69376Q267.95312 254.69376 267.34375 255.38126Q266.73438 256.06876 266.73438 257.475ZM278.15625 261.1L278.15625 251.08438L284.90625 251.08438L284.90625 252.25626L279.46875 252.25626L279.46875 255.36563L284.17188 255.36563L284.17188 256.55313L279.46875 256.55313L279.46875 261.1L278.15625 261.1ZM286.9375 252.49063L286.9375 251.08438L288.15625 251.08438L288.15625 252.49063L286.9375 252.49063ZM286.9375 261.1L286.9375 253.83438L288.15625 253.83438L288.15625 261.1L286.9375 261.1ZM289.92188 261.1L289.92188 253.83438L291.03125 253.83438L291.03125 254.86563Q291.82812 253.67813 293.34375 253.67813Q294.0 253.67813 294.54688 253.9125Q295.09375 254.14688 295.35938 254.5375Q295.64062 254.9125 295.75 255.44376Q295.82812 255.7875 295.82812 256.63126L295.82812 261.1L294.59375 261.1L294.59375 256.67813Q294.59375 255.92813 294.45312 255.56876Q294.3125 255.19376 293.9375 254.975Q293.57812 254.74063 293.07812 254.74063Q292.29688 254.74063 291.71875 255.24063Q291.15625 255.74063 291.15625 257.13126L291.15625 261.1L289.92188 261.1ZM302.65625 260.20938Q301.98438 260.7875 301.34375 261.0375Q300.71875 261.27188 299.98438 261.27188Q298.79688 261.27188 298.14062 260.69376Q297.5 260.1 297.5 259.17813Q297.5 258.64688 297.73438 258.20938Q297.98438 257.77188 298.375 257.50626Q298.78125 257.24063 299.26562 257.1Q299.625 257.00626 300.35938 256.9125Q301.85938 256.74063 302.5625 256.49063Q302.5625 256.24063 302.5625 256.17813Q302.5625 255.4125 302.21875 255.11563Q301.75 254.69376 300.8125 254.69376Q299.95312 254.69376 299.53125 255.00626Q299.125 255.30313 298.92188 256.06876L297.71875 255.9125Q297.875 255.13126 298.25 254.6625Q298.64062 254.19376 299.34375 253.94376Q300.0625 253.67813 301.0 253.67813Q301.92188 253.67813 302.5 253.89688Q303.07812 254.11563 303.34375 254.44376Q303.625 254.77188 303.73438 255.2875Q303.79688 255.6 303.79688 256.4125L303.79688 258.05313Q303.79688 259.77188 303.875 260.225Q303.95312 260.67813 304.1875 261.1L302.90625 261.1Q302.71875 260.70938 302.65625 260.20938ZM302.5625 257.45938Q301.89062 257.725 300.54688 257.92813Q299.79688 258.0375 299.46875 258.17813Q299.15625 258.30313 298.98438 258.56876Q298.8125 258.83438 298.8125 259.14688Q298.8125 259.64688 299.1875 259.975Q299.5625 260.30313 300.28125 260.30313Q301.0 260.30313 301.54688 259.99063Q302.09375 259.67813 302.35938 259.13126Q302.5625 258.725 302.5625 257.9125L302.5625 257.45938ZM305.89062 261.1L305.89062 251.08438L307.125 251.08438L307.125 261.1L305.89062 261.1Z" fill-rule="nonzero"/><path fill="#000000" d="M26.900005 162.92188L16.88438 162.92188L16.88438 159.14062Q16.88438 158.14062 16.97813 157.60938Q17.10313 156.875 17.44688 156.375Q17.79063 155.875 18.41563 155.57812Q19.025005 155.26562 19.775005 155.26562Q21.056255 155.26562 21.94688 156.07812Q22.82188 156.89062 22.82188 159.01562L22.82188 161.59375L26.900005 161.59375L26.900005 162.92188ZM21.650005 161.59375L21.650005 159.0Q21.650005 157.71875 21.16563 157.1875Q20.681255 156.64062 19.82188 156.64062Q19.181255 156.64062 18.743755 156.95312Q18.29063 157.26562 18.150005 157.79688Q18.056255 158.125 18.056255 159.03125L18.056255 161.59375L21.650005 161.59375ZM26.900005 154.09375L19.63438 154.09375L19.63438 152.98438L20.743755 152.98438Q19.962505 152.5625 19.72813 152.20312Q19.47813 151.84375 19.47813 151.40625Q19.47813 150.78125 19.868755 150.14062L21.00938 150.5625Q20.743755 151.01562 20.743755 151.46875Q20.743755 151.875 20.993755 152.20312Q21.22813 152.51562 21.66563 152.65625Q22.32188 152.85938 23.10313 152.85938L26.900005 152.85938L26.900005 154.09375ZM23.275005 149.53125Q21.25938 149.53125 20.275005 148.40625Q19.47813 147.48438 19.47813 146.125Q19.47813 144.64062 20.462505 143.6875Q21.431255 142.73438 23.16563 142.73438Q24.57188 142.73438 25.38438 143.15625Q26.181255 143.57812 26.63438 144.39062Q27.07188 145.1875 27.07188 146.125Q27.07188 147.65625 26.087505 148.59375Q25.10313 149.53125 23.275005 149.53125ZM23.275005 148.26562Q24.66563 148.26562 25.368755 147.65625Q26.056255 147.04688 26.056255 146.125Q26.056255 145.21875 25.35313 144.60938Q24.650005 144.0 23.22813 144.0Q21.88438 144.0 21.19688 144.60938Q20.493755 145.21875 20.493755 146.125Q20.493755 147.04688 21.181255 147.65625Q21.868755 148.26562 23.275005 148.26562ZM26.900005 139.9375L26.900005 141.07812L16.88438 141.07812L16.88438 139.85938L20.44688 139.85938Q19.47813 139.07812 19.47813 137.85938Q19.47813 137.1875 19.743755 136.59375Q20.00938 136.0 20.50938 135.60938Q20.993755 135.21875 21.681255 135.0Q22.368755 134.78125 23.16563 134.78125Q25.025005 134.78125 26.056255 135.71875Q27.07188 136.64062 27.07188 137.92188Q27.07188 139.20312 25.993755 139.9375L26.900005 139.9375ZM23.212505 139.95312Q24.525005 139.95312 25.10313 139.59375Q26.056255 139.01562 26.056255 138.03125Q26.056255 137.21875 25.35313 136.64062Q24.650005 136.04688 23.25938 136.04688Q21.837505 136.04688 21.16563 136.60938Q20.493755 137.17188 20.493755 137.96875Q20.493755 138.78125 21.19688 139.375Q21.88438 139.95312 23.212505 139.95312ZM26.00938 128.34375Q26.587505 129.01562 26.837505 129.65625Q27.07188 130.28125 27.07188 131.01562Q27.07188 132.20312 26.493755 132.85938Q25.900005 133.5 24.97813 133.5Q24.44688 133.5 24.00938 133.26562Q23.57188 133.01562 23.306255 132.625Q23.04063 132.21875 22.900005 131.73438Q22.806255 131.375 22.712505 130.64062Q22.54063 129.14062 22.29063 128.4375Q22.04063 128.4375 21.97813 128.4375Q21.212505 128.4375 20.91563 128.78125Q20.493755 129.25 20.493755 130.1875Q20.493755 131.04688 20.806255 131.46875Q21.10313 131.875 21.868755 132.07812L21.712505 133.28125Q20.931255 133.125 20.462505 132.75Q19.993755 132.35938 19.743755 131.65625Q19.47813 130.9375 19.47813 130.0Q19.47813 129.07812 19.69688 128.5Q19.91563 127.921875 20.243755 127.65625Q20.57188 127.375 21.087505 127.265625Q21.400005 127.203125 22.212505 127.203125L23.85313 127.203125Q25.57188 127.203125 26.025005 127.125Q26.47813 127.046875 26.900005 126.8125L26.900005 128.09375Q26.50938 128.28125 26.00938 128.34375ZM23.25938 128.4375Q23.525005 129.10938 23.72813 130.45312Q23.837505 131.20312 23.97813 131.53125Q24.10313 131.84375 24.368755 132.01562Q24.63438 132.1875 24.94688 132.1875Q25.44688 132.1875 25.775005 131.8125Q26.10313 131.4375 26.10313 130.71875Q26.10313 130.0 25.79063 129.45312Q25.47813 128.90625 24.931255 128.64062Q24.525005 128.4375 23.712505 128.4375L23.25938 128.4375ZM26.900005 123.9375L26.900005 125.078125L16.88438 125.078125L16.88438 123.859375L20.44688 123.859375Q19.47813 123.078125 19.47813 121.859375Q19.47813 121.1875 19.743755 120.59375Q20.00938 120.0 20.50938 119.609375Q20.993755 119.21875 21.681255 119.0Q22.368755 118.78125 23.16563 118.78125Q25.025005 118.78125 26.056255 119.71875Q27.07188 120.640625 27.07188 121.921875Q27.07188 123.203125 25.993755 123.9375L26.900005 123.9375ZM23.212505 123.953125Q24.525005 123.953125 25.10313 123.59375Q26.056255 123.015625 26.056255 122.03125Q26.056255 121.21875 25.35313 120.640625Q24.650005 120.046875 23.25938 120.046875Q21.837505 120.046875 21.16563 120.609375Q20.493755 121.171875 20.493755 121.96875Q20.493755 122.78125 21.19688 123.375Q21.88438 123.953125 23.212505 123.953125ZM18.29063 117.0625L16.88438 117.0625L16.88438 115.84375L18.29063 115.84375L18.29063 117.0625ZM26.900005 117.0625L19.63438 117.0625L19.63438 115.84375L26.900005 115.84375L26.900005 117.0625ZM26.900005 114.109375L16.88438 114.109375L16.88438 112.875L26.900005 112.875L26.900005 114.109375ZM18.29063 111.0625L16.88438 111.0625L16.88438 109.84375L18.29063 109.84375L18.29063 111.0625ZM26.900005 111.0625L19.63438 111.0625L19.63438 109.84375L26.900005 109.84375L26.900005 111.0625ZM26.900005 103.359375L25.97813 103.359375Q27.07188 104.0625 27.07188 105.390625Q27.07188 106.265625 26.587505 107.0Q26.10313 107.71875 25.243755 108.125Q24.38438 108.515625 23.275005 108.515625Q22.19688 108.515625 21.306255 108.15625Q20.41563 107.796875 19.94688 107.078125Q19.47813 106.34375 19.47813 105.453125Q19.47813 104.796875 19.75938 104.28125Q20.025005 103.765625 20.47813 103.453125L16.88438 103.453125L16.88438 102.21875L26.900005 102.21875L26.900005 103.359375ZM23.275005 107.25Q24.66563 107.25 25.368755 106.671875Q26.056255 106.078125 26.056255 105.28125Q26.056255 104.46875 25.400005 103.90625Q24.72813 103.34375 23.38438 103.34375Q21.88438 103.34375 21.19688 103.921875Q20.493755 104.5 20.493755 105.328125Q20.493755 106.15625 21.16563 106.703125Q21.837505 107.25 23.275005 107.25ZM26.00938 95.34375Q26.587505 96.015625 26.837505 96.65625Q27.07188 97.28125 27.07188 98.015625Q27.07188 99.203125 26.493755 99.859375Q25.900005 100.5 24.97813 100.5Q24.44688 100.5 24.00938 100.265625Q23.57188 100.015625 23.306255 99.625Q23.04063 99.21875 22.900005 98.734375Q22.806255 98.375 22.712505 97.640625Q22.54063 96.140625 22.29063 95.4375Q22.04063 95.4375 21.97813 95.4375Q21.212505 95.4375 20.91563 95.78125Q20.493755 96.25 20.493755 97.1875Q20.493755 98.046875 20.806255 98.46875Q21.10313 98.875 21.868755 99.078125L21.712505 100.28125Q20.931255 100.125 20.462505 99.75Q19.993755 99.359375 19.743755 98.65625Q19.47813 97.9375 19.47813 97.0Q19.47813 96.078125 19.69688 95.5Q19.91563 94.921875 20.243755 94.65625Q20.57188 94.375 21.087505 94.265625Q21.400005 94.203125 22.212505 94.203125L23.85313 94.203125Q25.57188 94.203125 26.025005 94.125Q26.47813 94.046875 26.900005 93.8125L26.900005 95.09375Q26.50938 95.28125 26.00938 95.34375ZM23.25938 95.4375Q23.525005 96.109375 23.72813 97.453125Q23.837505 98.203125 23.97813 98.53125Q24.10313 98.84375 24.368755 99.015625Q24.63438 99.1875 24.94688 99.1875Q25.44688 99.1875 25.775005 98.8125Q26.10313 98.4375 26.10313 97.71875Q26.10313 97.0 25.79063 96.453125Q25.47813 95.90625 24.931255 95.640625Q24.525005 95.4375 23.712505 95.4375L23.25938 95.4375ZM26.900005 87.359375L25.97813 87.359375Q27.07188 88.0625 27.07188 89.390625Q27.07188 90.265625 26.587505 91.0Q26.10313 91.71875 25.243755 92.125Q24.38438 92.515625 23.275005 92.515625Q22.19688 92.515625 21.306255 92.15625Q20.41563 91.796875 19.94688 91.078125Q19.47813 90.34375 19.47813 89.453125Q19.47813 88.796875 19.75938 88.28125Q20.025005 87.765625 20.47813 87.453125L16.88438 87.453125L16.88438 86.21875L26.900005 86.21875L26.900005 87.359375ZM23.275005 91.25Q24.66563 91.25 25.368755 90.671875Q26.056255 90.078125 26.056255 89.28125Q26.056255 88.46875 25.400005 87.90625Q24.72813 87.34375 23.38438 87.34375Q21.88438 87.34375 21.19688 87.921875Q20.493755 88.5 20.493755 89.328125Q20.493755 90.15625 21.16563 90.703125Q21.837505 91.25 23.275005 91.25ZM24.556255 79.109375L24.712505 77.828125Q25.837505 78.140625 26.462505 78.953125Q27.07188 79.765625 27.07188 81.03125Q27.07188 82.625 26.087505 83.5625Q25.10313 84.484375 23.337505 84.484375Q21.493755 84.484375 20.493755 83.546875Q19.47813 82.59375 19.47813 81.09375Q19.47813 79.640625 20.47813 78.71875Q21.462505 77.796875 23.25938 77.796875Q23.368755 77.796875 23.587505 77.796875L23.587505 83.21875Q24.775005 83.140625 25.41563 82.546875Q26.056255 81.9375 26.056255 81.015625Q26.056255 80.34375 25.69688 79.875Q25.337505 79.390625 24.556255 79.109375ZM22.57188 83.140625L22.57188 79.09375Q21.650005 79.171875 21.19688 79.5625Q20.493755 80.140625 20.493755 81.078125Q20.493755 81.9375 21.056255 82.515625Q21.618755 83.078125 22.57188 83.140625Z" fill-rule="nonzero"/><path fill="#000000" d="M51.478127 199.1625Q51.478127 197.38126 51.8375 196.30313Q52.2125 195.20938 52.93125 194.63126Q53.65 194.0375 54.74375 194.0375Q55.55625 194.0375 56.165627 194.36563Q56.775 194.69376 57.165627 195.30313Q57.571877 195.9125 57.790627 196.7875Q58.009377 197.6625 58.009377 199.1625Q58.009377 200.92813 57.65 202.00626Q57.290627 203.08438 56.571877 203.67813Q55.853127 204.27188 54.74375 204.27188Q53.30625 204.27188 52.478127 203.225Q51.478127 201.975 51.478127 199.1625ZM52.74375 199.1625Q52.74375 201.63126 53.321877 202.44376Q53.9 203.25626 54.74375 203.25626Q55.603127 203.25626 56.18125 202.44376Q56.759377 201.61563 56.759377 199.1625Q56.759377 196.67813 56.18125 195.86563Q55.603127 195.05313 54.728127 195.05313Q53.884377 195.05313 53.384377 195.77188Q52.74375 196.69376 52.74375 199.1625ZM60.15 204.1L60.15 202.69376L61.540627 202.69376L61.540627 204.1Q61.540627 204.86563 61.259377 205.33438Q60.99375 205.81876 60.4 206.08438L60.05625 205.55313Q60.446877 205.38126 60.634377 205.05313Q60.821877 204.725 60.8375 204.1L60.15 204.1ZM63.478127 199.1625Q63.478127 197.38126 63.8375 196.30313Q64.2125 195.20938 64.93125 194.63126Q65.65 194.0375 66.74375 194.0375Q67.55625 194.0375 68.16563 194.36563Q68.775 194.69376 69.16563 195.30313Q69.57188 195.9125 69.79063 196.7875Q70.00938 197.6625 70.00938 199.1625Q70.00938 200.92813 69.65 202.00626Q69.29063 203.08438 68.57188 203.67813Q67.85313 204.27188 66.74375 204.27188Q65.30625 204.27188 64.47813 203.225Q63.478127 201.975 63.478127 199.1625ZM64.74375 199.1625Q64.74375 201.63126 65.32188 202.44376Q65.9 203.25626 66.74375 203.25626Q67.60313 203.25626 68.18125 202.44376Q68.75938 201.61563 68.75938 199.1625Q68.75938 196.67813 68.18125 195.86563Q67.60313 195.05313 66.72813 195.05313Q65.88438 195.05313 65.38438 195.77188Q64.74375 196.69376 64.74375 199.1625ZM71.47813 199.1625Q71.47813 197.38126 71.8375 196.30313Q72.2125 195.20938 72.93125 194.63126Q73.65 194.0375 74.74375 194.0375Q75.55625 194.0375 76.16563 194.36563Q76.775 194.69376 77.16563 195.30313Q77.57188 195.9125 77.79063 196.7875Q78.00938 197.6625 78.00938 199.1625Q78.00938 200.92813 77.65 202.00626Q77.29063 203.08438 76.57188 203.67813Q75.85313 204.27188 74.74375 204.27188Q73.30625 204.27188 72.47813 203.225Q71.47813 201.975 71.47813 199.1625ZM72.74375 199.1625Q72.74375 201.63126 73.32188 202.44376Q73.9 203.25626 74.74375 203.25626Q75.60313 203.25626 76.18125 202.44376Q76.75938 201.61563 76.75938 199.1625Q76.75938 196.67813 76.18125 195.86563Q75.60313 195.05313 74.72813 195.05313Q73.88438 195.05313 73.38438 195.77188Q72.74375 196.69376 72.74375 199.1625Z" fill-rule="nonzero"/><path fill="#000000" d="M51.478127 154.8625Q51.478127 153.08125 51.8375 152.00313Q52.2125 150.90938 52.93125 150.33125Q53.65 149.7375 54.74375 149.7375Q55.55625 149.7375 56.165627 150.06563Q56.775 150.39375 57.165627 151.00313Q57.571877 151.6125 57.790627 152.4875Q58.009377 153.3625 58.009377 154.8625Q58.009377 156.62813 57.65 157.70625Q57.290627 158.78438 56.571877 159.37813Q55.853127 159.97188 54.74375 159.97188Q53.30625 159.97188 52.478127 158.925Q51.478127 157.675 51.478127 154.8625ZM52.74375 154.8625Q52.74375 157.33125 53.321877 158.14375Q53.9 158.95625 54.74375 158.95625Q55.603127 158.95625 56.18125 158.14375Q56.759377 157.31563 56.759377 154.8625Q56.759377 152.37813 56.18125 151.56563Q55.603127 150.75313 54.728127 150.75313Q53.884377 150.75313 53.384377 151.47188Q52.74375 152.39375 52.74375 154.8625ZM60.15 159.8L60.15 158.39375L61.540627 158.39375L61.540627 159.8Q61.540627 160.56563 61.259377 161.03438Q60.99375 161.51875 60.4 161.78438L60.05625 161.25313Q60.446877 161.08125 60.634377 160.75313Q60.821877 160.425 60.8375 159.8L60.15 159.8ZM63.478127 154.8625Q63.478127 153.08125 63.8375 152.00313Q64.2125 150.90938 64.93125 150.33125Q65.65 149.7375 66.74375 149.7375Q67.55625 149.7375 68.16563 150.06563Q68.775 150.39375 69.16563 151.00313Q69.57188 151.6125 69.79063 152.4875Q70.00938 153.3625 70.00938 154.8625Q70.00938 156.62813 69.65 157.70625Q69.29063 158.78438 68.57188 159.37813Q67.85313 159.97188 66.74375 159.97188Q65.30625 159.97188 64.47813 158.925Q63.478127 157.675 63.478127 154.8625ZM64.74375 154.8625Q64.74375 157.33125 65.32188 158.14375Q65.9 158.95625 66.74375 158.95625Q67.60313 158.95625 68.18125 158.14375Q68.75938 157.31563 68.75938 154.8625Q68.75938 152.37813 68.18125 151.56563Q67.60313 150.75313 66.72813 150.75313Q65.88438 150.75313 65.38438 151.47188Q64.74375 152.39375 64.74375 154.8625ZM71.47813 157.175L72.775 157.06563Q72.91563 158.00313 73.43125 158.4875Q73.9625 158.95625 74.69688 158.95625Q75.5875 158.95625 76.19688 158.28438Q76.82188 157.6125 76.82188 156.51875Q76.82188 155.45625 76.22813 154.84688Q75.63438 154.2375 74.68125 154.2375Q74.0875 154.2375 73.60313 154.51875Q73.13438 154.78438 72.85313 155.20625L71.69688 155.06563L72.66563 149.90938L77.65 149.90938L77.65 151.09688L73.65 151.09688L73.11875 153.78438Q74.025 153.15938 75.00938 153.15938Q76.32188 153.15938 77.2125 154.06563Q78.11875 154.97188 78.11875 156.40938Q78.11875 157.76875 77.3375 158.75313Q76.36875 159.97188 74.69688 159.97188Q73.3375 159.97188 72.4625 159.20625Q71.60313 158.44063 71.47813 157.175Z" fill-rule="nonzero"/><path fill="#000000" d="M51.478127 110.5625Q51.478127 108.78125 51.8375 107.703125Q52.2125 106.609375 52.93125 106.03125Q53.65 105.4375 54.74375 105.4375Q55.55625 105.4375 56.165627 105.765625Q56.775 106.09375 57.165627 106.703125Q57.571877 107.3125 57.790627 108.1875Q58.009377 109.0625 58.009377 110.5625Q58.009377 112.328125 57.65 113.40625Q57.290627 114.484375 56.571877 115.078125Q55.853127 115.671875 54.74375 115.671875Q53.30625 115.671875 52.478127 114.625Q51.478127 113.375 51.478127 110.5625ZM52.74375 110.5625Q52.74375 113.03125 53.321877 113.84375Q53.9 114.65625 54.74375 114.65625Q55.603127 114.65625 56.18125 113.84375Q56.759377 113.015625 56.759377 110.5625Q56.759377 108.078125 56.18125 107.265625Q55.603127 106.453125 54.728127 106.453125Q53.884377 106.453125 53.384377 107.171875Q52.74375 108.09375 52.74375 110.5625ZM60.15 115.5L60.15 114.09375L61.540627 114.09375L61.540627 115.5Q61.540627 116.265625 61.259377 116.734375Q60.99375 117.21875 60.4 117.484375L60.05625 116.953125Q60.446877 116.78125 60.634377 116.453125Q60.821877 116.125 60.8375 115.5L60.15 115.5ZM68.11875 115.5L66.88438 115.5L66.88438 107.65625Q66.44688 108.078125 65.7125 108.515625Q64.99375 108.9375 64.43125 109.140625L64.43125 107.953125Q65.4625 107.46875 66.22813 106.78125Q67.00938 106.09375 67.32188 105.4375L68.11875 105.4375L68.11875 115.5ZM71.47813 110.5625Q71.47813 108.78125 71.8375 107.703125Q72.2125 106.609375 72.93125 106.03125Q73.65 105.4375 74.74375 105.4375Q75.55625 105.4375 76.16563 105.765625Q76.775 106.09375 77.16563 106.703125Q77.57188 107.3125 77.79063 108.1875Q78.00938 109.0625 78.00938 110.5625Q78.00938 112.328125 77.65 113.40625Q77.29063 114.484375 76.57188 115.078125Q75.85313 115.671875 74.74375 115.671875Q73.30625 115.671875 72.47813 114.625Q71.47813 113.375 71.47813 110.5625ZM72.74375 110.5625Q72.74375 113.03125 73.32188 113.84375Q73.9 114.65625 74.74375 114.65625Q75.60313 114.65625 76.18125 113.84375Q76.75938 113.015625 76.75938 110.5625Q76.75938 108.078125 76.18125 107.265625Q75.60313 106.453125 74.72813 106.453125Q73.88438 106.453125 73.38438 107.171875Q72.74375 108.09375 72.74375 110.5625Z" fill-rule="nonzero"/><path fill="#000000" d="M51.478127 66.2625Q51.478127 64.48125 51.8375 63.403122Q52.2125 62.309372 52.93125 61.731247Q53.65 61.137497 54.74375 61.137497Q55.55625 61.137497 56.165627 61.465622Q56.775 61.793747 57.165627 62.403122Q57.571877 63.012497 57.790627 63.887497Q58.009377 64.7625 58.009377 66.2625Q58.009377 68.02812 57.65 69.10625Q57.290627 70.18437 56.571877 70.77812Q55.853127 71.37187 54.74375 71.37187Q53.30625 71.37187 52.478127 70.325Q51.478127 69.075 51.478127 66.2625ZM52.74375 66.2625Q52.74375 68.73125 53.321877 69.54375Q53.9 70.35625 54.74375 70.35625Q55.603127 70.35625 56.18125 69.54375Q56.759377 68.71562 56.759377 66.2625Q56.759377 63.778122 56.18125 62.965622Q55.603127 62.153122 54.728127 62.153122Q53.884377 62.153122 53.384377 62.871872Q52.74375 63.793747 52.74375 66.2625ZM60.15 71.2L60.15 69.79375L61.540627 69.79375L61.540627 71.2Q61.540627 71.96562 61.259377 72.43437Q60.99375 72.91875 60.4 73.18437L60.05625 72.65312Q60.446877 72.48125 60.634377 72.15312Q60.821877 71.825 60.8375 71.2L60.15 71.2ZM68.11875 71.2L66.88438 71.2L66.88438 63.356247Q66.44688 63.778122 65.7125 64.21562Q64.99375 64.6375 64.43125 64.84062L64.43125 63.653122Q65.4625 63.168747 66.22813 62.481247Q67.00938 61.793747 67.32188 61.137497L68.11875 61.137497L68.11875 71.2ZM71.47813 68.575L72.775 68.46562Q72.91563 69.40312 73.43125 69.8875Q73.9625 70.35625 74.69688 70.35625Q75.5875 70.35625 76.19688 69.68437Q76.82188 69.0125 76.82188 67.91875Q76.82188 66.85625 76.22813 66.24687Q75.63438 65.6375 74.68125 65.6375Q74.0875 65.6375 73.60313 65.91875Q73.13438 66.18437 72.85313 66.60625L71.69688 66.46562L72.66563 61.309372L77.65 61.309372L77.65 62.496872L73.65 62.496872L73.11875 65.18437Q74.025 64.55937 75.00938 64.55937Q76.32188 64.55937 77.2125 65.46562Q78.11875 66.37187 78.11875 67.80937Q78.11875 69.16875 77.3375 70.15312Q76.36875 71.37187 74.69688 71.37187Q73.3375 71.37187 72.4625 70.60625Q71.60313 69.84062 71.47813 68.575Z" fill-rule="nonzero"/><path fill="#000000" d="M51.478127 21.9625Q51.478127 20.18125 51.8375 19.103125Q52.2125 18.009375 52.93125 17.43125Q53.65 16.8375 54.74375 16.8375Q55.55625 16.8375 56.165627 17.165625Q56.775 17.49375 57.165627 18.103125Q57.571877 18.7125 57.790627 19.5875Q58.009377 20.4625 58.009377 21.9625Q58.009377 23.728125 57.65 24.80625Q57.290627 25.884375 56.571877 26.478125Q55.853127 27.071875 54.74375 27.071875Q53.30625 27.071875 52.478127 26.025Q51.478127 24.775 51.478127 21.9625ZM52.74375 21.9625Q52.74375 24.43125 53.321877 25.24375Q53.9 26.05625 54.74375 26.05625Q55.603127 26.05625 56.18125 25.24375Q56.759377 24.415625 56.759377 21.9625Q56.759377 19.478125 56.18125 18.665625Q55.603127 17.853125 54.728127 17.853125Q53.884377 17.853125 53.384377 18.571875Q52.74375 19.49375 52.74375 21.9625ZM60.15 26.9L60.15 25.49375L61.540627 25.49375L61.540627 26.9Q61.540627 27.665625 61.259377 28.134375Q60.99375 28.61875 60.4 28.884375L60.05625 28.353125Q60.446877 28.18125 60.634377 27.853125Q60.821877 27.525 60.8375 26.9L60.15 26.9ZM69.94688 25.7125L69.94688 26.9L63.321877 26.9Q63.30625 26.4625 63.4625 26.040625Q63.728127 25.36875 64.275 24.7125Q64.8375 24.05625 65.88438 23.196875Q67.525 21.853125 68.0875 21.071875Q68.66563 20.290625 68.66563 19.5875Q68.66563 18.853125 68.13438 18.353125Q67.61875 17.853125 66.79063 17.853125Q65.9 17.853125 65.35313 18.384375Q64.82188 18.915625 64.82188 19.86875L63.55625 19.728125Q63.68125 18.321875 64.525 17.5875Q65.38438 16.8375 66.80625 16.8375Q68.25938 16.8375 69.0875 17.634375Q69.93125 18.43125 69.93125 19.61875Q69.93125 20.228125 69.68125 20.80625Q69.44688 21.384375 68.86875 22.025Q68.30625 22.665625 66.97813 23.790625Q65.86875 24.7125 65.55625 25.05625Q65.24375 25.384375 65.04063 25.7125L69.94688 25.7125ZM71.47813 21.9625Q71.47813 20.18125 71.8375 19.103125Q72.2125 18.009375 72.93125 17.43125Q73.65 16.8375 74.74375 16.8375Q75.55625 16.8375 76.16563 17.165625Q76.775 17.49375 77.16563 18.103125Q77.57188 18.7125 77.79063 19.5875Q78.00938 20.4625 78.00938 21.9625Q78.00938 23.728125 77.65 24.80625Q77.29063 25.884375 76.57188 26.478125Q75.85313 27.071875 74.74375 27.071875Q73.30625 27.071875 72.47813 26.025Q71.47813 24.775 71.47813 21.9625ZM72.74375 21.9625Q72.74375 24.43125 73.32188 25.24375Q73.9 26.05625 74.74375 26.05625Q75.60313 26.05625 76.18125 25.24375Q76.75938 24.415625 76.75938 21.9625Q76.75938 19.478125 76.18125 18.665625Q75.60313 17.853125 74.72813 17.853125Q73.88438 17.853125 73.38438 18.571875Q72.74375 19.49375 72.74375 21.9625Z" fill-rule="nonzero"/><path fill="#000000" d="M99.79887 226.6625L98.56449 226.6625L98.56449 222.88126L99.79887 222.88126L99.79887 226.6625ZM102.81449 216.88124L102.81449 218.11562L94.97074 218.11562Q95.39262 218.55312 95.83012 219.28749Q96.25199 220.00624 96.45512 220.56874L95.26762 220.56874Q94.78324 219.53749 94.09574 218.77187Q93.40824 217.99062 92.75199 217.67812L92.75199 216.88124L102.81449 216.88124ZM100.50199 213.33437L100.39262 212.14687Q101.22074 212.00624 101.59574 211.58437Q101.97074 211.14687 101.97074 210.49062Q101.97074 209.92812 101.72074 209.50624Q101.45512 209.06874 101.01762 208.80312Q100.58012 208.52187 99.84574 208.33437Q99.11137 208.14687 98.34574 208.14687Q98.26762 208.14687 98.09574 208.16249Q98.68949 208.52187 99.06449 209.16249Q99.42387 209.80312 99.42387 210.55312Q99.42387 211.80312 98.51762 212.66249Q97.61137 213.52187 96.14262 213.52187Q94.61137 213.52187 93.68949 212.63124Q92.75199 211.72499 92.75199 210.36562Q92.75199 209.39687 93.28324 208.58437Q93.79887 207.77187 94.78324 207.34999Q95.75199 206.92812 97.59574 206.92812Q99.51762 206.92812 100.65824 207.34999Q101.79887 207.75624 102.39262 208.58437Q102.98637 209.41249 102.98637 210.52187Q102.98637 211.69374 102.33012 212.44374Q101.67387 213.17812 100.50199 213.33437ZM96.08012 208.30312Q95.01762 208.30312 94.39262 208.86562Q93.76762 209.42812 93.76762 210.20937Q93.76762 211.03749 94.43949 211.64687Q95.11137 212.25624 96.17387 212.25624Q97.12699 212.25624 97.73637 211.67812Q98.33012 211.09999 98.33012 210.25624Q98.33012 209.39687 97.73637 208.84999Q97.12699 208.30312 96.08012 208.30312Z" fill-rule="nonzero"/><path fill="#000000" d="M117.449974 226.6625L116.2156 226.6625L116.2156 222.88126L117.449974 222.88126L117.449974 226.6625ZM120.4656 216.88126L120.4656 218.11563L112.62185 218.11563Q113.043724 218.55313 113.481224 219.2875Q113.9031 220.00626 114.106224 220.56876L112.918724 220.56876Q112.43435 219.5375 111.74685 218.77188Q111.05935 217.99063 110.4031 217.67813L110.4031 216.88126L120.4656 216.88126ZM111.762474 213.44376L110.574974 213.44376L110.574974 206.94376L111.5281 206.94376Q112.543724 207.9125 114.231224 208.85Q115.918724 209.7875 117.7156 210.30313Q118.9656 210.6625 120.4656 210.77188L120.4656 212.0375Q119.2781 212.02188 117.606224 211.58438Q115.93435 211.13126 114.387474 210.30313Q112.824974 209.45938 111.762474 208.52188L111.762474 213.44376Z" fill-rule="nonzero"/><path fill="#000000" d="M135.10107 226.6625L133.8667 226.6625L133.8667 222.88126L135.10107 222.88126L135.10107 226.6625ZM138.1167 216.88126L138.1167 218.11563L130.27295 218.11563Q130.69482 218.55313 131.13232 219.2875Q131.5542 220.00626 131.75732 220.56876L130.56982 220.56876Q130.08545 219.5375 129.39795 218.77188Q128.71045 217.99063 128.0542 217.67813L128.0542 216.88126L138.1167 216.88126ZM135.4917 213.52188L135.38232 212.225Q136.31982 212.08438 136.8042 211.56876Q137.27295 211.0375 137.27295 210.30313Q137.27295 209.4125 136.60107 208.80313Q135.9292 208.17813 134.83545 208.17813Q133.77295 208.17813 133.16357 208.77188Q132.5542 209.36563 132.5542 210.31876Q132.5542 210.9125 132.83545 211.39688Q133.10107 211.86563 133.52295 212.14688L133.38232 213.30313L128.22607 212.33438L128.22607 207.35L129.41357 207.35L129.41357 211.35L132.10107 211.88126Q131.47607 210.975 131.47607 209.99063Q131.47607 208.67813 132.38232 207.7875Q133.28857 206.88126 134.72607 206.88126Q136.08545 206.88126 137.06982 207.6625Q138.28857 208.63126 138.28857 210.30313Q138.28857 211.6625 137.52295 212.5375Q136.75732 213.39688 135.4917 213.52188Z" fill-rule="nonzero"/><path fill="#000000" d="M152.75218 226.6625L151.5178 226.6625L151.5178 222.88126L152.75218 222.88126L152.75218 226.6625ZM155.7678 216.88126L155.7678 218.11563L147.92406 218.11563Q148.34593 218.55313 148.78343 219.2875Q149.2053 220.00626 149.40843 220.56876L148.22093 220.56876Q147.73656 219.5375 147.04906 218.77188Q146.36156 217.99063 145.7053 217.67813L145.7053 216.88126L155.7678 216.88126ZM153.12718 213.50626L152.9553 212.2875Q154.00218 212.06876 154.47093 211.56876Q154.92406 211.05313 154.92406 210.31876Q154.92406 209.44376 154.3303 208.85Q153.72093 208.25626 152.8303 208.25626Q151.98656 208.25626 151.43968 208.81876Q150.8928 209.36563 150.8928 210.20938Q150.8928 210.56876 151.0178 211.08438L149.93968 210.94376Q149.9553 210.81876 149.9553 210.75626Q149.9553 209.95938 149.54906 209.33438Q149.1428 208.70938 148.28343 208.70938Q147.61156 208.70938 147.17406 209.1625Q146.72093 209.61563 146.72093 210.35Q146.72093 211.06876 147.17406 211.55313Q147.61156 212.02188 148.5178 212.1625L148.29906 213.38126Q147.06468 213.1625 146.3928 212.36563Q145.7053 211.56876 145.7053 210.38126Q145.7053 209.55313 146.06468 208.86563Q146.40843 208.17813 147.0178 207.81876Q147.62718 207.44376 148.31468 207.44376Q148.9553 207.44376 149.48656 207.7875Q150.0178 208.13126 150.34593 208.81876Q150.54906 207.92813 151.18968 207.44376Q151.8303 206.94376 152.81468 206.94376Q154.12718 206.94376 155.03343 207.9125Q155.93968 208.86563 155.93968 210.31876Q155.93968 211.64688 155.15843 212.52188Q154.37718 213.38126 153.12718 213.50626Z" fill-rule="nonzero"/><path fill="#000000" d="M170.40329 226.6625L169.16891 226.6625L169.16891 222.88126L170.40329 222.88126L170.40329 226.6625ZM173.41891 216.88126L173.41891 218.11563L165.57516 218.11563Q165.99704 218.55313 166.43454 219.2875Q166.85641 220.00626 167.05954 220.56876L165.87204 220.56876Q165.38766 219.5375 164.70016 218.77188Q164.01266 217.99063 163.35641 217.67813L163.35641 216.88126L173.41891 216.88126ZM173.41891 208.88126L173.41891 210.11563L165.57516 210.11563Q165.99704 210.55313 166.43454 211.2875Q166.85641 212.00626 167.05954 212.56876L165.87204 212.56876Q165.38766 211.5375 164.70016 210.77188Q164.01266 209.99063 163.35641 209.67813L163.35641 208.88126L173.41891 208.88126Z" fill-rule="nonzero"/><path fill="#000000" d="M188.0544 218.6625L186.82002 218.6625L186.82002 214.88126L188.0544 214.88126L188.0544 218.6625ZM188.75752 213.33438L188.64815 212.14688Q189.47627 212.00626 189.85127 211.58438Q190.22627 211.14688 190.22627 210.49063Q190.22627 209.92813 189.97627 209.50626Q189.71065 209.06876 189.27315 208.80313Q188.83565 208.52188 188.10127 208.33438Q187.3669 208.14688 186.60127 208.14688Q186.52315 208.14688 186.35127 208.1625Q186.94502 208.52188 187.32002 209.1625Q187.6794 209.80313 187.6794 210.55313Q187.6794 211.80313 186.77315 212.6625Q185.8669 213.52188 184.39815 213.52188Q182.8669 213.52188 181.94502 212.63126Q181.00752 211.725 181.00752 210.36563Q181.00752 209.39688 181.53877 208.58438Q182.0544 207.77188 183.03877 207.35Q184.00752 206.92813 185.85127 206.92813Q187.77315 206.92813 188.91377 207.35Q190.0544 207.75626 190.64815 208.58438Q191.2419 209.4125 191.2419 210.52188Q191.2419 211.69376 190.58565 212.44376Q189.9294 213.17813 188.75752 213.33438ZM184.33565 208.30313Q183.27315 208.30313 182.64815 208.86563Q182.02315 209.42813 182.02315 210.20938Q182.02315 211.0375 182.69502 211.64688Q183.3669 212.25626 184.4294 212.25626Q185.38252 212.25626 185.9919 211.67813Q186.58565 211.1 186.58565 210.25626Q186.58565 209.39688 185.9919 208.85Q185.38252 208.30313 184.33565 208.30313Z" fill-rule="nonzero"/><path fill="#000000" d="M205.7055 218.66249L204.47113 218.66249L204.47113 214.88124L205.7055 214.88124L205.7055 218.66249ZM200.018 213.44374L198.8305 213.44374L198.8305 206.94374L199.78363 206.94374Q200.79926 207.91249 202.48676 208.84999Q204.17426 209.78749 205.97113 210.30312Q207.22113 210.66249 208.72113 210.77187L208.72113 212.03749Q207.53363 212.02187 205.86176 211.58437Q204.18988 211.13124 202.643 210.30312Q201.0805 209.45937 200.018 208.52187L200.018 213.44374Z" fill-rule="nonzero"/><path fill="#000000" d="M223.3566 218.66249L222.12222 218.66249L222.12222 214.88124L223.3566 214.88124L223.3566 218.66249ZM223.74722 213.52187L223.63785 212.22499Q224.57535 212.08437 225.05972 211.56874Q225.52847 211.03749 225.52847 210.30312Q225.52847 209.41249 224.8566 208.80312Q224.18472 208.17812 223.09097 208.17812Q222.02847 208.17812 221.4191 208.77187Q220.80972 209.36562 220.80972 210.31874Q220.80972 210.91249 221.09097 211.39687Q221.3566 211.86562 221.77847 212.14687L221.63785 213.30312L216.4816 212.33437L216.4816 207.34999L217.6691 207.34999L217.6691 211.34999L220.3566 211.88124Q219.7316 210.97499 219.7316 209.99062Q219.7316 208.67812 220.63785 207.78749Q221.5441 206.88124 222.9816 206.88124Q224.34097 206.88124 225.32535 207.66249Q226.5441 208.63124 226.5441 210.30312Q226.5441 211.66249 225.77847 212.53749Q225.01285 213.39687 223.74722 213.52187Z" fill-rule="nonzero"/><path fill="#000000" d="M241.0077 218.6625L239.77333 218.6625L239.77333 214.88126L241.0077 214.88126L241.0077 218.6625ZM241.3827 213.50626L241.21083 212.2875Q242.2577 212.06876 242.72646 211.56876Q243.17958 211.05313 243.17958 210.31876Q243.17958 209.44376 242.58583 208.85Q241.97646 208.25626 241.08583 208.25626Q240.24208 208.25626 239.6952 208.81876Q239.14833 209.36563 239.14833 210.20938Q239.14833 210.56876 239.27333 211.08438L238.1952 210.94376Q238.21083 210.81876 238.21083 210.75626Q238.21083 209.95938 237.80458 209.33438Q237.39833 208.70938 236.53896 208.70938Q235.86708 208.70938 235.42958 209.1625Q234.97646 209.61563 234.97646 210.35Q234.97646 211.06876 235.42958 211.55313Q235.86708 212.02188 236.77333 212.1625L236.55458 213.38126Q235.3202 213.1625 234.64833 212.36563Q233.96083 211.56876 233.96083 210.38126Q233.96083 209.55313 234.3202 208.86563Q234.66396 208.17813 235.27333 207.81876Q235.8827 207.44376 236.5702 207.44376Q237.21083 207.44376 237.74208 207.7875Q238.27333 208.13126 238.60146 208.81876Q238.80458 207.92813 239.4452 207.44376Q240.08583 206.94376 241.0702 206.94376Q242.3827 206.94376 243.28896 207.9125Q244.1952 208.86563 244.1952 210.31876Q244.1952 211.64688 243.41396 212.52188Q242.6327 213.38126 241.3827 213.50626Z" fill-rule="nonzero"/><path fill="#000000" d="M258.6588 218.66249L257.42444 218.66249L257.42444 214.88124L258.6588 214.88124L258.6588 218.66249ZM261.67444 208.88124L261.67444 210.11562L253.83069 210.11562Q254.25256 210.55312 254.69006 211.28749Q255.11194 212.00624 255.31506 212.56874L254.12756 212.56874Q253.64319 211.53749 252.95569 210.77187Q252.26819 209.99062 251.61194 209.67812L251.61194 208.88124L261.67444 208.88124Z" fill-rule="nonzero"/><path fill="#000000" d="M279.32556 208.88126L279.32556 210.11563L271.4818 210.11563Q271.9037 210.55313 272.3412 211.2875Q272.76306 212.00626 272.9662 212.56876L271.7787 212.56876Q271.2943 211.5375 270.6068 210.77188Q269.9193 209.99063 269.26306 209.67813L269.26306 208.88126L279.32556 208.88126Z" fill-rule="nonzero"/><path fill="#000000" d="M294.33603 213.50624L294.16415 212.28749Q295.21103 212.06874 295.67978 211.56874Q296.1329 211.05312 296.1329 210.31874Q296.1329 209.44374 295.53915 208.84999Q294.92978 208.25624 294.03915 208.25624Q293.1954 208.25624 292.64853 208.81874Q292.10165 209.36562 292.10165 210.20937Q292.10165 210.56874 292.22665 211.08437L291.14853 210.94374Q291.16415 210.81874 291.16415 210.75624Q291.16415 209.95937 290.7579 209.33437Q290.35165 208.70937 289.49228 208.70937Q288.8204 208.70937 288.3829 209.16249Q287.92978 209.61562 287.92978 210.34999Q287.92978 211.06874 288.3829 211.55312Q288.8204 212.02187 289.72665 212.16249L289.5079 213.38124Q288.27353 213.16249 287.60165 212.36562Q286.91415 211.56874 286.91415 210.38124Q286.91415 209.55312 287.27353 208.86562Q287.61728 208.17812 288.22665 207.81874Q288.83603 207.44374 289.52353 207.44374Q290.16415 207.44374 290.6954 207.78749Q291.22665 208.13124 291.55478 208.81874Q291.7579 207.92812 292.39853 207.44374Q293.03915 206.94374 294.02353 206.94374Q295.33603 206.94374 296.24228 207.91249Q297.14853 208.86562 297.14853 210.31874Q297.14853 211.64687 296.36728 212.52187Q295.58603 213.38124 294.33603 213.50624Z" fill-rule="nonzero"/><path fill="#000000" d="M312.00275 213.52188L311.89337 212.225Q312.83087 212.08438 313.31525 211.56876Q313.784 211.0375 313.784 210.30313Q313.784 209.4125 313.11212 208.80313Q312.44025 208.17813 311.3465 208.17813Q310.284 208.17813 309.67462 208.77188Q309.06525 209.36563 309.06525 210.31876Q309.06525 210.9125 309.3465 211.39688Q309.61212 211.86563 310.034 212.14688L309.89337 213.30313L304.73712 212.33438L304.73712 207.35L305.92462 207.35L305.92462 211.35L308.61212 211.88126Q307.98712 210.975 307.98712 209.99063Q307.98712 208.67813 308.89337 207.7875Q309.79962 206.88126 311.23712 206.88126Q312.5965 206.88126 313.58087 207.6625Q314.79962 208.63126 314.79962 210.30313Q314.79962 211.6625 314.034 212.5375Q313.26837 213.39688 312.00275 213.52188Z" fill-rule="nonzero"/><path fill="#000000" d="M323.57574 213.44376L322.38824 213.44376L322.38824 206.94376L323.34137 206.94376Q324.357 207.9125 326.0445 208.85Q327.732 209.7875 329.52887 210.30313Q330.77887 210.6625 332.27887 210.77188L332.27887 212.0375Q331.09137 212.02188 329.4195 211.58438Q327.74762 211.13126 326.20074 210.30313Q324.63824 209.45938 323.57574 208.52188L323.57574 213.44376Z" fill-rule="nonzero"/><path fill="#000000" d="M347.61746 213.33437L347.5081 212.14687Q348.3362 212.00624 348.7112 211.58437Q349.0862 211.14687 349.0862 210.49062Q349.0862 209.92812 348.8362 209.50624Q348.5706 209.06874 348.1331 208.80312Q347.6956 208.52187 346.9612 208.33437Q346.22684 208.14687 345.4612 208.14687Q345.3831 208.14687 345.2112 208.16249Q345.80496 208.52187 346.17996 209.16249Q346.53934 209.80312 346.53934 210.55312Q346.53934 211.80312 345.6331 212.66249Q344.72684 213.52187 343.2581 213.52187Q341.72684 213.52187 340.80496 212.63124Q339.86746 211.72499 339.86746 210.36562Q339.86746 209.39687 340.3987 208.58437Q340.91434 207.77187 341.8987 207.34999Q342.86746 206.92812 344.7112 206.92812Q346.6331 206.92812 347.7737 207.34999Q348.91434 207.75624 349.5081 208.58437Q350.10184 209.41249 350.10184 210.52187Q350.10184 211.69374 349.4456 212.44374Q348.78934 213.17812 347.61746 213.33437ZM343.1956 208.30312Q342.1331 208.30312 341.5081 208.86562Q340.8831 209.42812 340.8831 210.20937Q340.8831 211.03749 341.55496 211.64687Q342.22684 212.25624 343.28934 212.25624Q344.24246 212.25624 344.85184 211.67812Q345.4456 211.09999 345.4456 210.25624Q345.4456 209.39687 344.85184 208.84999Q344.24246 208.30312 343.1956 208.30312Z" fill-rule="nonzero"/><path fill="#000000" d="M367.5811 216.88126L367.5811 218.11563L359.73734 218.11563Q360.1592 218.55313 360.5967 219.2875Q361.0186 220.00626 361.2217 220.56876L360.0342 220.56876Q359.54984 219.5375 358.86234 218.77188Q358.17484 217.99063 357.5186 217.67813L357.5186 216.88126L367.5811 216.88126ZM367.5811 208.88126L367.5811 210.11563L359.73734 210.11563Q360.1592 210.55313 360.5967 211.2875Q361.0186 212.00626 361.2217 212.56876L360.0342 212.56876Q359.54984 211.5375 358.86234 210.77188Q358.17484 209.99063 357.5186 209.67813L357.5186 208.88126L367.5811 208.88126Z" fill-rule="nonzero"/><path fill="#000000" d="M385.23218 216.88124L385.23218 218.11562L377.38843 218.11562Q377.8103 218.55312 378.2478 219.28749Q378.66968 220.00624 378.8728 220.56874L377.6853 220.56874Q377.20093 219.53749 376.51343 218.77187Q375.82593 217.99062 375.16968 217.67812L375.16968 216.88124L385.23218 216.88124ZM382.59155 213.50624L382.41968 212.28749Q383.46655 212.06874 383.9353 211.56874Q384.38843 211.05312 384.38843 210.31874Q384.38843 209.44374 383.79468 208.84999Q383.1853 208.25624 382.29468 208.25624Q381.45093 208.25624 380.90405 208.81874Q380.35718 209.36562 380.35718 210.20937Q380.35718 210.56874 380.48218 211.08437L379.40405 210.94374Q379.41968 210.81874 379.41968 210.75624Q379.41968 209.95937 379.01343 209.33437Q378.60718 208.70937 377.7478 208.70937Q377.07593 208.70937 376.63843 209.16249Q376.1853 209.61562 376.1853 210.34999Q376.1853 211.06874 376.63843 211.55312Q377.07593 212.02187 377.98218 212.16249L377.76343 213.38124Q376.52905 213.16249 375.85718 212.36562Q375.16968 211.56874 375.16968 210.38124Q375.16968 209.55312 375.52905 208.86562Q375.8728 208.17812 376.48218 207.81874Q377.09155 207.44374 377.77905 207.44374Q378.41968 207.44374 378.95093 207.78749Q379.48218 208.13124 379.8103 208.81874Q380.01343 207.92812 380.65405 207.44374Q381.29468 206.94374 382.27905 206.94374Q383.59155 206.94374 384.4978 207.91249Q385.40405 208.86562 385.40405 210.31874Q385.40405 211.64687 384.6228 212.52187Q383.84155 213.38124 382.59155 213.50624Z" fill-rule="nonzero"/><path fill="#000000" d="M402.8833 216.88126L402.8833 218.11563L395.03955 218.11563Q395.46143 218.55313 395.89893 219.2875Q396.3208 220.00626 396.52393 220.56876L395.33643 220.56876Q394.85205 219.5375 394.16455 218.77188Q393.47705 217.99063 392.8208 217.67813L392.8208 216.88126L402.8833 216.88126ZM400.2583 213.52188L400.14893 212.225Q401.08643 212.08438 401.5708 211.56876Q402.03955 211.0375 402.03955 210.30313Q402.03955 209.4125 401.36768 208.80313Q400.6958 208.17813 399.60205 208.17813Q398.53955 208.17813 397.93018 208.77188Q397.3208 209.36563 397.3208 210.31876Q397.3208 210.9125 397.60205 211.39688Q397.86768 211.86563 398.28955 212.14688L398.14893 213.30313L392.99268 212.33438L392.99268 207.35L394.18018 207.35L394.18018 211.35L396.86768 211.88126Q396.24268 210.975 396.24268 209.99063Q396.24268 208.67813 397.14893 207.7875Q398.05518 206.88126 399.49268 206.88126Q400.85205 206.88126 401.83643 207.6625Q403.05518 208.63126 403.05518 210.30313Q403.05518 211.6625 402.28955 212.5375Q401.52393 213.39688 400.2583 213.52188Z" fill-rule="nonzero"/><path fill="#000000" d="M420.5344 216.88124L420.5344 218.11562L412.69064 218.11562Q413.11252 218.55312 413.55002 219.28749Q413.9719 220.00624 414.17502 220.56874L412.98752 220.56874Q412.50314 219.53749 411.81564 218.77187Q411.12814 217.99062 410.4719 217.67812L410.4719 216.88124L420.5344 216.88124ZM411.83127 213.44374L410.64377 213.44374L410.64377 206.94374L411.5969 206.94374Q412.61252 207.91249 414.30002 208.84999Q415.98752 209.78749 417.7844 210.30312Q419.0344 210.66249 420.5344 210.77187L420.5344 212.03749Q419.3469 212.02187 417.67502 211.58437Q416.00314 211.13124 414.45627 210.30312Q412.89377 209.45937 411.83127 208.52187L411.83127 213.44374Z" fill-rule="nonzero"/><path fill="#000000" d="M438.1855 216.88126L438.1855 218.11563L430.34174 218.11563Q430.7636 218.55313 431.2011 219.2875Q431.623 220.00626 431.8261 220.56876L430.6386 220.56876Q430.15424 219.5375 429.46674 218.77188Q428.77924 217.99063 428.123 217.67813L428.123 216.88126L438.1855 216.88126ZM435.873 213.33438L435.7636 212.14688Q436.59174 212.00626 436.96674 211.58438Q437.34174 211.14688 437.34174 210.49063Q437.34174 209.92813 437.09174 209.50626Q436.8261 209.06876 436.3886 208.80313Q435.9511 208.52188 435.21674 208.33438Q434.48236 208.14688 433.71674 208.14688Q433.6386 208.14688 433.46674 208.1625Q434.0605 208.52188 434.4355 209.1625Q434.79486 209.80313 434.79486 210.55313Q434.79486 211.80313 433.8886 212.6625Q432.98236 213.52188 431.5136 213.52188Q429.98236 213.52188 429.0605 212.63126Q428.123 211.725 428.123 210.36563Q428.123 209.39688 428.65424 208.58438Q429.16986 207.77188 430.15424 207.35Q431.123 206.92813 432.96674 206.92813Q434.8886 206.92813 436.02924 207.35Q437.16986 207.75626 437.7636 208.58438Q438.35736 209.4125 438.35736 210.52188Q438.35736 211.69376 437.7011 212.44376Q437.04486 213.17813 435.873 213.33438ZM431.4511 208.30313Q430.3886 208.30313 429.7636 208.86563Q429.1386 209.42813 429.1386 210.20938Q429.1386 211.0375 429.8105 211.64688Q430.48236 212.25626 431.54486 212.25626Q432.498 212.25626 433.10736 211.67813Q433.7011 211.1 433.7011 210.25626Q433.7011 209.39688 433.10736 208.85Q432.498 208.30313 431.4511 208.30313Z" fill-rule="nonzero"/></svg>