<svg version="1.1" viewBox="0.0 0.0 452.0 278.0" fill="none" stroke="none" stroke-linecap="square" stroke-miterlimit="10" width="452" height="278" xmlns:xlink="http://www.w3.org/1999/xlink" xmlns="http://www.w3.org/2000/svg"><path fill="#ffffff" d="M0 0L452.0 0L452.0 278.0L0 278.0L0 0Z" fill-rule="nonzero"/><path stroke="#333333" stroke-width="1.0" stroke-linecap="butt" d="M85.5 204.5L438.5 204.5" fill-rule="nonzero"/><path stroke="#efefef" stroke-width="1.0" stroke-linecap="butt" d="M85.5 167.5L438.5 167.5" fill-rule="nonzero"/><path stroke="#efefef" stroke-width="1.0" stroke-linecap="butt" d="M85.5 131.5L438.5 131.5" fill-rule="nonzero"/><path stroke="#efefef" stroke-width="1.0" stroke-linecap="butt" d="M85.5 94.5L438.5 94.5" fill-rule="nonzero"/><path stroke="#efefef" stroke-width="1.0" stroke-linecap="butt" d="M85.5 58.5L438.5 58.5" fill-rule="nonzero"/><path stroke="#efefef" stroke-width="1.0" stroke-linecap="butt" d="M85.5 21.5L438.5 21.5" fill-rule="nonzero"/><clipPath id="id_0"><path d="M85.9 21.9L438.1 21.9L438.1 204.1L85.9 204.1L85.9 21.9Z" clip-rule="nonzero"/></clipPath><path stroke="#001128" stroke-width="1.0" stroke-linecap="butt" stroke-opacity="0.14901961" clip-path="url(#id_0)" d="M117.0 204.0L97.0 204.0L97.0 203.5C97.0 203.22386 97.223854 203.0 97.5 203.0L116.5 203.0C116.776146 203.0 117.0 203.22386 117.0 203.5Z" fill-rule="nonzero"/><path fill="#001128" fill-opacity="0.101960786" clip-path="url(#id_0)" d="M117.0 204.0L97.0 204.0L97.0 203.5C97.0 203.22386 97.223854 203.0 97.5 203.0L116.5 203.0C116.776146 203.0 117.0 203.22386 117.0 203.5Z" fill-rule="nonzero"/><path stroke="#001128" stroke-width="1.0" stroke-linecap="butt" stroke-opacity="0.14901961" clip-path="url(#id_0)" d="M148.0 204.0L128.0 204.0L128.0 199.0C128.0 197.89543 128.89543 197.0 130.0 197.0L146.0 197.0C147.10457 197.0 148.0 197.89543 148.0 199.0Z" fill-rule="nonzero"/><path fill="#001128" fill-opacity="0.101960786" clip-path="url(#id_0)" d="M148.0 204.0L128.0 204.0L128.0 199.0C128.0 197.89543 128.89543 197.0 130.0 197.0L146.0 197.0C147.10457 197.0 148.0 197.89543 148.0 199.0Z" fill-rule="nonzero"/><path stroke="#001128" stroke-width="1.0" stroke-linecap="butt" stroke-opacity="0.14901961" clip-path="url(#id_0)" d="M179.0 204.0L159.0 204.0L159.0 174.0C159.0 172.89543 159.89543 172.0 161.0 172.0L177.0 172.0C178.10457 172.0 179.0 172.89543 179.0 174.0Z" fill-rule="nonzero"/><path fill="#001128" fill-opacity="0.101960786" clip-path="url(#id_0)" d="M179.0 204.0L159.0 204.0L159.0 174.0C159.0 172.89543 159.89543 172.0 161.0 172.0L177.0 172.0C178.10457 172.0 179.0 172.89543 179.0 174.0Z" fill-rule="nonzero"/><path stroke="#001128" stroke-width="1.0" stroke-linecap="butt" stroke-opacity="0.14901961" clip-path="url(#id_0)" d="M210.0 204.0L190.0 204.0L190.0 121.0C190.0 119.89543 190.89543 119.0 192.0 119.0L208.0 119.0C209.10457 119.0 210.0 119.89543 210.0 121.0Z" fill-rule="nonzero"/><path fill="#001128" fill-opacity="0.101960786" clip-path="url(#id_0)" d="M210.0 204.0L190.0 204.0L190.0 121.0C190.0 119.89543 190.89543 119.0 192.0 119.0L208.0 119.0C209.10457 119.0 210.0 119.89543 210.0 121.0Z" fill-rule="nonzero"/><path stroke="#001128" stroke-width="1.0" stroke-linecap="butt" stroke-opacity="0.14901961" clip-path="url(#id_0)" d="M241.0 204.0L221.0 204.0L221.0 57.0C221.0 55.89543 221.89543 55.0 223.0 55.0L239.0 55.0C240.10457 55.0 241.0 55.89543 241.0 57.0Z" fill-rule="nonzero"/><path fill="#001128" fill-opacity="0.101960786" clip-path="url(#id_0)" d="M241.0 204.0L221.0 204.0L221.0 57.0C221.0 55.89543 221.89543 55.0 223.0 55.0L239.0 55.0C240.10457 55.0 241.0 55.89543 241.0 57.0Z" fill-rule="nonzero"/><path stroke="#001128" stroke-width="1.0" stroke-linecap="butt" stroke-opacity="0.14901961" clip-path="url(#id_0)" d="M272.0 204.0L252.0 204.0L252.0 27.0C252.0 25.89543 252.89543 25.0 254.0 25.0L270.0 25.0C271.10458 25.0 272.0 25.89543 272.0 27.0Z" fill-rule="nonzero"/><path fill="#001128" fill-opacity="0.101960786" clip-path="url(#id_0)" d="M272.0 204.0L252.0 204.0L252.0 27.0C252.0 25.89543 252.89543 25.0 254.0 25.0L270.0 25.0C271.10458 25.0 272.0 25.89543 272.0 27.0Z" fill-rule="nonzero"/><path stroke="#001128" stroke-width="1.0" stroke-linecap="butt" stroke-opacity="0.14901961" clip-path="url(#id_0)" d="M303.0 204.0L283.0 204.0L283.0 57.0C283.0 55.89543 283.89542 55.0 285.0 55.0L301.0 55.0C302.10458 55.0 303.0 55.89543 303.0 57.0Z" fill-rule="nonzero"/><path fill="#001128" fill-opacity="0.101960786" clip-path="url(#id_0)" d="M303.0 204.0L283.0 204.0L283.0 57.0C283.0 55.89543 283.89542 55.0 285.0 55.0L301.0 55.0C302.10458 55.0 303.0 55.89543 303.0 57.0Z" fill-rule="nonzero"/><path stroke="#001128" stroke-width="1.0" stroke-linecap="butt" stroke-opacity="0.14901961" clip-path="url(#id_0)" d="M334.0 204.0L314.0 204.0L314.0 121.0C314.0 119.89543 314.89542 119.0 316.0 119.0L332.0 119.0C333.10458 119.0 334.0 119.89543 334.0 121.0Z" fill-rule="nonzero"/><path fill="#001128" fill-opacity="0.101960786" clip-path="url(#id_0)" d="M334.0 204.0L314.0 204.0L314.0 121.0C314.0 119.89543 314.89542 119.0 316.0 119.0L332.0 119.0C333.10458 119.0 334.0 119.89543 334.0 121.0Z" fill-rule="nonzero"/><path stroke="#001128" stroke-width="1.0" stroke-linecap="butt" stroke-opacity="0.14901961" clip-path="url(#id_0)" d="M365.0 204.0L345.0 204.0L345.0 174.0C345.0 172.89543 345.89542 172.0 347.0 172.0L363.0 172.0C364.10458 172.0 365.0 172.89543 365.0 174.0Z" fill-rule="nonzero"/><path fill="#001128" fill-opacity="0.101960786" clip-path="url(#id_0)" d="M365.0 204.0L345.0 204.0L345.0 174.0C345.0 172.89543 345.89542 172.0 347.0 172.0L363.0 172.0C364.10458 172.0 365.0 172.89543 365.0 174.0Z" fill-rule="nonzero"/><path stroke="#001128" stroke-width="1.0" stroke-linecap="butt" stroke-opacity="0.14901961" clip-path="url(#id_0)" d="M396.0 204.0L376.0 204.0L376.0 199.0C376.0 197.89543 376.89542 197.0 378.0 197.0L394.0 197.0C395.10458 197.0 396.0 197.89543 396.0 199.0Z" fill-rule="nonzero"/><path fill="#001128" fill-opacity="0.101960786" clip-path="url(#id_0)" d="M396.0 204.0L376.0 204.0L376.0 199.0C376.0 197.89543 376.89542 197.0 378.0 197.0L394.0 197.0C395.10458 197.0 396.0 197.89543 396.0 199.0Z" fill-rule="nonzero"/><path stroke="#001128" stroke-width="1.0" stroke-linecap="butt" stroke-opacity="0.14901961" clip-path="url(#id_0)" d="M427.0 204.0L407.0 204.0L407.0 203.5C407.0 203.22386 407.22385 203.0 407.5 203.0L426.5 203.0C426.77615 203.0 427.0 203.22386 427.0 203.5Z" fill-rule="nonzero"/><path fill="#001128" fill-opacity="0.101960786" clip-path="url(#id_0)" d="M427.0 204.0L407.0 204.0L407.0 203.5C407.0 203.22386 407.22385 203.0 407.5 203.0L426.5 203.0C426.77615 203.0 427.0 203.22386 427.0 203.5Z" fill-rule="nonzero"/><path fill="#000000" d="M220.57812 261.1L220.57812 251.08438L224.35938 251.08438Q225.35938 251.08438 225.89062 251.17813Q226.625 251.30313 227.125 251.64688Q227.625 251.99063 227.92188 252.61563Q228.23438 253.225 228.23438 253.975Q228.23438 255.25626 227.42188 256.14688Q226.60938 257.02188 224.48438 257.02188L221.90625 257.02188L221.90625 261.1L220.57812 261.1ZM221.90625 255.85L224.5 255.85Q225.78125 255.85 226.3125 255.36563Q226.85938 254.88126 226.85938 254.02188Q226.85938 253.38126 226.54688 252.94376Q226.23438 252.49063 225.70312 252.35Q225.375 252.25626 224.46875 252.25626L221.90625 252.25626L221.90625 255.85ZM228.96875 257.475Q228.96875 255.45938 230.09375 254.475Q231.01562 253.67813 232.375 253.67813Q233.85938 253.67813 234.8125 254.6625Q235.76562 255.63126 235.76562 257.36563Q235.76562 258.77188 235.34375 259.58438Q234.92188 260.38126 234.10938 260.83438Q233.3125 261.27188 232.375 261.27188Q230.84375 261.27188 229.90625 260.2875Q228.96875 259.30313 228.96875 257.475ZM230.23438 257.475Q230.23438 258.86563 230.84375 259.56876Q231.45312 260.25626 232.375 260.25626Q233.28125 260.25626 233.89062 259.55313Q234.5 258.85 234.5 257.42813Q234.5 256.08438 233.89062 255.39688Q233.28125 254.69376 232.375 254.69376Q231.45312 254.69376 230.84375 255.38126Q230.23438 256.06876 230.23438 257.475ZM236.9375 258.92813L238.14062 258.74063Q238.25 259.475 238.71875 259.86563Q239.1875 260.25626 240.03125 260.25626Q240.875 260.25626 241.28125 259.9125Q241.70312 259.56876 241.70312 259.1Q241.70312 258.67813 241.32812 258.44376Q241.07812 258.27188 240.07812 258.02188Q238.71875 257.67813 238.1875 257.42813Q237.67188 257.17813 237.40625 256.74063Q237.14062 256.30313 237.14062 255.77188Q237.14062 255.2875 237.35938 254.88126Q237.57812 254.45938 237.96875 254.17813Q238.25 253.975 238.73438 253.83438Q239.23438 253.67813 239.8125 253.67813Q240.65625 253.67813 241.29688 253.92813Q241.95312 254.1625 242.26562 254.58438Q242.57812 255.00626 242.6875 255.70938L241.48438 255.88126Q241.40625 255.31876 241.0 255.00626Q240.60938 254.69376 239.89062 254.69376Q239.04688 254.69376 238.6875 254.975Q238.32812 255.24063 238.32812 255.63126Q238.32812 255.86563 238.46875 256.05313Q238.625 256.25626 238.95312 256.38126Q239.125 256.44376 240.03125 256.69376Q241.34375 257.05313 241.85938 257.27188Q242.375 257.49063 242.65625 257.9125Q242.95312 258.33438 242.95312 258.95938Q242.95312 259.58438 242.59375 260.13126Q242.25 260.6625 241.5625 260.975Q240.89062 261.27188 240.03125 261.27188Q238.625 261.27188 237.875 260.67813Q237.14062 260.08438 236.9375 258.92813ZM244.4375 252.49063L244.4375 251.08438L245.65625 251.08438L245.65625 252.49063L244.4375 252.49063ZM244.4375 261.1L244.4375 253.83438L245.65625 253.83438L245.65625 261.1L244.4375 261.1ZM252.15625 258.44376L253.375 258.6Q253.17188 259.85 252.34375 260.56876Q251.53125 261.27188 250.34375 261.27188Q248.85938 261.27188 247.95312 260.30313Q247.04688 259.31876 247.04688 257.49063Q247.04688 256.31876 247.4375 255.44376Q247.82812 254.55313 248.625 254.11563Q249.42188 253.67813 250.35938 253.67813Q251.53125 253.67813 252.28125 254.27188Q253.04688 254.86563 253.25 255.975L252.0625 256.1625Q251.89062 255.42813 251.45312 255.06876Q251.01562 254.69376 250.40625 254.69376Q249.46875 254.69376 248.89062 255.36563Q248.3125 256.02188 248.3125 257.45938Q248.3125 258.92813 248.875 259.6Q249.4375 260.25626 250.32812 260.25626Q251.0625 260.25626 251.54688 259.81876Q252.03125 259.36563 252.15625 258.44376ZM249.3125 262.00626L249.65625 260.80313L250.57812 260.80313L250.34375 261.5375Q250.9375 261.6 251.21875 261.88126Q251.51562 262.17813 251.51562 262.5375Q251.51562 263.05313 251.01562 263.44376Q250.53125 263.83438 249.54688 263.83438Q248.98438 263.83438 248.5625 263.75626L248.64062 262.95938Q249.07812 262.99063 249.28125 262.99063Q249.92188 262.99063 250.1875 262.80313Q250.375 262.6625 250.375 262.475Q250.375 262.35 250.29688 262.25626Q250.21875 262.1625 250.0 262.08438Q249.79688 262.02188 249.3125 262.00626ZM259.15625 260.20938Q258.48438 260.7875 257.84375 261.0375Q257.21875 261.27188 256.48438 261.27188Q255.29688 261.27188 254.64062 260.69376Q254.0 260.1 254.0 259.17813Q254.0 258.64688 254.23438 258.20938Q254.48438 257.77188 254.875 257.50626Q255.28125 257.24063 255.76562 257.1Q256.125 257.00626 256.85938 256.9125Q258.35938 256.74063 259.0625 256.49063Q259.0625 256.24063 259.0625 256.17813Q259.0625 255.4125 258.71875 255.11563Q258.25 254.69376 257.3125 254.69376Q256.45312 254.69376 256.03125 255.00626Q255.625 255.30313 255.42188 256.06876L254.21875 255.9125Q254.375 255.13126 254.75 254.6625Q255.14062 254.19376 255.84375 253.94376Q256.5625 253.67813 257.5 253.67813Q258.42188 253.67813 259.0 253.89688Q259.57812 254.11563 259.84375 254.44376Q260.125 254.77188 260.23438 255.2875Q260.29688 255.6 260.29688 256.4125L260.29688 258.05313Q260.29688 259.77188 260.375 260.225Q260.45312 260.67813 260.6875 261.1L259.40625 261.1Q259.21875 260.70938 259.15625 260.20938ZM259.0625 257.45938Q258.39062 257.725 257.04688 257.92813Q256.29688 258.0375 255.96875 258.17813Q255.65625 258.30313 255.48438 258.56876Q255.3125 258.83438 255.3125 259.14688Q255.3125 259.64688 255.6875 259.975Q256.0625 260.30313 256.78125 260.30313Q257.5 260.30313 258.04688 259.99063Q258.59375 259.67813 258.85938 259.13126Q259.0625 258.725 259.0625 257.9125L259.0625 257.45938ZM255.0625 252.77188Q255.0625 252.05313 255.45312 251.63126Q255.84375 251.20938 256.45312 251.20938Q256.875 251.20938 257.60938 251.58438Q258.01562 251.7875 258.25 251.7875Q258.46875 251.7875 258.57812 251.6625Q258.70312 251.5375 258.75 251.19376L259.64062 251.19376Q259.60938 251.95938 259.23438 252.35Q258.875 252.74063 258.29688 252.74063Q257.85938 252.74063 257.15625 252.36563Q256.70312 252.11563 256.5 252.11563Q256.26562 252.11563 256.10938 252.2875Q255.96875 252.44376 255.96875 252.77188L255.0625 252.77188ZM261.96875 257.475Q261.96875 255.45938 263.09375 254.475Q264.01562 253.67813 265.375 253.67813Q266.85938 253.67813 267.8125 254.6625Q268.76562 255.63126 268.76562 257.36563Q268.76562 258.77188 268.34375 259.58438Q267.92188 260.38126 267.10938 260.83438Q266.3125 261.27188 265.375 261.27188Q263.84375 261.27188 262.90625 260.2875Q261.96875 259.30313 261.96875 257.475ZM263.23438 257.475Q263.23438 258.86563 263.84375 259.56876Q264.45312 260.25626 265.375 260.25626Q266.28125 260.25626 266.89062 259.55313Q267.5 258.85 267.5 257.42813Q267.5 256.08438 266.89062 255.39688Q266.28125 254.69376 265.375 254.69376Q264.45312 254.69376 263.84375 255.38126Q263.23438 256.06876 263.23438 257.475ZM274.65625 261.1L274.65625 251.08438L281.40625 251.08438L281.40625 252.25626L275.96875 252.25626L275.96875 255.36563L280.67188 255.36563L280.67188 256.55313L275.96875 256.55313L275.96875 261.1L274.65625 261.1ZM283.4375 252.49063L283.4375 251.08438L284.65625 251.08438L284.65625 252.49063L283.4375 252.49063ZM283.4375 261.1L283.4375 253.83438L284.65625 253.83438L284.65625 261.1L283.4375 261.1ZM286.42188 261.1L286.42188 253.83438L287.53125 253.83438L287.53125 254.86563Q288.32812 253.67813 289.84375 253.67813Q290.5 253.67813 291.04688 253.9125Q291.59375 254.14688 291.85938 254.5375Q292.14062 254.9125 292.25 255.44376Q292.32812 255.7875 292.32812 256.63126L292.32812 261.1L291.09375 261.1L291.09375 256.67813Q291.09375 255.92813 290.95312 255.56876Q290.8125 255.19376 290.4375 254.975Q290.07812 254.74063 289.57812 254.74063Q288.79688 254.74063 288.21875 255.24063Q287.65625 255.74063 287.65625 257.13126L287.65625 261.1L286.42188 261.1ZM299.15625 260.20938Q298.48438 260.7875 297.84375 261.0375Q297.21875 261.27188 296.48438 261.27188Q295.29688 261.27188 294.64062 260.69376Q294.0 260.1 294.0 259.17813Q294.0 258.64688 294.23438 258.20938Q294.48438 257.77188 294.875 257.50626Q295.28125 257.24063 295.76562 257.1Q296.125 257.00626 296.85938 256.9125Q298.35938 256.74063 299.0625 256.49063Q299.0625 256.24063 299.0625 256.17813Q299.0625 255.4125 298.71875 255.11563Q298.25 254.69376 297.3125 254.69376Q296.45312 254.69376 296.03125 255.00626Q295.625 255.30313 295.42188 256.06876L294.21875 255.9125Q294.375 255.13126 294.75 254.6625Q295.14062 254.19376 295.84375 253.94376Q296.5625 253.67813 297.5 253.67813Q298.42188 253.67813 299.0 253.89688Q299.57812 254.11563 299.84375 254.44376Q300.125 254.77188 300.23438 255.2875Q300.29688 255.6 300.29688 256.4125L300.29688 258.05313Q300.29688 259.77188 300.375 260.225Q300.45312 260.67813 300.6875 261.1L299.40625 261.1Q299.21875 260.70938 299.15625 260.20938ZM299.0625 257.45938Q298.39062 257.725 297.04688 257.92813Q296.29688 258.0375 295.96875 258.17813Q295.65625 258.30313 295.48438 258.56876Q295.3125 258.83438 295.3125 259.14688Q295.3125 259.64688 295.6875 259.975Q296.0625 260.30313 296.78125 260.30313Q297.5 260.30313 298.04688 259.99063Q298.59375 259.67813 298.85938 259.13126Q299.0625 258.725 299.0625 257.9125L299.0625 257.45938ZM302.39062 261.1L302.39062 251.08438L303.625 251.08438L303.625 261.1L302.39062 261.1Z" fill-rule="nonzero"/><path fill="#000000" d="M26.900005 162.92188L16.88438 162.92188L16.88438 159.14062Q16.88438 158.14062 16.97813 157.60938Q17.10313 156.875 17.44688 156.375Q17.79063 155.875 18.41563 155.57812Q19.025005 155.26562 19.775005 155.26562Q21.056255 155.26562 21.94688 156.07812Q22.82188 156.89062 22.82188 159.01562L22.82188 161.59375L26.900005 161.59375L26.900005 162.92188ZM21.650005 161.59375L21.650005 159.0Q21.650005 157.71875 21.16563 157.1875Q20.681255 156.64062 19.82188 156.64062Q19.181255 156.64062 18.743755 156.95312Q18.29063 157.26562 18.150005 157.79688Q18.056255 158.125 18.056255 159.03125L18.056255 161.59375L21.650005 161.59375ZM26.900005 154.09375L19.63438 154.09375L19.63438 152.98438L20.743755 152.98438Q19.962505 152.5625 19.72813 152.20312Q19.47813 151.84375 19.47813 151.40625Q19.47813 150.78125 19.868755 150.14062L21.00938 150.5625Q20.743755 151.01562 20.743755 151.46875Q20.743755 151.875 20.993755 152.20312Q21.22813 152.51562 21.66563 152.65625Q22.32188 152.85938 23.10313 152.85938L26.900005 152.85938L26.900005 154.09375ZM23.275005 149.53125Q21.25938 149.53125 20.275005 148.40625Q19.47813 147.48438 19.47813 146.125Q19.47813 144.64062 20.462505 143.6875Q21.431255 142.73438 23.16563 142.73438Q24.57188 142.73438 25.38438 143.15625Q26.181255 143.57812 26.63438 144.39062Q27.07188 145.1875 27.07188 146.125Q27.07188 147.65625 26.087505 148.59375Q25.10313 149.53125 23.275005 149.53125ZM23.275005 148.26562Q24.66563 148.26562 25.368755 147.65625Q26.056255 147.04688 26.056255 146.125Q26.056255 145.21875 25.35313 144.60938Q24.650005 144.0 23.22813 144.0Q21.88438 144.0 21.19688 144.60938Q20.493755 145.21875 20.493755 146.125Q20.493755 147.04688 21.181255 147.65625Q21.868755 148.26562 23.275005 148.26562ZM26.900005 139.9375L26.900005 141.07812L16.88438 141.07812L16.88438 139.85938L20.44688 139.85938Q19.47813 139.07812 19.47813 137.85938Q19.47813 137.1875 19.743755 136.59375Q20.00938 136.0 20.50938 135.60938Q20.993755 135.21875 21.681255 135.0Q22.368755 134.78125 23.16563 134.78125Q25.025005 134.78125 26.056255 135.71875Q27.07188 136.64062 27.07188 137.92188Q27.07188 139.20312 25.993755 139.9375L26.900005 139.9375ZM23.212505 139.95312Q24.525005 139.95312 25.10313 139.59375Q26.056255 139.01562 26.056255 138.03125Q26.056255 137.21875 25.35313 136.64062Q24.650005 136.04688 23.25938 136.04688Q21.837505 136.04688 21.16563 136.60938Q20.493755 137.17188 20.493755 137.96875Q20.493755 138.78125 21.19688 139.375Q21.88438 139.95312 23.212505 139.95312ZM26.00938 128.34375Q26.587505 129.01562 26.837505 129.65625Q27.07188 130.28125 27.07188 131.01562Q27.07188 132.20312 26.493755 132.85938Q25.900005 133.5 24.97813 133.5Q24.44688 133.5 24.00938 133.26562Q23.57188 133.01562 23.306255 132.625Q23.04063 132.21875 22.900005 131.73438Q22.806255 131.375 22.712505 130.64062Q22.54063 129.14062 22.29063 128.4375Q22.04063 128.4375 21.97813 128.4375Q21.212505 128.4375 20.91563 128.78125Q20.493755 129.25 20.493755 130.1875Q20.493755 131.04688 20.806255 131.46875Q21.10313 131.875 21.868755 132.07812L21.712505 133.28125Q20.931255 133.125 20.462505 132.75Q19.993755 132.35938 19.743755 131.65625Q19.47813 130.9375 19.47813 130.0Q19.47813 129.07812 19.69688 128.5Q19.91563 127.921875 20.243755 127.65625Q20.57188 127.375 21.087505 127.265625Q21.400005 127.203125 22.212505 127.203125L23.85313 127.203125Q25.57188 127.203125 26.025005 127.125Q26.47813 127.046875 26.900005 126.8125L26.900005 128.09375Q26.50938 128.28125 26.00938 128.34375ZM23.25938 128.4375Q23.525005 129.10938 23.72813 130.45312Q23.837505 131.20312 23.97813 131.53125Q24.10313 131.84375 24.368755 132.01562Q24.63438 132.1875 24.94688 132.1875Q25.44688 132.1875 25.775005 131.8125Q26.10313 131.4375 26.10313 130.71875Q26.10313 130.0 25.79063 129.45312Q25.47813 128.90625 24.931255 128.64062Q24.525005 128.4375 23.712505 128.4375L23.25938 128.4375ZM26.900005 123.9375L26.900005 125.078125L16.88438 125.078125L16.88438 123.859375L20.44688 123.859375Q19.47813 123.078125 19.47813 121.859375Q19.47813 121.1875 19.743755 120.59375Q20.00938 120.0 20.50938 119.609375Q20.993755 119.21875 21.681255 119.0Q22.368755 118.78125 23.16563 118.78125Q25.025005 118.78125 26.056255 119.71875Q27.07188 120.640625 27.07188 121.921875Q27.07188 123.203125 25.993755 123.9375L26.900005 123.9375ZM23.212505 123.953125Q24.525005 123.953125 25.10313 123.59375Q26.056255 123.015625 26.056255 122.03125Q26.056255 121.21875 25.35313 120.640625Q24.650005 120.046875 23.25938 120.046875Q21.837505 120.046875 21.16563 120.609375Q20.493755 121.171875 20.493755 121.96875Q20.493755 122.78125 21.19688 123.375Q21.88438 123.953125 23.212505 123.953125ZM18.29063 117.0625L16.88438 117.0625L16.88438 115.84375L18.29063 115.84375L18.29063 117.0625ZM26.900005 117.0625L19.63438 117.0625L19.63438 115.84375L26.900005 115.84375L26.900005 117.0625ZM26.900005 114.109375L16.88438 114.109375L16.88438 112.875L26.900005 112.875L26.900005 114.109375ZM18.29063 111.0625L16.88438 111.0625L16.88438 109.84375L18.29063 109.84375L18.29063 111.0625ZM26.900005 111.0625L19.63438 111.0625L19.63438 109.84375L26.900005 109.84375L26.900005 111.0625ZM26.900005 103.359375L25.97813 103.359375Q27.07188 104.0625 27.07188 105.390625Q27.07188 106.265625 26.587505 107.0Q26.10313 107.71875 25.243755 108.125Q24.38438 108.515625 23.275005 108.515625Q22.19688 108.515625 21.306255 108.15625Q20.41563 107.796875 19.94688 107.078125Q19.47813 106.34375 19.47813 105.453125Q19.47813 104.796875 19.75938 104.28125Q20.025005 103.765625 20.47813 103.453125L16.88438 103.453125L16.88438 102.21875L26.900005 102.21875L26.900005 103.359375ZM23.275005 107.25Q24.66563 107.25 25.368755 106.671875Q26.056255 106.078125 26.056255 105.28125Q26.056255 104.46875 25.400005 103.90625Q24.72813 103.34375 23.38438 103.34375Q21.88438 103.34375 21.19688 103.921875Q20.493755 104.5 20.493755 105.328125Q20.493755 106.15625 21.16563 106.703125Q21.837505 107.25 23.275005 107.25ZM26.00938 95.34375Q26.587505 96.015625 26.837505 96.65625Q27.07188 97.28125 27.07188 98.015625Q27.07188 99.203125 26.493755 99.859375Q25.900005 100.5 24.97813 100.5Q24.44688 100.5 24.00938 100.265625Q23.57188 100.015625 23.306255 99.625Q23.04063 99.21875 22.900005 98.734375Q22.806255 98.375 22.712505 97.640625Q22.54063 96.140625 22.29063 95.4375Q22.04063 95.4375 21.97813 95.4375Q21.212505 95.4375 20.91563 95.78125Q20.493755 96.25 20.493755 97.1875Q20.493755 98.046875 20.806255 98.46875Q21.10313 98.875 21.868755 99.078125L21.712505 100.28125Q20.931255 100.125 20.462505 99.75Q19.993755 99.359375 19.743755 98.65625Q19.47813 97.9375 19.47813 97.0Q19.47813 96.078125 19.69688 95.5Q19.91563 94.921875 20.243755 94.65625Q20.57188 94.375 21.087505 94.265625Q21.400005 94.203125 22.212505 94.203125L23.85313 94.203125Q25.57188 94.203125 26.025005 94.125Q26.47813 94.046875 26.900005 93.8125L26.900005 95.09375Q26.50938 95.28125 26.00938 95.34375ZM23.25938 95.4375Q23.525005 96.109375 23.72813 97.453125Q23.837505 98.203125 23.97813 98.53125Q24.10313 98.84375 24.368755 99.015625Q24.63438 99.1875 24.94688 99.1875Q25.44688 99.1875 25.775005 98.8125Q26.10313 98.4375 26.10313 97.71875Q26.10313 97.0 25.79063 96.453125Q25.47813 95.90625 24.931255 95.640625Q24.525005 95.4375 23.712505 95.4375L23.25938 95.4375ZM26.900005 87.359375L25.97813 87.359375Q27.07188 88.0625 27.07188 89.390625Q27.07188 90.265625 26.587505 91.0Q26.10313 91.71875 25.243755 92.125Q24.38438 92.515625 23.275005 92.515625Q22.19688 92.515625 21.306255 92.15625Q20.41563 91.796875 19.94688 91.078125Q19.47813 90.34375 19.47813 89.453125Q19.47813 88.796875 19.75938 88.28125Q20.025005 87.765625 20.47813 87.453125L16.88438 87.453125L16.88438 86.21875L26.900005 86.21875L26.900005 87.359375ZM23.275005 91.25Q24.66563 91.25 25.368755 90.671875Q26.056255 90.078125 26.056255 89.28125Q26.056255 88.46875 25.400005 87.90625Q24.72813 87.34375 23.38438 87.34375Q21.88438 87.34375 21.19688 87.921875Q20.493755 88.5 20.493755 89.328125Q20.493755 90.15625 21.16563 90.703125Q21.837505 91.25 23.275005 91.25ZM24.556255 79.109375L24.712505 77.828125Q25.837505 78.140625 26.462505 78.953125Q27.07188 79.765625 27.07188 81.03125Q27.07188 82.625 26.087505 83.5625Q25.10313 84.484375 23.337505 84.484375Q21.493755 84.484375 20.493755 83.546875Q19.47813 82.59375 19.47813 81.09375Q19.47813 79.640625 20.47813 78.71875Q21.462505 77.796875 23.25938 77.796875Q23.368755 77.796875 23.587505 77.796875L23.587505 83.21875Q24.775005 83.140625 25.41563 82.546875Q26.056255 81.9375 26.056255 81.015625Q26.056255 80.34375 25.69688 79.875Q25.337505 79.390625 24.556255 79.109375ZM22.57188 83.140625L22.57188 79.09375Q21.650005 79.171875 21.19688 79.5625Q20.493755 80.140625 20.493755 81.078125Q20.493755 81.9375 21.056255 82.515625Q21.618755 83.078125 22.57188 83.140625Z" fill-rule="nonzero"/><path fill="#000000" d="M51.478127 204.1625Q51.478127 202.38126 51.8375 201.30313Q52.2125 200.20938 52.93125 199.63126Q53.65 199.0375 54.74375 199.0375Q55.55625 199.0375 56.165627 199.36563Q56.775 199.69376 57.165627 200.30313Q57.571877 200.9125 57.790627 201.7875Q58.009377 202.6625 58.009377 204.1625Q58.009377 205.92813 57.65 207.00626Q57.290627 208.08438 56.571877 208.67813Q55.853127 209.27188 54.74375 209.27188Q53.30625 209.27188 52.478127 208.225Q51.478127 206.975 51.478127 204.1625ZM52.74375 204.1625Q52.74375 206.63126 53.321877 207.44376Q53.9 208.25626 54.74375 208.25626Q55.603127 208.25626 56.18125 207.44376Q56.759377 206.61563 56.759377 204.1625Q56.759377 201.67813 56.18125 200.86563Q55.603127 200.05313 54.728127 200.05313Q53.884377 200.05313 53.384377 200.77188Q52.74375 201.69376 52.74375 204.1625ZM60.15 209.1L60.15 207.69376L61.540627 207.69376L61.540627 209.1Q61.540627 209.86563 61.259377 210.33438Q60.99375 210.81876 60.4 211.08438L60.05625 210.55313Q60.446877 210.38126 60.634377 210.05313Q60.821877 209.725 60.8375 209.1L60.15 209.1ZM63.478127 204.1625Q63.478127 202.38126 63.8375 201.30313Q64.2125 200.20938 64.93125 199.63126Q65.65 199.0375 66.74375 199.0375Q67.55625 199.0375 68.16563 199.36563Q68.775 199.69376 69.16563 200.30313Q69.57188 200.9125 69.79063 201.7875Q70.00938 202.6625 70.00938 204.1625Q70.00938 205.92813 69.65 207.00626Q69.29063 208.08438 68.57188 208.67813Q67.85313 209.27188 66.74375 209.27188Q65.30625 209.27188 64.47813 208.225Q63.478127 206.975 63.478127 204.1625ZM64.74375 204.1625Q64.74375 206.63126 65.32188 207.44376Q65.9 208.25626 66.74375 208.25626Q67.60313 208.25626 68.18125 207.44376Q68.75938 206.61563 68.75938 204.1625Q68.75938 201.67813 68.18125 200.86563Q67.60313 200.05313 66.72813 200.05313Q65.88438 200.05313 65.38438 200.77188Q64.74375 201.69376 64.74375 204.1625ZM71.47813 204.1625Q71.47813 202.38126 71.8375 201.30313Q72.2125 200.20938 72.93125 199.63126Q73.65 199.0375 74.74375 199.0375Q75.55625 199.0375 76.16563 199.36563Q76.775 199.69376 77.16563 200.30313Q77.57188 200.9125 77.79063 201.7875Q78.00938 202.6625 78.00938 204.1625Q78.00938 205.92813 77.65 207.00626Q77.29063 208.08438 76.57188 208.67813Q75.85313 209.27188 74.74375 209.27188Q73.30625 209.27188 72.47813 208.225Q71.47813 206.975 71.47813 204.1625ZM72.74375 204.1625Q72.74375 206.63126 73.32188 207.44376Q73.9 208.25626 74.74375 208.25626Q75.60313 208.25626 76.18125 207.44376Q76.75938 206.61563 76.75938 204.1625Q76.75938 201.67813 76.18125 200.86563Q75.60313 200.05313 74.72813 200.05313Q73.88438 200.05313 73.38438 200.77188Q72.74375 201.69376 72.74375 204.1625Z" fill-rule="nonzero"/><path fill="#000000" d="M51.478127 167.7225Q51.478127 165.94125 51.8375 164.86313Q52.2125 163.76938 52.93125 163.19125Q53.65 162.5975 54.74375 162.5975Q55.55625 162.5975 56.165627 162.92563Q56.775 163.25375 57.165627 163.86313Q57.571877 164.4725 57.790627 165.3475Q58.009377 166.2225 58.009377 167.7225Q58.009377 169.48813 57.65 170.56625Q57.290627 171.64438 56.571877 172.23813Q55.853127 172.83188 54.74375 172.83188Q53.30625 172.83188 52.478127 171.785Q51.478127 170.535 51.478127 167.7225ZM52.74375 167.7225Q52.74375 170.19125 53.321877 171.00375Q53.9 171.81625 54.74375 171.81625Q55.603127 171.81625 56.18125 171.00375Q56.759377 170.17563 56.759377 167.7225Q56.759377 165.23813 56.18125 164.42563Q55.603127 163.61313 54.728127 163.61313Q53.884377 163.61313 53.384377 164.33188Q52.74375 165.25375 52.74375 167.7225ZM60.15 172.66L60.15 171.25375L61.540627 171.25375L61.540627 172.66Q61.540627 173.42563 61.259377 173.89438Q60.99375 174.37875 60.4 174.64438L60.05625 174.11313Q60.446877 173.94125 60.634377 173.61313Q60.821877 173.285 60.8375 172.66L60.15 172.66ZM63.478127 167.7225Q63.478127 165.94125 63.8375 164.86313Q64.2125 163.76938 64.93125 163.19125Q65.65 162.5975 66.74375 162.5975Q67.55625 162.5975 68.16563 162.92563Q68.775 163.25375 69.16563 163.86313Q69.57188 164.4725 69.79063 165.3475Q70.00938 166.2225 70.00938 167.7225Q70.00938 169.48813 69.65 170.56625Q69.29063 171.64438 68.57188 172.23813Q67.85313 172.83188 66.74375 172.83188Q65.30625 172.83188 64.47813 171.785Q63.478127 170.535 63.478127 167.7225ZM64.74375 167.7225Q64.74375 170.19125 65.32188 171.00375Q65.9 171.81625 66.74375 171.81625Q67.60313 171.81625 68.18125 171.00375Q68.75938 170.17563 68.75938 167.7225Q68.75938 165.23813 68.18125 164.42563Q67.60313 163.61313 66.72813 163.61313Q65.88438 163.61313 65.38438 164.33188Q64.74375 165.25375 64.74375 167.7225ZM71.47813 170.035L72.775 169.92563Q72.91563 170.86313 73.43125 171.3475Q73.9625 171.81625 74.69688 171.81625Q75.5875 171.81625 76.19688 171.14438Q76.82188 170.4725 76.82188 169.37875Q76.82188 168.31625 76.22813 167.70688Q75.63438 167.0975 74.68125 167.0975Q74.0875 167.0975 73.60313 167.37875Q73.13438 167.64438 72.85313 168.06625L71.69688 167.92563L72.66563 162.76938L77.65 162.76938L77.65 163.95688L73.65 163.95688L73.11875 166.64438Q74.025 166.01938 75.00938 166.01938Q76.32188 166.01938 77.2125 166.92563Q78.11875 167.83188 78.11875 169.26938Q78.11875 170.62875 77.3375 171.61313Q76.36875 172.83188 74.69688 172.83188Q73.3375 172.83188 72.4625 172.06625Q71.60313 171.30063 71.47813 170.035Z" fill-rule="nonzero"/><path fill="#000000" d="M51.478127 131.2825Q51.478127 129.50125 51.8375 128.42313Q52.2125 127.32938 52.93125 126.75125Q53.65 126.1575 54.74375 126.1575Q55.55625 126.1575 56.165627 126.48563Q56.775 126.81375 57.165627 127.42313Q57.571877 128.0325 57.790627 128.9075Q58.009377 129.7825 58.009377 131.2825Q58.009377 133.04813 57.65 134.12625Q57.290627 135.20438 56.571877 135.79813Q55.853127 136.39188 54.74375 136.39188Q53.30625 136.39188 52.478127 135.345Q51.478127 134.095 51.478127 131.2825ZM52.74375 131.2825Q52.74375 133.75125 53.321877 134.56375Q53.9 135.37625 54.74375 135.37625Q55.603127 135.37625 56.18125 134.56375Q56.759377 133.73563 56.759377 131.2825Q56.759377 128.79813 56.18125 127.98563Q55.603127 127.17313 54.728127 127.17313Q53.884377 127.17313 53.384377 127.89188Q52.74375 128.81375 52.74375 131.2825ZM60.15 136.22L60.15 134.81375L61.540627 134.81375L61.540627 136.22Q61.540627 136.98563 61.259377 137.45438Q60.99375 137.93875 60.4 138.20438L60.05625 137.67313Q60.446877 137.50125 60.634377 137.17313Q60.821877 136.845 60.8375 136.22L60.15 136.22ZM68.11875 136.22L66.88438 136.22L66.88438 128.37625Q66.44688 128.79813 65.7125 129.23563Q64.99375 129.6575 64.43125 129.86063L64.43125 128.67313Q65.4625 128.18875 66.22813 127.50125Q67.00938 126.81375 67.32188 126.1575L68.11875 126.1575L68.11875 136.22ZM71.47813 131.2825Q71.47813 129.50125 71.8375 128.42313Q72.2125 127.32938 72.93125 126.75125Q73.65 126.1575 74.74375 126.1575Q75.55625 126.1575 76.16563 126.48563Q76.775 126.81375 77.16563 127.42313Q77.57188 128.0325 77.79063 128.9075Q78.00938 129.7825 78.00938 131.2825Q78.00938 133.04813 77.65 134.12625Q77.29063 135.20438 76.57188 135.79813Q75.85313 136.39188 74.74375 136.39188Q73.30625 136.39188 72.47813 135.345Q71.47813 134.095 71.47813 131.2825ZM72.74375 131.2825Q72.74375 133.75125 73.32188 134.56375Q73.9 135.37625 74.74375 135.37625Q75.60313 135.37625 76.18125 134.56375Q76.75938 133.73563 76.75938 131.2825Q76.75938 128.79813 76.18125 127.98563Q75.60313 127.17313 74.72813 127.17313Q73.88438 127.17313 73.38438 127.89188Q72.74375 128.81375 72.74375 131.2825Z" fill-rule="nonzero"/><path fill="#000000" d="M51.478127 94.8425Q51.478127 93.06125 51.8375 91.98312Q52.2125 90.88937 52.93125 90.31125Q53.65 89.7175 54.74375 89.7175Q55.55625 89.7175 56.165627 90.04562Q56.775 90.37375 57.165627 90.98312Q57.571877 91.5925 57.790627 92.4675Q58.009377 93.3425 58.009377 94.8425Q58.009377 96.60812 57.65 97.68625Q57.290627 98.76437 56.571877 99.35812Q55.853127 99.95187 54.74375 99.95187Q53.30625 99.95187 52.478127 98.905Q51.478127 97.655 51.478127 94.8425ZM52.74375 94.8425Q52.74375 97.31125 53.321877 98.12375Q53.9 98.93625 54.74375 98.93625Q55.603127 98.93625 56.18125 98.12375Q56.759377 97.29562 56.759377 94.8425Q56.759377 92.35812 56.18125 91.54562Q55.603127 90.73312 54.728127 90.73312Q53.884377 90.73312 53.384377 91.45187Q52.74375 92.37375 52.74375 94.8425ZM60.15 99.78L60.15 98.37375L61.540627 98.37375L61.540627 99.78Q61.540627 100.54562 61.259377 101.01437Q60.99375 101.49875 60.4 101.76437L60.05625 101.23312Q60.446877 101.06125 60.634377 100.73312Q60.821877 100.405 60.8375 99.78L60.15 99.78ZM68.11875 99.78L66.88438 99.78L66.88438 91.93625Q66.44688 92.35812 65.7125 92.79562Q64.99375 93.2175 64.43125 93.42062L64.43125 92.23312Q65.4625 91.74875 66.22813 91.06125Q67.00938 90.37375 67.32188 89.7175L68.11875 89.7175L68.11875 99.78ZM71.47813 97.155L72.775 97.04562Q72.91563 97.98312 73.43125 98.4675Q73.9625 98.93625 74.69688 98.93625Q75.5875 98.93625 76.19688 98.26437Q76.82188 97.5925 76.82188 96.49875Q76.82188 95.43625 76.22813 94.82687Q75.63438 94.2175 74.68125 94.2175Q74.0875 94.2175 73.60313 94.49875Q73.13438 94.76437 72.85313 95.18625L71.69688 95.04562L72.66563 89.88937L77.65 89.88937L77.65 91.07687L73.65 91.07687L73.11875 93.76437Q74.025 93.13937 75.00938 93.13937Q76.32188 93.13937 77.2125 94.04562Q78.11875 94.95187 78.11875 96.38937Q78.11875 97.74875 77.3375 98.73312Q76.36875 99.95187 74.69688 99.95187Q73.3375 99.95187 72.4625 99.18625Q71.60313 98.42062 71.47813 97.155Z" fill-rule="nonzero"/><path fill="#000000" d="M51.478127 58.4025Q51.478127 56.62125 51.8375 55.543125Q52.2125 54.449375 52.93125 53.87125Q53.65 53.2775 54.74375 53.2775Q55.55625 53.2775 56.165627 53.605625Q56.775 53.93375 57.165627 54.543125Q57.571877 55.1525 57.790627 56.0275Q58.009377 56.9025 58.009377 58.4025Q58.009377 60.168125 57.65 61.24625Q57.290627 62.324375 56.571877 62.918125Q55.853127 63.511875 54.74375 63.511875Q53.30625 63.511875 52.478127 62.465Q51.478127 61.215 51.478127 58.4025ZM52.74375 58.4025Q52.74375 60.87125 53.321877 61.68375Q53.9 62.49625 54.74375 62.49625Q55.603127 62.49625 56.18125 61.68375Q56.759377 60.855625 56.759377 58.4025Q56.759377 55.918125 56.18125 55.105625Q55.603127 54.293125 54.728127 54.293125Q53.884377 54.293125 53.384377 55.011875Q52.74375 55.93375 52.74375 58.4025ZM60.15 63.34L60.15 61.93375L61.540627 61.93375L61.540627 63.34Q61.540627 64.10562 61.259377 64.57437Q60.99375 65.05875 60.4 65.32437L60.05625 64.79312Q60.446877 64.62125 60.634377 64.29312Q60.821877 63.965 60.8375 63.34L60.15 63.34ZM69.94688 62.1525L69.94688 63.34L63.321877 63.34Q63.30625 62.9025 63.4625 62.480625Q63.728127 61.80875 64.275 61.1525Q64.8375 60.49625 65.88438 59.636875Q67.525 58.293125 68.0875 57.511875Q68.66563 56.730625 68.66563 56.0275Q68.66563 55.293125 68.13438 54.793125Q67.61875 54.293125 66.79063 54.293125Q65.9 54.293125 65.35313 54.824375Q64.82188 55.355625 64.82188 56.30875L63.55625 56.168125Q63.68125 54.761875 64.525 54.0275Q65.38438 53.2775 66.80625 53.2775Q68.25938 53.2775 69.0875 54.074375Q69.93125 54.87125 69.93125 56.05875Q69.93125 56.668125 69.68125 57.24625Q69.44688 57.824375 68.86875 58.465Q68.30625 59.105625 66.97813 60.230625Q65.86875 61.1525 65.55625 61.49625Q65.24375 61.824375 65.04063 62.1525L69.94688 62.1525ZM71.47813 58.4025Q71.47813 56.62125 71.8375 55.543125Q72.2125 54.449375 72.93125 53.87125Q73.65 53.2775 74.74375 53.2775Q75.55625 53.2775 76.16563 53.605625Q76.775 53.93375 77.16563 54.543125Q77.57188 55.1525 77.79063 56.0275Q78.00938 56.9025 78.00938 58.4025Q78.00938 60.168125 77.65 61.24625Q77.29063 62.324375 76.57188 62.918125Q75.85313 63.511875 74.74375 63.511875Q73.30625 63.511875 72.47813 62.465Q71.47813 61.215 71.47813 58.4025ZM72.74375 58.4025Q72.74375 60.87125 73.32188 61.68375Q73.9 62.49625 74.74375 62.49625Q75.60313 62.49625 76.18125 61.68375Q76.75938 60.855625 76.75938 58.4025Q76.75938 55.918125 76.18125 55.105625Q75.60313 54.293125 74.72813 54.293125Q73.88438 54.293125 73.38438 55.011875Q72.74375 55.93375 72.74375 58.4025Z" fill-rule="nonzero"/><path fill="#000000" d="M51.478127 21.9625Q51.478127 20.18125 51.8375 19.103125Q52.2125 18.009375 52.93125 17.43125Q53.65 16.8375 54.74375 16.8375Q55.55625 16.8375 56.165627 17.165625Q56.775 17.49375 57.165627 18.103125Q57.571877 18.7125 57.790627 19.5875Q58.009377 20.4625 58.009377 21.9625Q58.009377 23.728125 57.65 24.80625Q57.290627 25.884375 56.571877 26.478125Q55.853127 27.071875 54.74375 27.071875Q53.30625 27.071875 52.478127 26.025Q51.478127 24.775 51.478127 21.9625ZM52.74375 21.9625Q52.74375 24.43125 53.321877 25.24375Q53.9 26.05625 54.74375 26.05625Q55.603127 26.05625 56.18125 25.24375Q56.759377 24.415625 56.759377 21.9625Q56.759377 19.478125 56.18125 18.665625Q55.603127 17.853125 54.728127 17.853125Q53.884377 17.853125 53.384377 18.571875Q52.74375 19.49375 52.74375 21.9625ZM60.15 26.9L60.15 25.49375L61.540627 25.49375L61.540627 26.9Q61.540627 27.665625 61.259377 28.134375Q60.99375 28.61875 60.4 28.884375L60.05625 28.353125Q60.446877 28.18125 60.634377 27.853125Q60.821877 27.525 60.8375 26.9L60.15 26.9ZM69.94688 25.7125L69.94688 26.9L63.321877 26.9Q63.30625 26.4625 63.4625 26.040625Q63.728127 25.36875 64.275 24.7125Q64.8375 24.05625 65.88438 23.196875Q67.525 21.853125 68.0875 21.071875Q68.66563 20.290625 68.66563 19.5875Q68.66563 18.853125 68.13438 18.353125Q67.61875 17.853125 66.79063 17.853125Q65.9 17.853125 65.35313 18.384375Q64.82188 18.915625 64.82188 19.86875L63.55625 19.728125Q63.68125 18.321875 64.525 17.5875Q65.38438 16.8375 66.80625 16.8375Q68.25938 16.8375 69.0875 17.634375Q69.93125 18.43125 69.93125 19.61875Q69.93125 20.228125 69.68125 20.80625Q69.44688 21.384375 68.86875 22.025Q68.30625 22.665625 66.97813 23.790625Q65.86875 24.7125 65.55625 25.05625Q65.24375 25.384375 65.04063 25.7125L69.94688 25.7125ZM71.47813 24.275L72.775 24.165625Q72.91563 25.103125 73.43125 25.5875Q73.9625 26.05625 74.69688 26.05625Q75.5875 26.05625 76.19688 25.384375Q76.82188 24.7125 76.82188 23.61875Q76.82188 22.55625 76.22813 21.946875Q75.63438 21.3375 74.68125 21.3375Q74.0875 21.3375 73.60313 21.61875Q73.13438 21.884375 72.85313 22.30625L71.69688 22.165625L72.66563 17.009375L77.65 17.009375L77.65 18.196875L73.65 18.196875L73.11875 20.884375Q74.025 20.259375 75.00938 20.259375Q76.32188 20.259375 77.2125 21.165625Q78.11875 22.071875 78.11875 23.509375Q78.11875 24.86875 77.3375 25.853125Q76.36875 27.071875 74.69688 27.071875Q73.3375 27.071875 72.4625 26.30625Q71.60313 25.540625 71.47813 24.275Z" fill-rule="nonzero"/><path fill="#000000" d="M96.78332 221.08438L96.78332 219.85L100.56457 219.85L100.56457 221.08438L96.78332 221.08438ZM106.56457 224.1L105.33019 224.1L105.33019 216.25626Q104.89269 216.67813 104.15832 217.11563Q103.43957 217.5375 102.87707 217.74063L102.87707 216.55313Q103.90832 216.06876 104.67394 215.38126Q105.45519 214.69376 105.76769 214.0375L106.56457 214.0375L106.56457 224.1ZM109.92394 219.1625Q109.92394 217.38126 110.28332 216.30313Q110.65832 215.20938 111.37707 214.63126Q112.09582 214.0375 113.18957 214.0375Q114.00207 214.0375 114.61144 214.36563Q115.22082 214.69376 115.61144 215.30313Q116.01769 215.9125 116.23644 216.7875Q116.45519 217.6625 116.45519 219.1625Q116.45519 220.92813 116.09582 222.00626Q115.73644 223.08438 115.01769 223.67813Q114.29894 224.27188 113.18957 224.27188Q111.75207 224.27188 110.92394 223.225Q109.92394 221.975 109.92394 219.1625ZM111.18957 219.1625Q111.18957 221.63126 111.76769 222.44376Q112.34582 223.25626 113.18957 223.25626Q114.04894 223.25626 114.62707 222.44376Q115.20519 221.61563 115.20519 219.1625Q115.20519 216.67813 114.62707 215.86563Q114.04894 215.05313 113.17394 215.05313Q112.33019 215.05313 111.83019 215.77188Q111.18957 216.69376 111.18957 219.1625Z" fill-rule="nonzero"/><path fill="#000000" d="M131.81415 221.08438L131.81415 219.85L135.5954 219.85L135.5954 221.08438L131.81415 221.08438ZM138.8454 218.6625Q138.07977 218.38126 137.70477 217.86563Q137.3454 217.35 137.3454 216.61563Q137.3454 215.52188 138.12665 214.7875Q138.92352 214.0375 140.2204 214.0375Q141.5329 214.0375 142.32977 214.80313Q143.14227 215.56876 143.14227 216.6625Q143.14227 217.35 142.76727 217.86563Q142.4079 218.38126 141.6579 218.6625Q142.57977 218.95938 143.06415 219.63126Q143.54852 220.30313 143.54852 221.24063Q143.54852 222.52188 142.64227 223.39688Q141.73602 224.27188 140.25165 224.27188Q138.76727 224.27188 137.8454 223.39688Q136.93915 222.50626 136.93915 221.19376Q136.93915 220.225 137.43915 219.56876Q137.93915 218.89688 138.8454 218.6625ZM138.61102 216.58438Q138.61102 217.2875 139.06415 217.74063Q139.51727 218.19376 140.25165 218.19376Q140.9704 218.19376 141.42352 217.75626Q141.87665 217.30313 141.87665 216.64688Q141.87665 215.975 141.4079 215.52188Q140.93915 215.05313 140.23602 215.05313Q139.5329 215.05313 139.06415 215.50626Q138.61102 215.94376 138.61102 216.58438ZM138.20477 221.20938Q138.20477 221.74063 138.45477 222.24063Q138.70477 222.725 139.18915 222.99063Q139.68915 223.25626 140.26727 223.25626Q141.14227 223.25626 141.70477 222.69376Q142.2829 222.13126 142.2829 221.25626Q142.2829 220.36563 141.68915 219.7875Q141.11102 219.19376 140.2204 219.19376Q139.3454 219.19376 138.76727 219.77188Q138.20477 220.35 138.20477 221.20938Z" fill-rule="nonzero"/><path fill="#000000" d="M162.84499 221.08438L162.84499 219.85L166.62624 219.85L166.62624 221.08438L162.84499 221.08438ZM174.37624 216.5375L173.15749 216.63126Q172.98561 215.89688 172.68874 215.56876Q172.18874 215.05313 171.45436 215.05313Q170.86061 215.05313 170.42311 215.38126Q169.84499 215.80313 169.50124 216.61563Q169.17311 217.42813 169.15749 218.92813Q169.59499 218.25626 170.23561 217.92813Q170.89186 217.6 171.59499 217.6Q172.82936 217.6 173.68874 218.50626Q174.54811 219.4125 174.54811 220.85Q174.54811 221.7875 174.14186 222.6Q173.73561 223.4125 173.01686 223.85Q172.31374 224.27188 171.40749 224.27188Q169.87624 224.27188 168.90749 223.14688Q167.93874 222.00626 167.93874 219.4125Q167.93874 216.50626 169.00124 215.17813Q169.93874 214.0375 171.53249 214.0375Q172.71999 214.0375 173.46999 214.70938Q174.21999 215.36563 174.37624 216.5375ZM169.34499 220.85Q169.34499 221.49063 169.61061 222.06876Q169.89186 222.64688 170.37624 222.95938Q170.86061 223.25626 171.39186 223.25626Q172.17311 223.25626 172.73561 222.63126Q173.29811 222.00626 173.29811 220.92813Q173.29811 219.88126 172.73561 219.2875Q172.18874 218.67813 171.34499 218.67813Q170.51686 218.67813 169.92311 219.2875Q169.34499 219.88126 169.34499 220.85Z" fill-rule="nonzero"/><path fill="#000000" d="M193.87582 221.08438L193.87582 219.85L197.65707 219.85L197.65707 221.08438L193.87582 221.08438ZM202.96957 224.1L202.96957 221.69376L198.6102 221.69376L198.6102 220.56876L203.18832 214.08438L204.18832 214.08438L204.18832 220.56876L205.5477 220.56876L205.5477 221.69376L204.18832 221.69376L204.18832 224.1L202.96957 224.1ZM202.96957 220.56876L202.96957 216.05313L199.82895 220.56876L202.96957 220.56876Z" fill-rule="nonzero"/><path fill="#000000" d="M224.90666 221.08438L224.90666 219.85L228.68791 219.85L228.68791 221.08438L224.90666 221.08438ZM236.51604 222.9125L236.51604 224.1L229.89104 224.1Q229.87541 223.6625 230.03166 223.24063Q230.29729 222.56876 230.84416 221.9125Q231.40666 221.25626 232.45354 220.39688Q234.09416 219.05313 234.65666 218.27188Q235.23479 217.49063 235.23479 216.7875Q235.23479 216.05313 234.70354 215.55313Q234.18791 215.05313 233.35979 215.05313Q232.46916 215.05313 231.92229 215.58438Q231.39104 216.11563 231.39104 217.06876L230.12541 216.92813Q230.25041 215.52188 231.09416 214.7875Q231.95354 214.0375 233.37541 214.0375Q234.82854 214.0375 235.65666 214.83438Q236.50041 215.63126 236.50041 216.81876Q236.50041 217.42813 236.25041 218.00626Q236.01604 218.58438 235.43791 219.225Q234.87541 219.86563 233.54729 220.99063Q232.43791 221.9125 232.12541 222.25626Q231.81291 222.58438 231.60979 222.9125L236.51604 222.9125Z" fill-rule="nonzero"/><path fill="#000000" d="M258.57812 219.1625Q258.57812 217.38126 258.9375 216.30313Q259.3125 215.20938 260.03125 214.63126Q260.75 214.0375 261.84375 214.0375Q262.65625 214.0375 263.26562 214.36563Q263.875 214.69376 264.26562 215.30313Q264.67188 215.9125 264.89062 216.7875Q265.10938 217.6625 265.10938 219.1625Q265.10938 220.92813 264.75 222.00626Q264.39062 223.08438 263.67188 223.67813Q262.95312 224.27188 261.84375 224.27188Q260.40625 224.27188 259.57812 223.225Q258.57812 221.975 258.57812 219.1625ZM259.84375 219.1625Q259.84375 221.63126 260.42188 222.44376Q261.0 223.25626 261.84375 223.25626Q262.70312 223.25626 263.28125 222.44376Q263.85938 221.61563 263.85938 219.1625Q263.85938 216.67813 263.28125 215.86563Q262.70312 215.05313 261.82812 215.05313Q260.98438 215.05313 260.48438 215.77188Q259.84375 216.69376 259.84375 219.1625Z" fill-rule="nonzero"/><path fill="#000000" d="M296.0777 222.9125L296.0777 224.1L289.4527 224.1Q289.43707 223.6625 289.59332 223.24063Q289.85895 222.56876 290.40582 221.9125Q290.96832 221.25626 292.0152 220.39688Q293.65582 219.05313 294.21832 218.27188Q294.79645 217.49063 294.79645 216.7875Q294.79645 216.05313 294.2652 215.55313Q293.74957 215.05313 292.92145 215.05313Q292.03082 215.05313 291.48395 215.58438Q290.9527 216.11563 290.9527 217.06876L289.68707 216.92813Q289.81207 215.52188 290.65582 214.7875Q291.5152 214.0375 292.93707 214.0375Q294.3902 214.0375 295.21832 214.83438Q296.06207 215.63126 296.06207 216.81876Q296.06207 217.42813 295.81207 218.00626Q295.5777 218.58438 294.99957 219.225Q294.43707 219.86563 293.10895 220.99063Q291.99957 221.9125 291.68707 222.25626Q291.37457 222.58438 291.17145 222.9125L296.0777 222.9125Z" fill-rule="nonzero"/><path fill="#000000" d="M324.59293 224.1L324.59293 221.69376L320.23355 221.69376L320.23355 220.56876L324.81168 214.08438L325.81168 214.08438L325.81168 220.56876L327.17105 220.56876L327.17105 221.69376L325.81168 221.69376L325.81168 224.1L324.59293 224.1ZM324.59293 220.56876L324.59293 216.05313L321.4523 220.56876L324.59293 220.56876Z" fill-rule="nonzero"/><path fill="#000000" d="M358.06125 216.5375L356.8425 216.63126Q356.67062 215.89688 356.37375 215.56876Q355.87375 215.05313 355.13937 215.05313Q354.54562 215.05313 354.10812 215.38126Q353.53 215.80313 353.18625 216.61563Q352.85812 217.42813 352.8425 218.92813Q353.28 218.25626 353.92062 217.92813Q354.57687 217.6 355.28 217.6Q356.51437 217.6 357.37375 218.50626Q358.23312 219.4125 358.23312 220.85Q358.23312 221.7875 357.82687 222.6Q357.42062 223.4125 356.70187 223.85Q355.99875 224.27188 355.0925 224.27188Q353.56125 224.27188 352.5925 223.14688Q351.62375 222.00626 351.62375 219.4125Q351.62375 216.50626 352.68625 215.17813Q353.62375 214.0375 355.2175 214.0375Q356.405 214.0375 357.155 214.70938Q357.905 215.36563 358.06125 216.5375ZM353.03 220.85Q353.03 221.49063 353.29562 222.06876Q353.57687 222.64688 354.06125 222.95938Q354.54562 223.25626 355.07687 223.25626Q355.85812 223.25626 356.42062 222.63126Q356.98312 222.00626 356.98312 220.92813Q356.98312 219.88126 356.42062 219.2875Q355.87375 218.67813 355.03 218.67813Q354.20187 218.67813 353.60812 219.2875Q353.03 219.88126 353.03 220.85Z" fill-rule="nonzero"/><path fill="#000000" d="M384.5921 218.6625Q383.82648 218.38126 383.45148 217.86563Q383.0921 217.35 383.0921 216.61563Q383.0921 215.52188 383.87335 214.7875Q384.67023 214.0375 385.9671 214.0375Q387.2796 214.0375 388.07648 214.80313Q388.88898 215.56876 388.88898 216.6625Q388.88898 217.35 388.51398 217.86563Q388.1546 218.38126 387.4046 218.6625Q388.32648 218.95938 388.81085 219.63126Q389.29523 220.30313 389.29523 221.24063Q389.29523 222.52188 388.38898 223.39688Q387.48273 224.27188 385.99835 224.27188Q384.51398 224.27188 383.5921 223.39688Q382.68585 222.50626 382.68585 221.19376Q382.68585 220.225 383.18585 219.56876Q383.68585 218.89688 384.5921 218.6625ZM384.35773 216.58438Q384.35773 217.2875 384.81085 217.74063Q385.26398 218.19376 385.99835 218.19376Q386.7171 218.19376 387.17023 217.75626Q387.62335 217.30313 387.62335 216.64688Q387.62335 215.975 387.1546 215.52188Q386.68585 215.05313 385.98273 215.05313Q385.2796 215.05313 384.81085 215.50626Q384.35773 215.94376 384.35773 216.58438ZM383.95148 221.20938Q383.95148 221.74063 384.20148 222.24063Q384.45148 222.725 384.93585 222.99063Q385.43585 223.25626 386.01398 223.25626Q386.88898 223.25626 387.45148 222.69376Q388.0296 222.13126 388.0296 221.25626Q388.0296 220.36563 387.43585 219.7875Q386.85773 219.19376 385.9671 219.19376Q385.0921 219.19376 384.51398 219.77188Q383.95148 220.35 383.95148 221.20938Z" fill-rule="nonzero"/><path fill="#000000" d="M414.37292 224.1L413.13855 224.1L413.13855 216.25626Q412.70105 216.67813 411.96667 217.11563Q411.24792 217.5375 410.68542 217.74063L410.68542 216.55313Q411.71667 216.06876 412.4823 215.38126Q413.26355 214.69376 413.57605 214.0375L414.37292 214.0375L414.37292 224.1ZM417.7323 219.1625Q417.7323 217.38126 418.09167 216.30313Q418.46667 215.20938 419.18542 214.63126Q419.90417 214.0375 420.99792 214.0375Q421.81042 214.0375 422.4198 214.36563Q423.02917 214.69376 423.4198 215.30313Q423.82605 215.9125 424.0448 216.7875Q424.26355 217.6625 424.26355 219.1625Q424.26355 220.92813 423.90417 222.00626Q423.5448 223.08438 422.82605 223.67813Q422.1073 224.27188 420.99792 224.27188Q419.56042 224.27188 418.7323 223.225Q417.7323 221.975 417.7323 219.1625ZM418.99792 219.1625Q418.99792 221.63126 419.57605 222.44376Q420.15417 223.25626 420.99792 223.25626Q421.8573 223.25626 422.43542 222.44376Q423.01355 221.61563 423.01355 219.1625Q423.01355 216.67813 422.43542 215.86563Q421.8573 215.05313 420.9823 215.05313Q420.13855 215.05313 419.63855 215.77188Q418.99792 216.69376 418.99792 219.1625Z" fill-rule="nonzero"/></svg>