<svg version="1.1" viewBox="0.0 0.0 452.0 278.0" fill="none" stroke="none" stroke-linecap="square" stroke-miterlimit="10" width="452" height="278" xmlns:xlink="http://www.w3.org/1999/xlink" xmlns="http://www.w3.org/2000/svg"><path fill="#ffffff" d="M0 0L452.0 0L452.0 278.0L0 278.0L0 0Z" fill-rule="nonzero"/><path stroke="#333333" stroke-width="1.0" stroke-linecap="butt" d="M75.5 212.5L438.5 212.5" fill-rule="nonzero"/><path stroke="#efefef" stroke-width="1.0" stroke-linecap="butt" d="M75.5 173.5L438.5 173.5" fill-rule="nonzero"/><path stroke="#efefef" stroke-width="1.0" stroke-linecap="butt" d="M75.5 135.5L438.5 135.5" fill-rule="nonzero"/><path stroke="#efefef" stroke-width="1.0" stroke-linecap="butt" d="M75.5 97.5L438.5 97.5" fill-rule="nonzero"/><path stroke="#efefef" stroke-width="1.0" stroke-linecap="butt" d="M75.5 59.5L438.5 59.5" fill-rule="nonzero"/><path stroke="#efefef" stroke-width="1.0" stroke-linecap="butt" d="M75.5 20.5L438.5 20.5" fill-rule="nonzero"/><path stroke="#000000" stroke-width="1.0" stroke-linecap="butt" d="M75.5 212.5L75.5 20.5" fill-rule="nonzero"/><clipPath id="id_0"><path d="M75.9 20.9L438.1 20.9L438.1 212.1L75.9 212.1L75.9 20.9Z" clip-rule="nonzero"/></clipPath><path stroke="#001128" stroke-width="1.0" stroke-linecap="butt" stroke-opacity="0.14901961" clip-path="url(#id_0)" d="M108.0 212.0L87.0 212.0L87.0 211.5C87.0 211.22386 87.223854 211.0 87.5 211.0L107.5 211.0C107.776146 211.0 108.0 211.22386 108.0 211.5Z" fill-rule="nonzero"/><path fill="#001128" fill-opacity="0.101960786" clip-path="url(#id_0)" d="M108.0 212.0L87.0 212.0L87.0 211.5C87.0 211.22386 87.223854 211.0 87.5 211.0L107.5 211.0C107.776146 211.0 108.0 211.22386 108.0 211.5Z" fill-rule="nonzero"/><path stroke="#001128" stroke-width="1.0" stroke-linecap="butt" stroke-opacity="0.14901961" clip-path="url(#id_0)" d="M140.0 212.0L119.0 212.0L119.0 207.0C119.0 205.89543 119.89543 205.0 121.0 205.0L138.0 205.0C139.10457 205.0 140.0 205.89543 140.0 207.0Z" fill-rule="nonzero"/><path fill="#001128" fill-opacity="0.101960786" clip-path="url(#id_0)" d="M140.0 212.0L119.0 212.0L119.0 207.0C119.0 205.89543 119.89543 205.0 121.0 205.0L138.0 205.0C139.10457 205.0 140.0 205.89543 140.0 207.0Z" fill-rule="nonzero"/><path stroke="#001128" stroke-width="1.0" stroke-linecap="butt" stroke-opacity="0.14901961" clip-path="url(#id_0)" d="M172.0 212.0L151.0 212.0L151.0 180.0C151.0 178.89543 151.89543 178.0 153.0 178.0L170.0 178.0C171.10457 178.0 172.0 178.89543 172.0 180.0Z" fill-rule="nonzero"/><path fill="#001128" fill-opacity="0.101960786" clip-path="url(#id_0)" d="M172.0 212.0L151.0 212.0L151.0 180.0C151.0 178.89543 151.89543 178.0 153.0 178.0L170.0 178.0C171.10457 178.0 172.0 178.89543 172.0 180.0Z" fill-rule="nonzero"/><path stroke="#001128" stroke-width="1.0" stroke-linecap="butt" stroke-opacity="0.14901961" clip-path="url(#id_0)" d="M204.0 212.0L183.0 212.0L183.0 124.0C183.0 122.89543 183.89543 122.0 185.0 122.0L202.0 122.0C203.10457 122.0 204.0 122.89543 204.0 124.0Z" fill-rule="nonzero"/><path fill="#001128" fill-opacity="0.101960786" clip-path="url(#id_0)" d="M204.0 212.0L183.0 212.0L183.0 124.0C183.0 122.89543 183.89543 122.0 185.0 122.0L202.0 122.0C203.10457 122.0 204.0 122.89543 204.0 124.0Z" fill-rule="nonzero"/><path stroke="#001128" stroke-width="1.0" stroke-linecap="butt" stroke-opacity="0.14901961" clip-path="url(#id_0)" d="M236.0 212.0L215.0 212.0L215.0 57.0C215.0 55.89543 215.89543 55.0 217.0 55.0L234.0 55.0C235.10457 55.0 236.0 55.89543 236.0 57.0Z" fill-rule="nonzero"/><path fill="#001128" fill-opacity="0.101960786" clip-path="url(#id_0)" d="M236.0 212.0L215.0 212.0L215.0 57.0C215.0 55.89543 215.89543 55.0 217.0 55.0L234.0 55.0C235.10457 55.0 236.0 55.89543 236.0 57.0Z" fill-rule="nonzero"/><path stroke="#001128" stroke-width="1.0" stroke-linecap="butt" stroke-opacity="0.14901961" clip-path="url(#id_0)" d="M268.0 212.0L247.0 212.0L247.0 26.0C247.0 24.89543 247.89543 24.0 249.0 24.0L266.0 24.0C267.10458 24.0 268.0 24.89543 268.0 26.0Z" fill-rule="nonzero"/><path fill="#001128" fill-opacity="0.101960786" clip-path="url(#id_0)" d="M268.0 212.0L247.0 212.0L247.0 26.0C247.0 24.89543 247.89543 24.0 249.0 24.0L266.0 24.0C267.10458 24.0 268.0 24.89543 268.0 26.0Z" fill-rule="nonzero"/><path stroke="#001128" stroke-width="1.0" stroke-linecap="butt" stroke-opacity="0.14901961" clip-path="url(#id_0)" d="M300.0 212.0L279.0 212.0L279.0 57.0C279.0 55.89543 279.89542 55.0 281.0 55.0L298.0 55.0C299.10458 55.0 300.0 55.89543 300.0 57.0Z" fill-rule="nonzero"/><path fill="#001128" fill-opacity="0.101960786" clip-path="url(#id_0)" d="M300.0 212.0L279.0 212.0L279.0 57.0C279.0 55.89543 279.89542 55.0 281.0 55.0L298.0 55.0C299.10458 55.0 300.0 55.89543 300.0 57.0Z" fill-rule="nonzero"/><path stroke="#001128" stroke-width="1.0" stroke-linecap="butt" stroke-opacity="0.14901961" clip-path="url(#id_0)" d="M332.0 212.0L311.0 212.0L311.0 124.0C311.0 122.89543 311.89542 122.0 313.0 122.0L330.0 122.0C331.10458 122.0 332.0 122.89543 332.0 124.0Z" fill-rule="nonzero"/><path fill="#001128" fill-opacity="0.101960786" clip-path="url(#id_0)" d="M332.0 212.0L311.0 212.0L311.0 124.0C311.0 122.89543 311.89542 122.0 313.0 122.0L330.0 122.0C331.10458 122.0 332.0 122.89543 332.0 124.0Z" fill-rule="nonzero"/><path stroke="#001128" stroke-width="1.0" stroke-linecap="butt" stroke-opacity="0.14901961" clip-path="url(#id_0)" d="M364.0 212.0L343.0 212.0L343.0 180.0C343.0 178.89543 343.89542 178.0 345.0 178.0L362.0 178.0C363.10458 178.0 364.0 178.89543 364.0 180.0Z" fill-rule="nonzero"/><path fill="#001128" fill-opacity="0.101960786" clip-path="url(#id_0)" d="M364.0 212.0L343.0 212.0L343.0 180.0C343.0 178.89543 343.89542 178.0 345.0 178.0L362.0 178.0C363.10458 178.0 364.0 178.89543 364.0 180.0Z" fill-rule="nonzero"/><path stroke="#001128" stroke-width="1.0" stroke-linecap="butt" stroke-opacity="0.14901961" clip-path="url(#id_0)" d="M396.0 212.0L375.0 212.0L375.0 207.0C375.0 205.89543 375.89542 205.0 377.0 205.0L394.0 205.0C395.10458 205.0 396.0 205.89543 396.0 207.0Z" fill-rule="nonzero"/><path fill="#001128" fill-opacity="0.101960786" clip-path="url(#id_0)" d="M396.0 212.0L375.0 212.0L375.0 207.0C375.0 205.89543 375.89542 205.0 377.0 205.0L394.0 205.0C395.10458 205.0 396.0 205.89543 396.0 207.0Z" fill-rule="nonzero"/><path stroke="#001128" stroke-width="1.0" stroke-linecap="butt" stroke-opacity="0.14901961" clip-path="url(#id_0)" d="M428.0 212.0L407.0 212.0L407.0 211.5C407.0 211.22386 407.22385 211.0 407.5 211.0L427.5 211.0C427.77615 211.0 428.0 211.22386 428.0 211.5Z" fill-rule="nonzero"/><path fill="#001128" fill-opacity="0.101960786" clip-path="url(#id_0)" d="M428.0 212.0L407.0 212.0L407.0 211.5C407.0 211.22386 407.22385 211.0 407.5 211.0L427.5 211.0C427.77615 211.0 428.0 211.22386 428.0 211.5Z" fill-rule="nonzero"/><path fill="#000000" d="M220.42188 261.1L220.42188 252.50626L223.67188 252.50626Q224.51562 252.50626 224.96875 252.58438Q225.60938 252.69376 226.03125 252.99063Q226.46875 253.2875 226.71875 253.81876Q226.98438 254.35 226.98438 254.99063Q226.98438 256.08438 226.28125 256.85Q225.59375 257.6 223.76562 257.6L221.5625 257.6L221.5625 261.1L220.42188 261.1ZM221.5625 256.6L223.78125 256.6Q224.89062 256.6 225.34375 256.19376Q225.8125 255.77188 225.8125 255.02188Q225.8125 254.49063 225.53125 254.11563Q225.26562 253.725 224.82812 253.6Q224.53125 253.52188 223.76562 253.52188L221.5625 253.52188L221.5625 256.6ZM227.90625 257.99063Q227.90625 256.25626 228.85938 255.42813Q229.65625 254.74063 230.8125 254.74063Q232.09375 254.74063 232.90625 255.58438Q233.73438 256.4125 233.73438 257.89688Q233.73438 259.1 233.375 259.7875Q233.01562 260.475 232.3125 260.86563Q231.625 261.24063 230.8125 261.24063Q229.51562 261.24063 228.70312 260.4125Q227.90625 259.56876 227.90625 257.99063ZM228.98438 257.99063Q228.98438 259.17813 229.5 259.77188Q230.03125 260.36563 230.8125 260.36563Q231.60938 260.36563 232.125 259.77188Q232.64062 259.17813 232.64062 257.95938Q232.64062 256.80313 232.10938 256.20938Q231.59375 255.61563 230.8125 255.61563Q230.03125 255.61563 229.5 256.20938Q228.98438 256.7875 228.98438 257.99063ZM234.875 259.24063L235.90625 259.08438Q236.0 259.70938 236.39062 260.0375Q236.79688 260.36563 237.53125 260.36563Q238.25 260.36563 238.59375 260.08438Q238.95312 259.7875 238.95312 259.38126Q238.95312 259.02188 238.64062 258.81876Q238.42188 258.67813 237.5625 258.45938Q236.40625 258.1625 235.95312 257.95938Q235.51562 257.74063 235.28125 257.36563Q235.04688 256.99063 235.04688 256.52188Q235.04688 256.11563 235.23438 255.75626Q235.42188 255.39688 235.75 255.1625Q236.0 254.99063 236.42188 254.86563Q236.84375 254.74063 237.34375 254.74063Q238.0625 254.74063 238.60938 254.95938Q239.17188 255.1625 239.4375 255.52188Q239.70312 255.88126 239.79688 256.475L238.76562 256.61563Q238.70312 256.14688 238.35938 255.88126Q238.03125 255.6 237.40625 255.6Q236.6875 255.6 236.375 255.85Q236.0625 256.08438 236.0625 256.4125Q236.0625 256.61563 236.1875 256.77188Q236.32812 256.94376 236.59375 257.05313Q236.75 257.11563 237.53125 257.31876Q238.65625 257.63126 239.09375 257.81876Q239.53125 258.00626 239.78125 258.36563Q240.03125 258.725 240.03125 259.27188Q240.03125 259.80313 239.71875 260.27188Q239.42188 260.725 238.84375 260.99063Q238.26562 261.24063 237.53125 261.24063Q236.3125 261.24063 235.67188 260.74063Q235.04688 260.225 234.875 259.24063ZM242.29688 253.725L242.29688 252.50626L243.35938 252.50626L243.35938 253.725L242.29688 253.725ZM242.29688 261.1L242.29688 254.88126L243.35938 254.88126L243.35938 261.1L242.29688 261.1ZM249.35938 258.81876L250.39062 258.95938Q250.21875 260.02188 249.51562 260.63126Q248.8125 261.24063 247.79688 261.24063Q246.51562 261.24063 245.73438 260.4125Q244.96875 259.56876 244.96875 258.00626Q244.96875 257.00626 245.29688 256.25626Q245.64062 255.49063 246.3125 255.11563Q247.0 254.74063 247.8125 254.74063Q248.8125 254.74063 249.45312 255.25626Q250.10938 255.75626 250.29688 256.70938L249.26562 256.86563Q249.125 256.24063 248.75 255.92813Q248.375 255.6 247.84375 255.6Q247.04688 255.6 246.54688 256.17813Q246.04688 256.74063 246.04688 257.975Q246.04688 259.24063 246.53125 259.80313Q247.01562 260.36563 247.78125 260.36563Q248.40625 260.36563 248.8125 259.99063Q249.23438 259.61563 249.35938 258.81876ZM246.90625 261.88126L247.21875 260.83438L248.0 260.83438L247.79688 261.475Q248.29688 261.52188 248.54688 261.77188Q248.8125 262.02188 248.8125 262.33438Q248.8125 262.77188 248.39062 263.1Q247.96875 263.44376 247.10938 263.44376Q246.625 263.44376 246.26562 263.36563L246.32812 262.69376Q246.70312 262.70938 246.89062 262.70938Q247.4375 262.70938 247.65625 262.55313Q247.82812 262.44376 247.82812 262.27188Q247.82812 262.1625 247.75 262.08438Q247.6875 262.00626 247.5 261.94376Q247.32812 261.88126 246.90625 261.88126ZM255.35938 260.33438Q254.76562 260.83438 254.21875 261.0375Q253.6875 261.24063 253.0625 261.24063Q252.03125 261.24063 251.48438 260.74063Q250.9375 260.24063 250.9375 259.45938Q250.9375 259.00626 251.14062 258.63126Q251.34375 258.24063 251.6875 258.02188Q252.03125 257.7875 252.45312 257.67813Q252.75 257.58438 253.39062 257.50626Q254.65625 257.36563 255.26562 257.14688Q255.26562 256.92813 255.26562 256.88126Q255.26562 256.225 254.96875 255.95938Q254.5625 255.61563 253.76562 255.61563Q253.03125 255.61563 252.67188 255.88126Q252.3125 256.13126 252.14062 256.7875L251.10938 256.64688Q251.25 255.99063 251.57812 255.58438Q251.90625 255.17813 252.51562 254.95938Q253.125 254.74063 253.92188 254.74063Q254.71875 254.74063 255.21875 254.92813Q255.71875 255.11563 255.95312 255.39688Q256.1875 255.67813 256.28125 256.11563Q256.32812 256.38126 256.32812 257.08438L256.32812 258.49063Q256.32812 259.95938 256.39062 260.35Q256.46875 260.74063 256.67188 261.1L255.5625 261.1Q255.40625 260.77188 255.35938 260.33438ZM255.26562 257.975Q254.6875 258.20938 253.54688 258.38126Q252.89062 258.475 252.625 258.6Q252.35938 258.70938 252.20312 258.92813Q252.0625 259.14688 252.0625 259.42813Q252.0625 259.85 252.375 260.13126Q252.70312 260.4125 253.3125 260.4125Q253.92188 260.4125 254.39062 260.14688Q254.875 259.88126 255.09375 259.4125Q255.26562 259.05313 255.26562 258.36563L255.26562 257.975ZM251.84375 253.95938Q251.82812 253.35 252.17188 252.99063Q252.5 252.61563 253.03125 252.61563Q253.39062 252.61563 254.01562 252.94376Q254.35938 253.11563 254.5625 253.11563Q254.75 253.11563 254.84375 253.02188Q254.95312 252.9125 255.0 252.6L255.76562 252.6Q255.73438 253.27188 255.42188 253.61563Q255.10938 253.94376 254.60938 253.94376Q254.23438 253.94376 253.64062 253.61563Q253.25 253.39688 253.0625 253.39688Q252.85938 253.39688 252.73438 253.5375Q252.60938 253.67813 252.625 253.95938L251.84375 253.95938ZM257.90625 257.99063Q257.90625 256.25626 258.85938 255.42813Q259.65625 254.74063 260.8125 254.74063Q262.09375 254.74063 262.90625 255.58438Q263.73438 256.4125 263.73438 257.89688Q263.73438 259.1 263.375 259.7875Q263.01562 260.475 262.3125 260.86563Q261.625 261.24063 260.8125 261.24063Q259.51562 261.24063 258.70312 260.4125Q257.90625 259.56876 257.90625 257.99063ZM258.98438 257.99063Q258.98438 259.17813 259.5 259.77188Q260.03125 260.36563 260.8125 260.36563Q261.60938 260.36563 262.125 259.77188Q262.64062 259.17813 262.64062 257.95938Q262.64062 256.80313 262.10938 256.20938Q261.59375 255.61563 260.8125 255.61563Q260.03125 255.61563 259.5 256.20938Q258.98438 256.7875 258.98438 257.99063ZM268.48438 261.1L268.48438 252.50626L274.28125 252.50626L274.28125 253.52188L269.625 253.52188L269.625 256.17813L273.65625 256.17813L273.65625 257.19376L269.625 257.19376L269.625 261.1L268.48438 261.1ZM275.29688 253.725L275.29688 252.50626L276.35938 252.50626L276.35938 253.725L275.29688 253.725ZM275.29688 261.1L275.29688 254.88126L276.35938 254.88126L276.35938 261.1L275.29688 261.1ZM278.29688 261.1L278.29688 254.88126L279.23438 254.88126L279.23438 255.75626Q279.92188 254.74063 281.21875 254.74063Q281.78125 254.74063 282.25 254.94376Q282.73438 255.14688 282.96875 255.475Q283.20312 255.80313 283.29688 256.24063Q283.34375 256.5375 283.34375 257.27188L283.34375 261.1L282.29688 261.1L282.29688 257.31876Q282.29688 256.6625 282.17188 256.35Q282.04688 256.0375 281.73438 255.85Q281.42188 255.64688 281.0 255.64688Q280.32812 255.64688 279.82812 256.08438Q279.34375 256.50626 279.34375 257.69376L279.34375 261.1L278.29688 261.1ZM289.35938 260.33438Q288.76562 260.83438 288.21875 261.0375Q287.6875 261.24063 287.0625 261.24063Q286.03125 261.24063 285.48438 260.74063Q284.9375 260.24063 284.9375 259.45938Q284.9375 259.00626 285.14062 258.63126Q285.34375 258.24063 285.6875 258.02188Q286.03125 257.7875 286.45312 257.67813Q286.75 257.58438 287.39062 257.50626Q288.65625 257.36563 289.26562 257.14688Q289.26562 256.92813 289.26562 256.88126Q289.26562 256.225 288.96875 255.95938Q288.5625 255.61563 287.76562 255.61563Q287.03125 255.61563 286.67188 255.88126Q286.3125 256.13126 286.14062 256.7875L285.10938 256.64688Q285.25 255.99063 285.57812 255.58438Q285.90625 255.17813 286.51562 254.95938Q287.125 254.74063 287.92188 254.74063Q288.71875 254.74063 289.21875 254.92813Q289.71875 255.11563 289.95312 255.39688Q290.1875 255.67813 290.28125 256.11563Q290.32812 256.38126 290.32812 257.08438L290.32812 258.49063Q290.32812 259.95938 290.39062 260.35Q290.46875 260.74063 290.67188 261.1L289.5625 261.1Q289.40625 260.77188 289.35938 260.33438ZM289.26562 257.975Q288.6875 258.20938 287.54688 258.38126Q286.89062 258.475 286.625 258.6Q286.35938 258.70938 286.20312 258.92813Q286.0625 259.14688 286.0625 259.42813Q286.0625 259.85 286.375 260.13126Q286.70312 260.4125 287.3125 260.4125Q287.92188 260.4125 288.39062 260.14688Q288.875 259.88126 289.09375 259.4125Q289.26562 259.05313 289.26562 258.36563L289.26562 257.975ZM292.26562 261.1L292.26562 252.50626L293.32812 252.50626L293.32812 261.1L292.26562 261.1Z" fill-rule="nonzero"/><path fill="#000000" d="M24.900005 160.57812L16.306255 160.57812L16.306255 157.32812Q16.306255 156.48438 16.38438 156.03125Q16.493755 155.39062 16.79063 154.96875Q17.087505 154.53125 17.618755 154.28125Q18.150005 154.01562 18.79063 154.01562Q19.88438 154.01562 20.650005 154.71875Q21.400005 155.40625 21.400005 157.23438L21.400005 159.4375L24.900005 159.4375L24.900005 160.57812ZM20.400005 159.4375L20.400005 157.21875Q20.400005 156.10938 19.993755 155.65625Q19.57188 155.1875 18.82188 155.1875Q18.29063 155.1875 17.91563 155.46875Q17.525005 155.73438 17.400005 156.17188Q17.32188 156.46875 17.32188 157.23438L17.32188 159.4375L20.400005 159.4375ZM24.900005 152.71875L18.681255 152.71875L18.681255 151.76562L19.618755 151.76562Q18.962505 151.40625 18.75938 151.10938Q18.54063 150.79688 18.54063 150.42188Q18.54063 149.89062 18.868755 149.34375L19.85313 149.70312Q19.618755 150.09375 19.618755 150.46875Q19.618755 150.82812 19.837505 151.10938Q20.04063 151.375 20.41563 151.48438Q20.97813 151.67188 21.63438 151.67188L24.900005 151.67188L24.900005 152.71875ZM21.79063 149.09375Q20.056255 149.09375 19.22813 148.14062Q18.54063 147.34375 18.54063 146.1875Q18.54063 144.90625 19.38438 144.09375Q20.212505 143.26562 21.69688 143.26562Q22.900005 143.26562 23.587505 143.625Q24.275005 143.98438 24.66563 144.6875Q25.04063 145.375 25.04063 146.1875Q25.04063 147.48438 24.212505 148.29688Q23.368755 149.09375 21.79063 149.09375ZM21.79063 148.01562Q22.97813 148.01562 23.57188 147.5Q24.16563 146.96875 24.16563 146.1875Q24.16563 145.39062 23.57188 144.875Q22.97813 144.35938 21.75938 144.35938Q20.60313 144.35938 20.00938 144.89062Q19.41563 145.40625 19.41563 146.1875Q19.41563 146.96875 20.00938 147.5Q20.587505 148.01562 21.79063 148.01562ZM24.900005 140.73438L24.900005 141.71875L16.306255 141.71875L16.306255 140.65625L19.368755 140.65625Q18.54063 139.98438 18.54063 138.95312Q18.54063 138.375 18.775005 137.875Q18.993755 137.35938 19.41563 137.03125Q19.837505 136.6875 20.431255 136.5Q21.025005 136.3125 21.69688 136.3125Q23.29063 136.3125 24.16563 137.10938Q25.04063 137.90625 25.04063 139.0Q25.04063 140.10938 24.118755 140.73438L24.900005 140.73438ZM21.743755 140.75Q22.85313 140.75 23.35313 140.4375Q24.16563 139.9375 24.16563 139.09375Q24.16563 138.40625 23.57188 137.90625Q22.97813 137.39062 21.775005 137.39062Q20.556255 137.39062 19.97813 137.875Q19.400005 138.35938 19.400005 139.04688Q19.400005 139.73438 20.00938 140.25Q20.60313 140.75 21.743755 140.75ZM24.13438 130.64062Q24.63438 131.23438 24.837505 131.78125Q25.04063 132.3125 25.04063 132.9375Q25.04063 133.96875 24.54063 134.51562Q24.04063 135.0625 23.25938 135.0625Q22.806255 135.0625 22.431255 134.85938Q22.04063 134.65625 21.82188 134.3125Q21.587505 133.96875 21.47813 133.54688Q21.38438 133.25 21.306255 132.60938Q21.16563 131.34375 20.94688 130.73438Q20.72813 130.73438 20.681255 130.73438Q20.025005 130.73438 19.75938 131.03125Q19.41563 131.4375 19.41563 132.23438Q19.41563 132.96875 19.681255 133.32812Q19.931255 133.6875 20.587505 133.85938L20.44688 134.89062Q19.79063 134.75 19.38438 134.42188Q18.97813 134.09375 18.75938 133.48438Q18.54063 132.875 18.54063 132.07812Q18.54063 131.28125 18.72813 130.78125Q18.91563 130.28125 19.19688 130.04688Q19.47813 129.8125 19.91563 129.71875Q20.181255 129.67188 20.88438 129.67188L22.29063 129.67188Q23.75938 129.67188 24.150005 129.60938Q24.54063 129.53125 24.900005 129.32812L24.900005 130.4375Q24.57188 130.59375 24.13438 130.64062ZM21.775005 130.73438Q22.00938 131.3125 22.181255 132.45312Q22.275005 133.10938 22.400005 133.375Q22.50938 133.64062 22.72813 133.79688Q22.94688 133.9375 23.22813 133.9375Q23.650005 133.9375 23.931255 133.625Q24.212505 133.29688 24.212505 132.6875Q24.212505 132.07812 23.94688 131.60938Q23.681255 131.125 23.212505 130.90625Q22.85313 130.73438 22.16563 130.73438L21.775005 130.73438ZM24.900005 126.734375L24.900005 127.71875L16.306255 127.71875L16.306255 126.65625L19.368755 126.65625Q18.54063 125.984375 18.54063 124.953125Q18.54063 124.375 18.775005 123.875Q18.993755 123.359375 19.41563 123.03125Q19.837505 122.6875 20.431255 122.5Q21.025005 122.3125 21.69688 122.3125Q23.29063 122.3125 24.16563 123.109375Q25.04063 123.90625 25.04063 125.0Q25.04063 126.109375 24.118755 126.734375L24.900005 126.734375ZM21.743755 126.75Q22.85313 126.75 23.35313 126.4375Q24.16563 125.9375 24.16563 125.09375Q24.16563 124.40625 23.57188 123.90625Q22.97813 123.390625 21.775005 123.390625Q20.556255 123.390625 19.97813 123.875Q19.400005 124.359375 19.400005 125.046875Q19.400005 125.734375 20.00938 126.25Q20.60313 126.75 21.743755 126.75ZM17.525005 120.703125L16.306255 120.703125L16.306255 119.640625L17.525005 119.640625L17.525005 120.703125ZM24.900005 120.703125L18.681255 120.703125L18.681255 119.640625L24.900005 119.640625L24.900005 120.703125ZM24.900005 117.734375L16.306255 117.734375L16.306255 116.671875L24.900005 116.671875L24.900005 117.734375ZM17.525005 114.703125L16.306255 114.703125L16.306255 113.640625L17.525005 113.640625L17.525005 114.703125ZM24.900005 114.703125L18.681255 114.703125L18.681255 113.640625L24.900005 113.640625L24.900005 114.703125ZM24.900005 107.671875L24.118755 107.671875Q25.04063 108.265625 25.04063 109.40625Q25.04063 110.15625 24.63438 110.78125Q24.212505 111.40625 23.47813 111.75Q22.743755 112.09375 21.79063 112.09375Q20.868755 112.09375 20.10313 111.78125Q19.337505 111.46875 18.94688 110.84375Q18.54063 110.21875 18.54063 109.453125Q18.54063 108.890625 18.775005 108.453125Q19.00938 108.015625 19.38438 107.734375L16.306255 107.734375L16.306255 106.6875L24.900005 106.6875L24.900005 107.671875ZM21.79063 111.0Q22.993755 111.0 23.587505 110.5Q24.16563 110.0 24.16563 109.3125Q24.16563 108.625 23.60313 108.140625Q23.04063 107.65625 21.88438 107.65625Q20.60313 107.65625 20.00938 108.15625Q19.41563 108.640625 19.41563 109.359375Q19.41563 110.0625 19.993755 110.53125Q20.556255 111.0 21.79063 111.0ZM24.13438 100.640625Q24.63438 101.234375 24.837505 101.78125Q25.04063 102.3125 25.04063 102.9375Q25.04063 103.96875 24.54063 104.515625Q24.04063 105.0625 23.25938 105.0625Q22.806255 105.0625 22.431255 104.859375Q22.04063 104.65625 21.82188 104.3125Q21.587505 103.96875 21.47813 103.546875Q21.38438 103.25 21.306255 102.609375Q21.16563 101.34375 20.94688 100.734375Q20.72813 100.734375 20.681255 100.734375Q20.025005 100.734375 19.75938 101.03125Q19.41563 101.4375 19.41563 102.234375Q19.41563 102.96875 19.681255 103.328125Q19.931255 103.6875 20.587505 103.859375L20.44688 104.890625Q19.79063 104.75 19.38438 104.421875Q18.97813 104.09375 18.75938 103.484375Q18.54063 102.875 18.54063 102.078125Q18.54063 101.28125 18.72813 100.78125Q18.91563 100.28125 19.19688 100.046875Q19.47813 99.8125 19.91563 99.71875Q20.181255 99.671875 20.88438 99.671875L22.29063 99.671875Q23.75938 99.671875 24.150005 99.609375Q24.54063 99.53125 24.900005 99.328125L24.900005 100.4375Q24.57188 100.59375 24.13438 100.640625ZM21.775005 100.734375Q22.00938 101.3125 22.181255 102.453125Q22.275005 103.109375 22.400005 103.375Q22.50938 103.640625 22.72813 103.796875Q22.94688 103.9375 23.22813 103.9375Q23.650005 103.9375 23.931255 103.625Q24.212505 103.296875 24.212505 102.6875Q24.212505 102.078125 23.94688 101.609375Q23.681255 101.125 23.212505 100.90625Q22.85313 100.734375 22.16563 100.734375L21.775005 100.734375ZM24.900005 93.671875L24.118755 93.671875Q25.04063 94.265625 25.04063 95.40625Q25.04063 96.15625 24.63438 96.78125Q24.212505 97.40625 23.47813 97.75Q22.743755 98.09375 21.79063 98.09375Q20.868755 98.09375 20.10313 97.78125Q19.337505 97.46875 18.94688 96.84375Q18.54063 96.21875 18.54063 95.453125Q18.54063 94.890625 18.775005 94.453125Q19.00938 94.015625 19.38438 93.734375L16.306255 93.734375L16.306255 92.6875L24.900005 92.6875L24.900005 93.671875ZM21.79063 97.0Q22.993755 97.0 23.587505 96.5Q24.16563 96.0 24.16563 95.3125Q24.16563 94.625 23.60313 94.140625Q23.04063 93.65625 21.88438 93.65625Q20.60313 93.65625 20.00938 94.15625Q19.41563 94.640625 19.41563 95.359375Q19.41563 96.0625 19.993755 96.53125Q20.556255 97.0 21.79063 97.0ZM22.900005 86.453125L23.025005 85.359375Q23.97813 85.609375 24.50938 86.3125Q25.04063 87.015625 25.04063 88.09375Q25.04063 89.453125 24.19688 90.265625Q23.35313 91.0625 21.837505 91.0625Q20.275005 91.0625 19.41563 90.25Q18.54063 89.4375 18.54063 88.15625Q18.54063 86.90625 19.38438 86.125Q20.22813 85.328125 21.775005 85.328125Q21.868755 85.328125 22.056255 85.328125L22.056255 89.96875Q23.087505 89.90625 23.63438 89.390625Q24.16563 88.875 24.16563 88.09375Q24.16563 87.515625 23.868755 87.109375Q23.556255 86.6875 22.900005 86.453125ZM21.19688 89.90625L21.19688 86.4375Q20.400005 86.5 20.00938 86.828125Q19.400005 87.34375 19.400005 88.140625Q19.400005 88.875 19.88438 89.375Q20.368755 89.859375 21.19688 89.90625Z" fill-rule="nonzero"/><path fill="#000000" d="M46.4 211.86563Q46.4 210.33438 46.7125 209.4125Q47.025 208.475 47.634377 207.975Q48.259377 207.475 49.196877 207.475Q49.884377 207.475 50.4 207.75626Q50.93125 208.0375 51.275 208.56876Q51.61875 209.08438 51.80625 209.83438Q51.99375 210.58438 51.99375 211.86563Q51.99375 213.38126 51.68125 214.30313Q51.384377 215.225 50.759377 215.74063Q50.15 216.24063 49.196877 216.24063Q47.9625 216.24063 47.24375 215.35Q46.4 214.2875 46.4 211.86563ZM47.478127 211.86563Q47.478127 213.975 47.978127 214.67813Q48.478127 215.38126 49.196877 215.38126Q49.93125 215.38126 50.415627 214.67813Q50.915627 213.975 50.915627 211.86563Q50.915627 209.74063 50.415627 209.05313Q49.93125 208.35 49.18125 208.35Q48.4625 208.35 48.025 208.95938Q47.478127 209.74063 47.478127 211.86563ZM53.9625 216.1L53.9625 214.89688L55.165627 214.89688L55.165627 216.1Q55.165627 216.75626 54.93125 217.1625Q54.696877 217.58438 54.196877 217.80313L53.9 217.35Q54.228127 217.20938 54.384377 216.9125Q54.540627 216.63126 54.571877 216.1L53.9625 216.1ZM56.4 211.86563Q56.4 210.33438 56.7125 209.4125Q57.025 208.475 57.634377 207.975Q58.259377 207.475 59.196877 207.475Q59.884377 207.475 60.4 207.75626Q60.93125 208.0375 61.275 208.56876Q61.61875 209.08438 61.80625 209.83438Q61.99375 210.58438 61.99375 211.86563Q61.99375 213.38126 61.68125 214.30313Q61.384377 215.225 60.759377 215.74063Q60.15 216.24063 59.196877 216.24063Q57.9625 216.24063 57.24375 215.35Q56.4 214.2875 56.4 211.86563ZM57.478127 211.86563Q57.478127 213.975 57.978127 214.67813Q58.478127 215.38126 59.196877 215.38126Q59.93125 215.38126 60.415627 214.67813Q60.915627 213.975 60.915627 211.86563Q60.915627 209.74063 60.415627 209.05313Q59.93125 208.35 59.18125 208.35Q58.4625 208.35 58.025 208.95938Q57.478127 209.74063 57.478127 211.86563ZM63.4 211.86563Q63.4 210.33438 63.7125 209.4125Q64.025 208.475 64.63438 207.975Q65.25938 207.475 66.19688 207.475Q66.88438 207.475 67.4 207.75626Q67.93125 208.0375 68.275 208.56876Q68.61875 209.08438 68.80625 209.83438Q68.99375 210.58438 68.99375 211.86563Q68.99375 213.38126 68.68125 214.30313Q68.38438 215.225 67.75938 215.74063Q67.15 216.24063 66.19688 216.24063Q64.9625 216.24063 64.24375 215.35Q63.4 214.2875 63.4 211.86563ZM64.47813 211.86563Q64.47813 213.975 64.97813 214.67813Q65.47813 215.38126 66.19688 215.38126Q66.93125 215.38126 67.41563 214.67813Q67.91563 213.975 67.91563 211.86563Q67.91563 209.74063 67.41563 209.05313Q66.93125 208.35 66.18125 208.35Q65.4625 208.35 65.025 208.95938Q64.47813 209.74063 64.47813 211.86563Z" fill-rule="nonzero"/><path fill="#000000" d="M46.4 173.62563Q46.4 172.09438 46.7125 171.1725Q47.025 170.235 47.634377 169.735Q48.259377 169.235 49.196877 169.235Q49.884377 169.235 50.4 169.51625Q50.93125 169.7975 51.275 170.32875Q51.61875 170.84438 51.80625 171.59438Q51.99375 172.34438 51.99375 173.62563Q51.99375 175.14125 51.68125 176.06313Q51.384377 176.985 50.759377 177.50063Q50.15 178.00063 49.196877 178.00063Q47.9625 178.00063 47.24375 177.11Q46.4 176.0475 46.4 173.62563ZM47.478127 173.62563Q47.478127 175.735 47.978127 176.43813Q48.478127 177.14125 49.196877 177.14125Q49.93125 177.14125 50.415627 176.43813Q50.915627 175.735 50.915627 173.62563Q50.915627 171.50063 50.415627 170.81313Q49.93125 170.11 49.18125 170.11Q48.4625 170.11 48.025 170.71938Q47.478127 171.50063 47.478127 173.62563ZM53.9625 177.86L53.9625 176.65688L55.165627 176.65688L55.165627 177.86Q55.165627 178.51625 54.93125 178.9225Q54.696877 179.34438 54.196877 179.56313L53.9 179.11Q54.228127 178.96938 54.384377 178.6725Q54.540627 178.39125 54.571877 177.86L53.9625 177.86ZM56.4 173.62563Q56.4 172.09438 56.7125 171.1725Q57.025 170.235 57.634377 169.735Q58.259377 169.235 59.196877 169.235Q59.884377 169.235 60.4 169.51625Q60.93125 169.7975 61.275 170.32875Q61.61875 170.84438 61.80625 171.59438Q61.99375 172.34438 61.99375 173.62563Q61.99375 175.14125 61.68125 176.06313Q61.384377 176.985 60.759377 177.50063Q60.15 178.00063 59.196877 178.00063Q57.9625 178.00063 57.24375 177.11Q56.4 176.0475 56.4 173.62563ZM57.478127 173.62563Q57.478127 175.735 57.978127 176.43813Q58.478127 177.14125 59.196877 177.14125Q59.93125 177.14125 60.415627 176.43813Q60.915627 175.735 60.915627 173.62563Q60.915627 171.50063 60.415627 170.81313Q59.93125 170.11 59.18125 170.11Q58.4625 170.11 58.025 170.71938Q57.478127 171.50063 57.478127 173.62563ZM63.4 175.61L64.50938 175.51625Q64.63438 176.32875 65.07188 176.735Q65.525 177.14125 66.16563 177.14125Q66.91563 177.14125 67.44688 176.56313Q67.97813 175.985 67.97813 175.0475Q67.97813 174.14125 67.4625 173.62563Q66.9625 173.09438 66.13438 173.09438Q65.63438 173.09438 65.2125 173.32875Q64.80625 173.56313 64.57188 173.9225L63.5875 173.7975L64.41563 169.39125L68.69688 169.39125L68.69688 170.39125L65.25938 170.39125L64.80625 172.70375Q65.57188 172.15688 66.41563 172.15688Q67.54063 172.15688 68.30625 172.93813Q69.0875 173.71938 69.0875 174.95375Q69.0875 176.11 68.41563 176.96938Q67.5875 178.00063 66.16563 178.00063Q64.99375 178.00063 64.24375 177.34438Q63.509377 176.68813 63.4 175.61Z" fill-rule="nonzero"/><path fill="#000000" d="M46.4 135.38562Q46.4 133.85437 46.7125 132.9325Q47.025 131.995 47.634377 131.495Q48.259377 130.995 49.196877 130.995Q49.884377 130.995 50.4 131.27625Q50.93125 131.5575 51.275 132.08875Q51.61875 132.60437 51.80625 133.35437Q51.99375 134.10437 51.99375 135.38562Q51.99375 136.90125 51.68125 137.82312Q51.384377 138.745 50.759377 139.26062Q50.15 139.76062 49.196877 139.76062Q47.9625 139.76062 47.24375 138.87Q46.4 137.8075 46.4 135.38562ZM47.478127 135.38562Q47.478127 137.495 47.978127 138.19812Q48.478127 138.90125 49.196877 138.90125Q49.93125 138.90125 50.415627 138.19812Q50.915627 137.495 50.915627 135.38562Q50.915627 133.26062 50.415627 132.57312Q49.93125 131.87 49.18125 131.87Q48.4625 131.87 48.025 132.47937Q47.478127 133.26062 47.478127 135.38562ZM53.9625 139.62L53.9625 138.41687L55.165627 138.41687L55.165627 139.62Q55.165627 140.27625 54.93125 140.6825Q54.696877 141.10437 54.196877 141.32312L53.9 140.87Q54.228127 140.72937 54.384377 140.4325Q54.540627 140.15125 54.571877 139.62L53.9625 139.62ZM60.36875 139.62L59.321877 139.62L59.321877 132.90125Q58.93125 133.26062 58.30625 133.63562Q57.696877 133.995 57.2125 134.16687L57.2125 133.15125Q58.0875 132.72937 58.74375 132.15125Q59.415627 131.5575 59.696877 130.995L60.36875 130.995L60.36875 139.62ZM63.4 135.38562Q63.4 133.85437 63.7125 132.9325Q64.025 131.995 64.63438 131.495Q65.25938 130.995 66.19688 130.995Q66.88438 130.995 67.4 131.27625Q67.93125 131.5575 68.275 132.08875Q68.61875 132.60437 68.80625 133.35437Q68.99375 134.10437 68.99375 135.38562Q68.99375 136.90125 68.68125 137.82312Q68.38438 138.745 67.75938 139.26062Q67.15 139.76062 66.19688 139.76062Q64.9625 139.76062 64.24375 138.87Q63.4 137.8075 63.4 135.38562ZM64.47813 135.38562Q64.47813 137.495 64.97813 138.19812Q65.47813 138.90125 66.19688 138.90125Q66.93125 138.90125 67.41563 138.19812Q67.91563 137.495 67.91563 135.38562Q67.91563 133.26062 67.41563 132.57312Q66.93125 131.87 66.18125 131.87Q65.4625 131.87 65.025 132.47937Q64.47813 133.26062 64.47813 135.38562Z" fill-rule="nonzero"/><path fill="#000000" d="M46.4 97.14562Q46.4 95.61437 46.7125 94.6925Q47.025 93.755 47.634377 93.255Q48.259377 92.755 49.196877 92.755Q49.884377 92.755 50.4 93.03625Q50.93125 93.3175 51.275 93.84875Q51.61875 94.36437 51.80625 95.11437Q51.99375 95.86437 51.99375 97.14562Q51.99375 98.66125 51.68125 99.58312Q51.384377 100.505 50.759377 101.02062Q50.15 101.52062 49.196877 101.52062Q47.9625 101.52062 47.24375 100.63Q46.4 99.5675 46.4 97.14562ZM47.478127 97.14562Q47.478127 99.255 47.978127 99.95812Q48.478127 100.66125 49.196877 100.66125Q49.93125 100.66125 50.415627 99.95812Q50.915627 99.255 50.915627 97.14562Q50.915627 95.02062 50.415627 94.33312Q49.93125 93.63 49.18125 93.63Q48.4625 93.63 48.025 94.23937Q47.478127 95.02062 47.478127 97.14562ZM53.9625 101.38L53.9625 100.17687L55.165627 100.17687L55.165627 101.38Q55.165627 102.03625 54.93125 102.4425Q54.696877 102.86437 54.196877 103.08312L53.9 102.63Q54.228127 102.48937 54.384377 102.1925Q54.540627 101.91125 54.571877 101.38L53.9625 101.38ZM60.36875 101.38L59.321877 101.38L59.321877 94.66125Q58.93125 95.02062 58.30625 95.39562Q57.696877 95.755 57.2125 95.92687L57.2125 94.91125Q58.0875 94.48937 58.74375 93.91125Q59.415627 93.3175 59.696877 92.755L60.36875 92.755L60.36875 101.38ZM63.4 99.13L64.50938 99.03625Q64.63438 99.84875 65.07188 100.255Q65.525 100.66125 66.16563 100.66125Q66.91563 100.66125 67.44688 100.08312Q67.97813 99.505 67.97813 98.5675Q67.97813 97.66125 67.4625 97.14562Q66.9625 96.61437 66.13438 96.61437Q65.63438 96.61437 65.2125 96.84875Q64.80625 97.08312 64.57188 97.4425L63.5875 97.3175L64.41563 92.91125L68.69688 92.91125L68.69688 93.91125L65.25938 93.91125L64.80625 96.22375Q65.57188 95.67687 66.41563 95.67687Q67.54063 95.67687 68.30625 96.45812Q69.0875 97.23937 69.0875 98.47375Q69.0875 99.63 68.41563 100.48937Q67.5875 101.52062 66.16563 101.52062Q64.99375 101.52062 64.24375 100.86437Q63.509377 100.20812 63.4 99.13Z" fill-rule="nonzero"/><path fill="#000000" d="M46.4 58.905624Q46.4 57.374374 46.7125 56.4525Q47.025 55.515 47.634377 55.015Q48.259377 54.515 49.196877 54.515Q49.884377 54.515 50.4 54.79625Q50.93125 55.0775 51.275 55.60875Q51.61875 56.124374 51.80625 56.874374Q51.99375 57.624374 51.99375 58.905624Q51.99375 60.42125 51.68125 61.343124Q51.384377 62.265 50.759377 62.780624Q50.15 63.280624 49.196877 63.280624Q47.9625 63.280624 47.24375 62.39Q46.4 61.3275 46.4 58.905624ZM47.478127 58.905624Q47.478127 61.015 47.978127 61.718124Q48.478127 62.42125 49.196877 62.42125Q49.93125 62.42125 50.415627 61.718124Q50.915627 61.015 50.915627 58.905624Q50.915627 56.780624 50.415627 56.093124Q49.93125 55.39 49.18125 55.39Q48.4625 55.39 48.025 55.999374Q47.478127 56.780624 47.478127 58.905624ZM53.9625 63.14L53.9625 61.936874L55.165627 61.936874L55.165627 63.14Q55.165627 63.79625 54.93125 64.2025Q54.696877 64.624374 54.196877 64.843124L53.9 64.39Q54.228127 64.249374 54.384377 63.9525Q54.540627 63.67125 54.571877 63.14L53.9625 63.14ZM61.946877 62.124374L61.946877 63.14L56.259377 63.14Q56.259377 62.765 56.384377 62.405624Q56.603127 61.8275 57.071877 61.265Q57.55625 60.7025 58.4625 59.968124Q59.86875 58.811874 60.353127 58.14Q60.853127 57.468124 60.853127 56.874374Q60.853127 56.249374 60.4 55.8275Q59.946877 55.39 59.228127 55.39Q58.4625 55.39 58.009377 55.843124Q57.55625 56.29625 57.540627 57.10875L56.4625 56.999374Q56.571877 55.780624 57.290627 55.155624Q58.025 54.515 59.259377 54.515Q60.49375 54.515 61.2125 55.2025Q61.93125 55.89 61.93125 56.905624Q61.93125 57.42125 61.7125 57.92125Q61.509377 58.405624 61.009377 58.968124Q60.525 59.515 59.4 60.468124Q58.446877 61.265 58.165627 61.561874Q57.9 61.843124 57.728127 62.124374L61.946877 62.124374ZM63.4 58.905624Q63.4 57.374374 63.7125 56.4525Q64.025 55.515 64.63438 55.015Q65.25938 54.515 66.19688 54.515Q66.88438 54.515 67.4 54.79625Q67.93125 55.0775 68.275 55.60875Q68.61875 56.124374 68.80625 56.874374Q68.99375 57.624374 68.99375 58.905624Q68.99375 60.42125 68.68125 61.343124Q68.38438 62.265 67.75938 62.780624Q67.15 63.280624 66.19688 63.280624Q64.9625 63.280624 64.24375 62.39Q63.4 61.3275 63.4 58.905624ZM64.47813 58.905624Q64.47813 61.015 64.97813 61.718124Q65.47813 62.42125 66.19688 62.42125Q66.93125 62.42125 67.41563 61.718124Q67.91563 61.015 67.91563 58.905624Q67.91563 56.780624 67.41563 56.093124Q66.93125 55.39 66.18125 55.39Q65.4625 55.39 65.025 55.999374Q64.47813 56.780624 64.47813 58.905624Z" fill-rule="nonzero"/><path fill="#000000" d="M46.4 20.665625Q46.4 19.134375 46.7125 18.2125Q47.025 17.275 47.634377 16.775Q48.259377 16.275 49.196877 16.275Q49.884377 16.275 50.4 16.55625Q50.93125 16.8375 51.275 17.36875Q51.61875 17.884375 51.80625 18.634375Q51.99375 19.384375 51.99375 20.665625Q51.99375 22.18125 51.68125 23.103125Q51.384377 24.025 50.759377 24.540625Q50.15 25.040625 49.196877 25.040625Q47.9625 25.040625 47.24375 24.15Q46.4 23.0875 46.4 20.665625ZM47.478127 20.665625Q47.478127 22.775 47.978127 23.478125Q48.478127 24.18125 49.196877 24.18125Q49.93125 24.18125 50.415627 23.478125Q50.915627 22.775 50.915627 20.665625Q50.915627 18.540625 50.415627 17.853125Q49.93125 17.15 49.18125 17.15Q48.4625 17.15 48.025 17.759375Q47.478127 18.540625 47.478127 20.665625ZM53.9625 24.9L53.9625 23.696875L55.165627 23.696875L55.165627 24.9Q55.165627 25.55625 54.93125 25.9625Q54.696877 26.384375 54.196877 26.603125L53.9 26.15Q54.228127 26.009375 54.384377 25.7125Q54.540627 25.43125 54.571877 24.9L53.9625 24.9ZM61.946877 23.884375L61.946877 24.9L56.259377 24.9Q56.259377 24.525 56.384377 24.165625Q56.603127 23.5875 57.071877 23.025Q57.55625 22.4625 58.4625 21.728125Q59.86875 20.571875 60.353127 19.9Q60.853127 19.228125 60.853127 18.634375Q60.853127 18.009375 60.4 17.5875Q59.946877 17.15 59.228127 17.15Q58.4625 17.15 58.009377 17.603125Q57.55625 18.05625 57.540627 18.86875L56.4625 18.759375Q56.571877 17.540625 57.290627 16.915625Q58.025 16.275 59.259377 16.275Q60.49375 16.275 61.2125 16.9625Q61.93125 17.65 61.93125 18.665625Q61.93125 19.18125 61.7125 19.68125Q61.509377 20.165625 61.009377 20.728125Q60.525 21.275 59.4 22.228125Q58.446877 23.025 58.165627 23.321875Q57.9 23.603125 57.728127 23.884375L61.946877 23.884375ZM63.4 22.65L64.50938 22.55625Q64.63438 23.36875 65.07188 23.775Q65.525 24.18125 66.16563 24.18125Q66.91563 24.18125 67.44688 23.603125Q67.97813 23.025 67.97813 22.0875Q67.97813 21.18125 67.4625 20.665625Q66.9625 20.134375 66.13438 20.134375Q65.63438 20.134375 65.2125 20.36875Q64.80625 20.603125 64.57188 20.9625L63.5875 20.8375L64.41563 16.43125L68.69688 16.43125L68.69688 17.43125L65.25938 17.43125L64.80625 19.74375Q65.57188 19.196875 66.41563 19.196875Q67.54063 19.196875 68.30625 19.978125Q69.0875 20.759375 69.0875 21.99375Q69.0875 23.15 68.41563 24.009375Q67.5875 25.040625 66.16563 25.040625Q64.99375 25.040625 64.24375 24.384375Q63.509377 23.728125 63.4 22.65Z" fill-rule="nonzero"/><path fill="#000000" d="M88.81553 226.52188L88.81553 225.45938L92.06553 225.45938L92.06553 226.52188L88.81553 226.52188ZM96.90928 229.1L95.862404 229.1L95.862404 222.38126Q95.47178 222.74063 94.84678 223.11563Q94.237404 223.475 93.75303 223.64688L93.75303 222.63126Q94.62803 222.20938 95.28428 221.63126Q95.956154 221.0375 96.237404 220.475L96.90928 220.475L96.90928 229.1ZM99.94053 224.86563Q99.94053 223.33438 100.25303 222.4125Q100.56553 221.475 101.174904 220.975Q101.799904 220.475 102.737404 220.475Q103.424904 220.475 103.94053 220.75626Q104.47178 221.0375 104.81553 221.56876Q105.15928 222.08438 105.34678 222.83438Q105.53428 223.58438 105.53428 224.86563Q105.53428 226.38126 105.22178 227.30313Q104.924904 228.225 104.299904 228.74063Q103.69053 229.24063 102.737404 229.24063Q101.50303 229.24063 100.78428 228.35Q99.94053 227.2875 99.94053 224.86563ZM101.018654 224.86563Q101.018654 226.975 101.518654 227.67813Q102.018654 228.38126 102.737404 228.38126Q103.47178 228.38126 103.956154 227.67813Q104.456154 226.975 104.456154 224.86563Q104.456154 222.74063 103.956154 222.05313Q103.47178 221.35 102.72178 221.35Q102.00303 221.35 101.56553 221.95938Q101.018654 222.74063 101.018654 224.86563Z" fill-rule="nonzero"/><path fill="#000000" d="M124.227425 226.52188L124.227425 225.45938L127.477425 225.45938L127.477425 226.52188L124.227425 226.52188ZM129.97742 224.44376Q129.32117 224.19376 128.99304 223.75626Q128.68054 223.30313 128.68054 222.69376Q128.68054 221.75626 129.35242 221.11563Q130.03992 220.475 131.14929 220.475Q132.27429 220.475 132.96179 221.13126Q133.64929 221.7875 133.64929 222.725Q133.64929 223.31876 133.33679 223.75626Q133.02429 224.19376 132.38367 224.44376Q133.18054 224.69376 133.58679 225.27188Q133.99304 225.85 133.99304 226.64688Q133.99304 227.74063 133.21179 228.49063Q132.44617 229.24063 131.16492 229.24063Q129.89929 229.24063 129.11804 228.49063Q128.33679 227.74063 128.33679 226.61563Q128.33679 225.77188 128.75867 225.20938Q129.19617 224.64688 129.97742 224.44376ZM129.75867 222.64688Q129.75867 223.25626 130.14929 223.64688Q130.55554 224.0375 131.18054 224.0375Q131.78992 224.0375 132.18054 223.6625Q132.57117 223.27188 132.57117 222.70938Q132.57117 222.13126 132.16492 221.74063Q131.75867 221.33438 131.16492 221.33438Q130.55554 221.33438 130.14929 221.725Q129.75867 222.11563 129.75867 222.64688ZM129.43054 226.61563Q129.43054 227.06876 129.63367 227.49063Q129.85242 227.9125 130.27429 228.14688Q130.69617 228.38126 131.18054 228.38126Q131.93054 228.38126 132.41492 227.89688Q132.91492 227.4125 132.91492 226.6625Q132.91492 225.89688 132.41492 225.39688Q131.91492 224.89688 131.14929 224.89688Q130.39929 224.89688 129.91492 225.39688Q129.43054 225.88126 129.43054 226.61563Z" fill-rule="nonzero"/><path fill="#000000" d="M156.13931 226.52188L156.13931 225.45938L159.38931 225.45938L159.38931 226.52188L156.13931 226.52188ZM165.73306 222.61563L164.68619 222.69376Q164.54556 222.06876 164.29556 221.7875Q163.85806 221.33438 163.23306 221.33438Q162.73306 221.33438 162.34244 221.61563Q161.85806 221.99063 161.56119 222.69376Q161.27994 223.38126 161.26431 224.6625Q161.63931 224.08438 162.18619 223.80313Q162.74869 223.52188 163.35806 223.52188Q164.40494 223.52188 165.13931 224.30313Q165.88931 225.08438 165.88931 226.30313Q165.88931 227.11563 165.52994 227.81876Q165.18619 228.50626 164.57681 228.88126Q163.96744 229.24063 163.20181 229.24063Q161.87369 229.24063 161.04556 228.27188Q160.21744 227.30313 160.21744 225.08438Q160.21744 222.58438 161.13931 221.45938Q161.93619 220.475 163.29556 220.475Q164.31119 220.475 164.95181 221.05313Q165.60806 221.61563 165.73306 222.61563ZM161.43619 226.31876Q161.43619 226.86563 161.65494 227.36563Q161.88931 227.85 162.29556 228.11563Q162.71744 228.38126 163.18619 228.38126Q163.84244 228.38126 164.32681 227.85Q164.81119 227.30313 164.81119 226.38126Q164.81119 225.49063 164.32681 224.975Q163.85806 224.45938 163.13931 224.45938Q162.42056 224.45938 161.92056 224.975Q161.43619 225.49063 161.43619 226.31876Z" fill-rule="nonzero"/><path fill="#000000" d="M188.05121 226.52188L188.05121 225.45938L191.30121 225.45938L191.30121 226.52188L188.05121 226.52188ZM195.55121 229.1L195.55121 227.0375L191.83246 227.0375L191.83246 226.06876L195.75433 220.50626L196.61371 220.50626L196.61371 226.06876L197.76996 226.06876L197.76996 227.0375L196.61371 227.0375L196.61371 229.1L195.55121 229.1ZM195.55121 226.06876L195.55121 222.20938L192.86371 226.06876L195.55121 226.06876Z" fill-rule="nonzero"/><path fill="#000000" d="M219.9631 226.52188L219.9631 225.45938L223.2131 225.45938L223.2131 226.52188L219.9631 226.52188ZM229.63498 228.08438L229.63498 229.1L223.94748 229.1Q223.94748 228.725 224.07248 228.36563Q224.29123 227.7875 224.75998 227.225Q225.24435 226.6625 226.1506 225.92813Q227.55685 224.77188 228.04123 224.1Q228.54123 223.42813 228.54123 222.83438Q228.54123 222.20938 228.0881 221.7875Q227.63498 221.35 226.91623 221.35Q226.1506 221.35 225.69748 221.80313Q225.24435 222.25626 225.22873 223.06876L224.1506 222.95938Q224.25998 221.74063 224.97873 221.11563Q225.7131 220.475 226.94748 220.475Q228.18185 220.475 228.9006 221.1625Q229.61935 221.85 229.61935 222.86563Q229.61935 223.38126 229.4006 223.88126Q229.19748 224.36563 228.69748 224.92813Q228.2131 225.475 227.0881 226.42813Q226.13498 227.225 225.85373 227.52188Q225.5881 227.80313 225.41623 228.08438L229.63498 228.08438Z" fill-rule="nonzero"/><path fill="#000000" d="M254.0 224.86563Q254.0 223.33438 254.3125 222.4125Q254.625 221.475 255.23438 220.975Q255.85938 220.475 256.79688 220.475Q257.48438 220.475 258.0 220.75626Q258.53125 221.0375 258.875 221.56876Q259.21875 222.08438 259.40625 222.83438Q259.59375 223.58438 259.59375 224.86563Q259.59375 226.38126 259.28125 227.30313Q258.98438 228.225 258.35938 228.74063Q257.75 229.24063 256.79688 229.24063Q255.5625 229.24063 254.84375 228.35Q254.0 227.2875 254.0 224.86563ZM255.07812 224.86563Q255.07812 226.975 255.57812 227.67813Q256.07812 228.38126 256.79688 228.38126Q257.53125 228.38126 258.01562 227.67813Q258.51562 226.975 258.51562 224.86563Q258.51562 222.74063 258.01562 222.05313Q257.53125 221.35 256.78125 221.35Q256.0625 221.35 255.625 221.95938Q255.07812 222.74063 255.07812 224.86563Z" fill-rule="nonzero"/><path fill="#000000" d="M291.45877 228.08438L291.45877 229.1L285.77127 229.1Q285.77127 228.725 285.89627 228.36563Q286.11502 227.7875 286.58377 227.225Q287.06815 226.6625 287.9744 225.92813Q289.38065 224.77188 289.86502 224.1Q290.36502 223.42813 290.36502 222.83438Q290.36502 222.20938 289.9119 221.7875Q289.45877 221.35 288.74002 221.35Q287.9744 221.35 287.52127 221.80313Q287.06815 222.25626 287.05252 223.06876L285.9744 222.95938Q286.08377 221.74063 286.80252 221.11563Q287.5369 220.475 288.77127 220.475Q290.00565 220.475 290.7244 221.1625Q291.44315 221.85 291.44315 222.86563Q291.44315 223.38126 291.2244 223.88126Q291.02127 224.36563 290.52127 224.92813Q290.0369 225.475 288.9119 226.42813Q287.95877 227.225 287.67752 227.52188Q287.4119 227.80313 287.24002 228.08438L291.45877 228.08438Z" fill-rule="nonzero"/><path fill="#000000" d="M321.1988 229.1L321.1988 227.0375L317.48004 227.0375L317.48004 226.06876L321.40192 220.50626L322.2613 220.50626L322.2613 226.06876L323.41754 226.06876L323.41754 227.0375L322.2613 227.0375L322.2613 229.1L321.1988 229.1ZM321.1988 226.06876L321.1988 222.20938L318.5113 226.06876L321.1988 226.06876Z" fill-rule="nonzero"/><path fill="#000000" d="M355.20444 222.61563L354.15756 222.69376Q354.01694 222.06876 353.76694 221.7875Q353.32944 221.33438 352.70444 221.33438Q352.20444 221.33438 351.8138 221.61563Q351.32944 221.99063 351.03256 222.69376Q350.7513 223.38126 350.7357 224.6625Q351.1107 224.08438 351.65756 223.80313Q352.22006 223.52188 352.82944 223.52188Q353.8763 223.52188 354.6107 224.30313Q355.3607 225.08438 355.3607 226.30313Q355.3607 227.11563 355.0013 227.81876Q354.65756 228.50626 354.0482 228.88126Q353.4388 229.24063 352.6732 229.24063Q351.34506 229.24063 350.51694 228.27188Q349.6888 227.30313 349.6888 225.08438Q349.6888 222.58438 350.6107 221.45938Q351.40756 220.475 352.76694 220.475Q353.78256 220.475 354.4232 221.05313Q355.07944 221.61563 355.20444 222.61563ZM350.90756 226.31876Q350.90756 226.86563 351.1263 227.36563Q351.3607 227.85 351.76694 228.11563Q352.1888 228.38126 352.65756 228.38126Q353.3138 228.38126 353.7982 227.85Q354.28256 227.30313 354.28256 226.38126Q354.28256 225.49063 353.7982 224.975Q353.32944 224.45938 352.6107 224.45938Q351.89194 224.45938 351.39194 224.975Q350.90756 225.49063 350.90756 226.31876Z" fill-rule="nonzero"/><path fill="#000000" d="M383.27258 224.44376Q382.61633 224.19376 382.2882 223.75626Q381.9757 223.30313 381.9757 222.69376Q381.9757 221.75626 382.64758 221.11563Q383.33508 220.475 384.44446 220.475Q385.56946 220.475 386.25696 221.13126Q386.94446 221.7875 386.94446 222.725Q386.94446 223.31876 386.63196 223.75626Q386.31946 224.19376 385.67883 224.44376Q386.4757 224.69376 386.88196 225.27188Q387.2882 225.85 387.2882 226.64688Q387.2882 227.74063 386.50696 228.49063Q385.74133 229.24063 384.46008 229.24063Q383.19446 229.24063 382.4132 228.49063Q381.63196 227.74063 381.63196 226.61563Q381.63196 225.77188 382.05383 225.20938Q382.49133 224.64688 383.27258 224.44376ZM383.05383 222.64688Q383.05383 223.25626 383.44446 223.64688Q383.8507 224.0375 384.4757 224.0375Q385.08508 224.0375 385.4757 223.6625Q385.86633 223.27188 385.86633 222.70938Q385.86633 222.13126 385.46008 221.74063Q385.05383 221.33438 384.46008 221.33438Q383.8507 221.33438 383.44446 221.725Q383.05383 222.11563 383.05383 222.64688ZM382.7257 226.61563Q382.7257 227.06876 382.92883 227.49063Q383.14758 227.9125 383.56946 228.14688Q383.99133 228.38126 384.4757 228.38126Q385.2257 228.38126 385.71008 227.89688Q386.21008 227.4125 386.21008 226.6625Q386.21008 225.89688 385.71008 225.39688Q385.21008 224.89688 384.44446 224.89688Q383.69446 224.89688 383.21008 225.39688Q382.7257 225.88126 382.7257 226.61563Z" fill-rule="nonzero"/><path fill="#000000" d="M414.02823 229.1L412.98135 229.1L412.98135 222.38126Q412.59073 222.74063 411.96573 223.11563Q411.35635 223.475 410.87198 223.64688L410.87198 222.63126Q411.74698 222.20938 412.40323 221.63126Q413.0751 221.0375 413.35635 220.475L414.02823 220.475L414.02823 229.1ZM417.05948 224.86563Q417.05948 223.33438 417.37198 222.4125Q417.68448 221.475 418.29385 220.975Q418.91885 220.475 419.85635 220.475Q420.54385 220.475 421.05948 220.75626Q421.59073 221.0375 421.93448 221.56876Q422.27823 222.08438 422.46573 222.83438Q422.65323 223.58438 422.65323 224.86563Q422.65323 226.38126 422.34073 227.30313Q422.04385 228.225 421.41885 228.74063Q420.80948 229.24063 419.85635 229.24063Q418.62198 229.24063 417.90323 228.35Q417.05948 227.2875 417.05948 224.86563ZM418.1376 224.86563Q418.1376 226.975 418.6376 227.67813Q419.1376 228.38126 419.85635 228.38126Q420.59073 228.38126 421.0751 227.67813Q421.5751 226.975 421.5751 224.86563Q421.5751 222.74063 421.0751 222.05313Q420.59073 221.35 419.84073 221.35Q419.12198 221.35 418.68448 221.95938Q418.1376 222.74063 418.1376 224.86563Z" fill-rule="nonzero"/></svg>