<svg version="1.1" viewBox="0.0 0.0 456.0 278.0" fill="none" stroke="none" stroke-linecap="square" stroke-miterlimit="10" width="456" height="278" xmlns:xlink="http://www.w3.org/1999/xlink" xmlns="http://www.w3.org/2000/svg"><path fill="#ffffff" d="M0 0L456.0 0L456.0 278.0L0 278.0L0 0Z" fill-rule="nonzero"/><path stroke="#333333" stroke-width="1.0" stroke-linecap="butt" d="M81.5 204.5L442.5 204.5" fill-rule="nonzero"/><path stroke="#efefef" stroke-width="1.0" stroke-linecap="butt" d="M81.5 167.5L442.5 167.5" fill-rule="nonzero"/><path stroke="#efefef" stroke-width="1.0" stroke-linecap="butt" d="M81.5 131.5L442.5 131.5" fill-rule="nonzero"/><path stroke="#efefef" stroke-width="1.0" stroke-linecap="butt" d="M81.5 94.5L442.5 94.5" fill-rule="nonzero"/><path stroke="#efefef" stroke-width="1.0" stroke-linecap="butt" d="M81.5 58.5L442.5 58.5" fill-rule="nonzero"/><path stroke="#efefef" stroke-width="1.0" stroke-linecap="butt" d="M81.5 21.5L442.5 21.5" fill-rule="nonzero"/><clipPath id="id_0"><path d="M81.9 21.9L442.1 21.9L442.1 204.1L81.9 204.1L81.9 21.9Z" clip-rule="nonzero"/></clipPath><path stroke="#001128" stroke-width="1.0" stroke-linecap="butt" stroke-opacity="0.14901961" clip-path="url(#id_0)" d="M189.0 204.0L119.0 204.0L119.0 115.0C119.0 113.89543 119.89543 113.0 121.0 113.0L187.0 113.0C188.10457 113.0 189.0 113.89543 189.0 115.0Z" fill-rule="nonzero"/><path fill="#001128" fill-opacity="0.101960786" clip-path="url(#id_0)" d="M189.0 204.0L119.0 204.0L119.0 115.0C119.0 113.89543 119.89543 113.0 121.0 113.0L187.0 113.0C188.10457 113.0 189.0 113.89543 189.0 115.0Z" fill-rule="nonzero"/><path stroke="#000000" stroke-width="1.0" stroke-linecap="butt" stroke-opacity="0.14901961" clip-path="url(#id_0)" d="M297.0 204.0L227.0 204.0L227.0 24.0C227.0 22.89543 227.89543 22.0 229.0 22.0L295.0 22.0C296.10458 22.0 297.0 22.89543 297.0 24.0Z" fill-rule="nonzero"/><path fill="#001128" fill-opacity="0.101960786" clip-path="url(#id_0)" d="M297.0 204.0L227.0 204.0L227.0 24.0C227.0 22.89543 227.89543 22.0 229.0 22.0L295.0 22.0C296.10458 22.0 297.0 22.89543 297.0 24.0Z" fill-rule="nonzero"/><path stroke="#000000" stroke-width="1.0" stroke-linecap="butt" stroke-opacity="0.14901961" clip-path="url(#id_0)" d="M405.0 204.0L335.0 204.0L335.0 115.0C335.0 113.89543 335.89542 113.0 337.0 113.0L403.0 113.0C404.10458 113.0 405.0 113.89543 405.0 115.0Z" fill-rule="nonzero"/><path fill="#001128" fill-opacity="0.101960786" clip-path="url(#id_0)" d="M405.0 204.0L335.0 204.0L335.0 115.0C335.0 113.89543 335.89542 113.0 337.0 113.0L403.0 113.0C404.10458 113.0 405.0 113.89543 405.0 115.0Z" fill-rule="nonzero"/><path fill="#000000" d="M220.57812 261.1L220.57812 251.08438L224.35938 251.08438Q225.35938 251.08438 225.89062 251.17813Q226.625 251.30313 227.125 251.64688Q227.625 251.99063 227.92188 252.61563Q228.23438 253.225 228.23438 253.975Q228.23438 255.25626 227.42188 256.14688Q226.60938 257.02188 224.48438 257.02188L221.90625 257.02188L221.90625 261.1L220.57812 261.1ZM221.90625 255.85L224.5 255.85Q225.78125 255.85 226.3125 255.36563Q226.85938 254.88126 226.85938 254.02188Q226.85938 253.38126 226.54688 252.94376Q226.23438 252.49063 225.70312 252.35Q225.375 252.25626 224.46875 252.25626L221.90625 252.25626L221.90625 255.85ZM228.96875 257.475Q228.96875 255.45938 230.09375 254.475Q231.01562 253.67813 232.375 253.67813Q233.85938 253.67813 234.8125 254.6625Q235.76562 255.63126 235.76562 257.36563Q235.76562 258.77188 235.34375 259.58438Q234.92188 260.38126 234.10938 260.83438Q233.3125 261.27188 232.375 261.27188Q230.84375 261.27188 229.90625 260.2875Q228.96875 259.30313 228.96875 257.475ZM230.23438 257.475Q230.23438 258.86563 230.84375 259.56876Q231.45312 260.25626 232.375 260.25626Q233.28125 260.25626 233.89062 259.55313Q234.5 258.85 234.5 257.42813Q234.5 256.08438 233.89062 255.39688Q233.28125 254.69376 232.375 254.69376Q231.45312 254.69376 230.84375 255.38126Q230.23438 256.06876 230.23438 257.475ZM236.9375 258.92813L238.14062 258.74063Q238.25 259.475 238.71875 259.86563Q239.1875 260.25626 240.03125 260.25626Q240.875 260.25626 241.28125 259.9125Q241.70312 259.56876 241.70312 259.1Q241.70312 258.67813 241.32812 258.44376Q241.07812 258.27188 240.07812 258.02188Q238.71875 257.67813 238.1875 257.42813Q237.67188 257.17813 237.40625 256.74063Q237.14062 256.30313 237.14062 255.77188Q237.14062 255.2875 237.35938 254.88126Q237.57812 254.45938 237.96875 254.17813Q238.25 253.975 238.73438 253.83438Q239.23438 253.67813 239.8125 253.67813Q240.65625 253.67813 241.29688 253.92813Q241.95312 254.1625 242.26562 254.58438Q242.57812 255.00626 242.6875 255.70938L241.48438 255.88126Q241.40625 255.31876 241.0 255.00626Q240.60938 254.69376 239.89062 254.69376Q239.04688 254.69376 238.6875 254.975Q238.32812 255.24063 238.32812 255.63126Q238.32812 255.86563 238.46875 256.05313Q238.625 256.25626 238.95312 256.38126Q239.125 256.44376 240.03125 256.69376Q241.34375 257.05313 241.85938 257.27188Q242.375 257.49063 242.65625 257.9125Q242.95312 258.33438 242.95312 258.95938Q242.95312 259.58438 242.59375 260.13126Q242.25 260.6625 241.5625 260.975Q240.89062 261.27188 240.03125 261.27188Q238.625 261.27188 237.875 260.67813Q237.14062 260.08438 236.9375 258.92813ZM244.4375 252.49063L244.4375 251.08438L245.65625 251.08438L245.65625 252.49063L244.4375 252.49063ZM244.4375 261.1L244.4375 253.83438L245.65625 253.83438L245.65625 261.1L244.4375 261.1ZM252.15625 258.44376L253.375 258.6Q253.17188 259.85 252.34375 260.56876Q251.53125 261.27188 250.34375 261.27188Q248.85938 261.27188 247.95312 260.30313Q247.04688 259.31876 247.04688 257.49063Q247.04688 256.31876 247.4375 255.44376Q247.82812 254.55313 248.625 254.11563Q249.42188 253.67813 250.35938 253.67813Q251.53125 253.67813 252.28125 254.27188Q253.04688 254.86563 253.25 255.975L252.0625 256.1625Q251.89062 255.42813 251.45312 255.06876Q251.01562 254.69376 250.40625 254.69376Q249.46875 254.69376 248.89062 255.36563Q248.3125 256.02188 248.3125 257.45938Q248.3125 258.92813 248.875 259.6Q249.4375 260.25626 250.32812 260.25626Q251.0625 260.25626 251.54688 259.81876Q252.03125 259.36563 252.15625 258.44376ZM249.3125 262.00626L249.65625 260.80313L250.57812 260.80313L250.34375 261.5375Q250.9375 261.6 251.21875 261.88126Q251.51562 262.17813 251.51562 262.5375Q251.51562 263.05313 251.01562 263.44376Q250.53125 263.83438 249.54688 263.83438Q248.98438 263.83438 248.5625 263.75626L248.64062 262.95938Q249.07812 262.99063 249.28125 262.99063Q249.92188 262.99063 250.1875 262.80313Q250.375 262.6625 250.375 262.475Q250.375 262.35 250.29688 262.25626Q250.21875 262.1625 250.0 262.08438Q249.79688 262.02188 249.3125 262.00626ZM259.15625 260.20938Q258.48438 260.7875 257.84375 261.0375Q257.21875 261.27188 256.48438 261.27188Q255.29688 261.27188 254.64062 260.69376Q254.0 260.1 254.0 259.17813Q254.0 258.64688 254.23438 258.20938Q254.48438 257.77188 254.875 257.50626Q255.28125 257.24063 255.76562 257.1Q256.125 257.00626 256.85938 256.9125Q258.35938 256.74063 259.0625 256.49063Q259.0625 256.24063 259.0625 256.17813Q259.0625 255.4125 258.71875 255.11563Q258.25 254.69376 257.3125 254.69376Q256.45312 254.69376 256.03125 255.00626Q255.625 255.30313 255.42188 256.06876L254.21875 255.9125Q254.375 255.13126 254.75 254.6625Q255.14062 254.19376 255.84375 253.94376Q256.5625 253.67813 257.5 253.67813Q258.42188 253.67813 259.0 253.89688Q259.57812 254.11563 259.84375 254.44376Q260.125 254.77188 260.23438 255.2875Q260.29688 255.6 260.29688 256.4125L260.29688 258.05313Q260.29688 259.77188 260.375 260.225Q260.45312 260.67813 260.6875 261.1L259.40625 261.1Q259.21875 260.70938 259.15625 260.20938ZM259.0625 257.45938Q258.39062 257.725 257.04688 257.92813Q256.29688 258.0375 255.96875 258.17813Q255.65625 258.30313 255.48438 258.56876Q255.3125 258.83438 255.3125 259.14688Q255.3125 259.64688 255.6875 259.975Q256.0625 260.30313 256.78125 260.30313Q257.5 260.30313 258.04688 259.99063Q258.59375 259.67813 258.85938 259.13126Q259.0625 258.725 259.0625 257.9125L259.0625 257.45938ZM255.0625 252.77188Q255.0625 252.05313 255.45312 251.63126Q255.84375 251.20938 256.45312 251.20938Q256.875 251.20938 257.60938 251.58438Q258.01562 251.7875 258.25 251.7875Q258.46875 251.7875 258.57812 251.6625Q258.70312 251.5375 258.75 251.19376L259.64062 251.19376Q259.60938 251.95938 259.23438 252.35Q258.875 252.74063 258.29688 252.74063Q257.85938 252.74063 257.15625 252.36563Q256.70312 252.11563 256.5 252.11563Q256.26562 252.11563 256.10938 252.2875Q255.96875 252.44376 255.96875 252.77188L255.0625 252.77188ZM261.96875 257.475Q261.96875 255.45938 263.09375 254.475Q264.01562 253.67813 265.375 253.67813Q266.85938 253.67813 267.8125 254.6625Q268.76562 255.63126 268.76562 257.36563Q268.76562 258.77188 268.34375 259.58438Q267.92188 260.38126 267.10938 260.83438Q266.3125 261.27188 265.375 261.27188Q263.84375 261.27188 262.90625 260.2875Q261.96875 259.30313 261.96875 257.475ZM263.23438 257.475Q263.23438 258.86563 263.84375 259.56876Q264.45312 260.25626 265.375 260.25626Q266.28125 260.25626 266.89062 259.55313Q267.5 258.85 267.5 257.42813Q267.5 256.08438 266.89062 255.39688Q266.28125 254.69376 265.375 254.69376Q264.45312 254.69376 263.84375 255.38126Q263.23438 256.06876 263.23438 257.475ZM274.65625 261.1L274.65625 251.08438L281.40625 251.08438L281.40625 252.25626L275.96875 252.25626L275.96875 255.36563L280.67188 255.36563L280.67188 256.55313L275.96875 256.55313L275.96875 261.1L274.65625 261.1ZM283.4375 252.49063L283.4375 251.08438L284.65625 251.08438L284.65625 252.49063L283.4375 252.49063ZM283.4375 261.1L283.4375 253.83438L284.65625 253.83438L284.65625 261.1L283.4375 261.1ZM286.42188 261.1L286.42188 253.83438L287.53125 253.83438L287.53125 254.86563Q288.32812 253.67813 289.84375 253.67813Q290.5 253.67813 291.04688 253.9125Q291.59375 254.14688 291.85938 254.5375Q292.14062 254.9125 292.25 255.44376Q292.32812 255.7875 292.32812 256.63126L292.32812 261.1L291.09375 261.1L291.09375 256.67813Q291.09375 255.92813 290.95312 255.56876Q290.8125 255.19376 290.4375 254.975Q290.07812 254.74063 289.57812 254.74063Q288.79688 254.74063 288.21875 255.24063Q287.65625 255.74063 287.65625 257.13126L287.65625 261.1L286.42188 261.1ZM299.15625 260.20938Q298.48438 260.7875 297.84375 261.0375Q297.21875 261.27188 296.48438 261.27188Q295.29688 261.27188 294.64062 260.69376Q294.0 260.1 294.0 259.17813Q294.0 258.64688 294.23438 258.20938Q294.48438 257.77188 294.875 257.50626Q295.28125 257.24063 295.76562 257.1Q296.125 257.00626 296.85938 256.9125Q298.35938 256.74063 299.0625 256.49063Q299.0625 256.24063 299.0625 256.17813Q299.0625 255.4125 298.71875 255.11563Q298.25 254.69376 297.3125 254.69376Q296.45312 254.69376 296.03125 255.00626Q295.625 255.30313 295.42188 256.06876L294.21875 255.9125Q294.375 255.13126 294.75 254.6625Q295.14062 254.19376 295.84375 253.94376Q296.5625 253.67813 297.5 253.67813Q298.42188 253.67813 299.0 253.89688Q299.57812 254.11563 299.84375 254.44376Q300.125 254.77188 300.23438 255.2875Q300.29688 255.6 300.29688 256.4125L300.29688 258.05313Q300.29688 259.77188 300.375 260.225Q300.45312 260.67813 300.6875 261.1L299.40625 261.1Q299.21875 260.70938 299.15625 260.20938ZM299.0625 257.45938Q298.39062 257.725 297.04688 257.92813Q296.29688 258.0375 295.96875 258.17813Q295.65625 258.30313 295.48438 258.56876Q295.3125 258.83438 295.3125 259.14688Q295.3125 259.64688 295.6875 259.975Q296.0625 260.30313 296.78125 260.30313Q297.5 260.30313 298.04688 259.99063Q298.59375 259.67813 298.85938 259.13126Q299.0625 258.725 299.0625 257.9125L299.0625 257.45938ZM302.39062 261.1L302.39062 251.08438L303.625 251.08438L303.625 261.1L302.39062 261.1Z" fill-rule="nonzero"/><path fill="#000000" d="M26.900005 162.92188L16.88438 162.92188L16.88438 159.14062Q16.88438 158.14062 16.97813 157.60938Q17.10313 156.875 17.44688 156.375Q17.79063 155.875 18.41563 155.57812Q19.025005 155.26562 19.775005 155.26562Q21.056255 155.26562 21.94688 156.07812Q22.82188 156.89062 22.82188 159.01562L22.82188 161.59375L26.900005 161.59375L26.900005 162.92188ZM21.650005 161.59375L21.650005 159.0Q21.650005 157.71875 21.16563 157.1875Q20.681255 156.64062 19.82188 156.64062Q19.181255 156.64062 18.743755 156.95312Q18.29063 157.26562 18.150005 157.79688Q18.056255 158.125 18.056255 159.03125L18.056255 161.59375L21.650005 161.59375ZM26.900005 154.09375L19.63438 154.09375L19.63438 152.98438L20.743755 152.98438Q19.962505 152.5625 19.72813 152.20312Q19.47813 151.84375 19.47813 151.40625Q19.47813 150.78125 19.868755 150.14062L21.00938 150.5625Q20.743755 151.01562 20.743755 151.46875Q20.743755 151.875 20.993755 152.20312Q21.22813 152.51562 21.66563 152.65625Q22.32188 152.85938 23.10313 152.85938L26.900005 152.85938L26.900005 154.09375ZM23.275005 149.53125Q21.25938 149.53125 20.275005 148.40625Q19.47813 147.48438 19.47813 146.125Q19.47813 144.64062 20.462505 143.6875Q21.431255 142.73438 23.16563 142.73438Q24.57188 142.73438 25.38438 143.15625Q26.181255 143.57812 26.63438 144.39062Q27.07188 145.1875 27.07188 146.125Q27.07188 147.65625 26.087505 148.59375Q25.10313 149.53125 23.275005 149.53125ZM23.275005 148.26562Q24.66563 148.26562 25.368755 147.65625Q26.056255 147.04688 26.056255 146.125Q26.056255 145.21875 25.35313 144.60938Q24.650005 144.0 23.22813 144.0Q21.88438 144.0 21.19688 144.60938Q20.493755 145.21875 20.493755 146.125Q20.493755 147.04688 21.181255 147.65625Q21.868755 148.26562 23.275005 148.26562ZM26.900005 139.9375L26.900005 141.07812L16.88438 141.07812L16.88438 139.85938L20.44688 139.85938Q19.47813 139.07812 19.47813 137.85938Q19.47813 137.1875 19.743755 136.59375Q20.00938 136.0 20.50938 135.60938Q20.993755 135.21875 21.681255 135.0Q22.368755 134.78125 23.16563 134.78125Q25.025005 134.78125 26.056255 135.71875Q27.07188 136.64062 27.07188 137.92188Q27.07188 139.20312 25.993755 139.9375L26.900005 139.9375ZM23.212505 139.95312Q24.525005 139.95312 25.10313 139.59375Q26.056255 139.01562 26.056255 138.03125Q26.056255 137.21875 25.35313 136.64062Q24.650005 136.04688 23.25938 136.04688Q21.837505 136.04688 21.16563 136.60938Q20.493755 137.17188 20.493755 137.96875Q20.493755 138.78125 21.19688 139.375Q21.88438 139.95312 23.212505 139.95312ZM26.00938 128.34375Q26.587505 129.01562 26.837505 129.65625Q27.07188 130.28125 27.07188 131.01562Q27.07188 132.20312 26.493755 132.85938Q25.900005 133.5 24.97813 133.5Q24.44688 133.5 24.00938 133.26562Q23.57188 133.01562 23.306255 132.625Q23.04063 132.21875 22.900005 131.73438Q22.806255 131.375 22.712505 130.64062Q22.54063 129.14062 22.29063 128.4375Q22.04063 128.4375 21.97813 128.4375Q21.212505 128.4375 20.91563 128.78125Q20.493755 129.25 20.493755 130.1875Q20.493755 131.04688 20.806255 131.46875Q21.10313 131.875 21.868755 132.07812L21.712505 133.28125Q20.931255 133.125 20.462505 132.75Q19.993755 132.35938 19.743755 131.65625Q19.47813 130.9375 19.47813 130.0Q19.47813 129.07812 19.69688 128.5Q19.91563 127.921875 20.243755 127.65625Q20.57188 127.375 21.087505 127.265625Q21.400005 127.203125 22.212505 127.203125L23.85313 127.203125Q25.57188 127.203125 26.025005 127.125Q26.47813 127.046875 26.900005 126.8125L26.900005 128.09375Q26.50938 128.28125 26.00938 128.34375ZM23.25938 128.4375Q23.525005 129.10938 23.72813 130.45312Q23.837505 131.20312 23.97813 131.53125Q24.10313 131.84375 24.368755 132.01562Q24.63438 132.1875 24.94688 132.1875Q25.44688 132.1875 25.775005 131.8125Q26.10313 131.4375 26.10313 130.71875Q26.10313 130.0 25.79063 129.45312Q25.47813 128.90625 24.931255 128.64062Q24.525005 128.4375 23.712505 128.4375L23.25938 128.4375ZM26.900005 123.9375L26.900005 125.078125L16.88438 125.078125L16.88438 123.859375L20.44688 123.859375Q19.47813 123.078125 19.47813 121.859375Q19.47813 121.1875 19.743755 120.59375Q20.00938 120.0 20.50938 119.609375Q20.993755 119.21875 21.681255 119.0Q22.368755 118.78125 23.16563 118.78125Q25.025005 118.78125 26.056255 119.71875Q27.07188 120.640625 27.07188 121.921875Q27.07188 123.203125 25.993755 123.9375L26.900005 123.9375ZM23.212505 123.953125Q24.525005 123.953125 25.10313 123.59375Q26.056255 123.015625 26.056255 122.03125Q26.056255 121.21875 25.35313 120.640625Q24.650005 120.046875 23.25938 120.046875Q21.837505 120.046875 21.16563 120.609375Q20.493755 121.171875 20.493755 121.96875Q20.493755 122.78125 21.19688 123.375Q21.88438 123.953125 23.212505 123.953125ZM18.29063 117.0625L16.88438 117.0625L16.88438 115.84375L18.29063 115.84375L18.29063 117.0625ZM26.900005 117.0625L19.63438 117.0625L19.63438 115.84375L26.900005 115.84375L26.900005 117.0625ZM26.900005 114.109375L16.88438 114.109375L16.88438 112.875L26.900005 112.875L26.900005 114.109375ZM18.29063 111.0625L16.88438 111.0625L16.88438 109.84375L18.29063 109.84375L18.29063 111.0625ZM26.900005 111.0625L19.63438 111.0625L19.63438 109.84375L26.900005 109.84375L26.900005 111.0625ZM26.900005 103.359375L25.97813 103.359375Q27.07188 104.0625 27.07188 105.390625Q27.07188 106.265625 26.587505 107.0Q26.10313 107.71875 25.243755 108.125Q24.38438 108.515625 23.275005 108.515625Q22.19688 108.515625 21.306255 108.15625Q20.41563 107.796875 19.94688 107.078125Q19.47813 106.34375 19.47813 105.453125Q19.47813 104.796875 19.75938 104.28125Q20.025005 103.765625 20.47813 103.453125L16.88438 103.453125L16.88438 102.21875L26.900005 102.21875L26.900005 103.359375ZM23.275005 107.25Q24.66563 107.25 25.368755 106.671875Q26.056255 106.078125 26.056255 105.28125Q26.056255 104.46875 25.400005 103.90625Q24.72813 103.34375 23.38438 103.34375Q21.88438 103.34375 21.19688 103.921875Q20.493755 104.5 20.493755 105.328125Q20.493755 106.15625 21.16563 106.703125Q21.837505 107.25 23.275005 107.25ZM26.00938 95.34375Q26.587505 96.015625 26.837505 96.65625Q27.07188 97.28125 27.07188 98.015625Q27.07188 99.203125 26.493755 99.859375Q25.900005 100.5 24.97813 100.5Q24.44688 100.5 24.00938 100.265625Q23.57188 100.015625 23.306255 99.625Q23.04063 99.21875 22.900005 98.734375Q22.806255 98.375 22.712505 97.640625Q22.54063 96.140625 22.29063 95.4375Q22.04063 95.4375 21.97813 95.4375Q21.212505 95.4375 20.91563 95.78125Q20.493755 96.25 20.493755 97.1875Q20.493755 98.046875 20.806255 98.46875Q21.10313 98.875 21.868755 99.078125L21.712505 100.28125Q20.931255 100.125 20.462505 99.75Q19.993755 99.359375 19.743755 98.65625Q19.47813 97.9375 19.47813 97.0Q19.47813 96.078125 19.69688 95.5Q19.91563 94.921875 20.243755 94.65625Q20.57188 94.375 21.087505 94.265625Q21.400005 94.203125 22.212505 94.203125L23.85313 94.203125Q25.57188 94.203125 26.025005 94.125Q26.47813 94.046875 26.900005 93.8125L26.900005 95.09375Q26.50938 95.28125 26.00938 95.34375ZM23.25938 95.4375Q23.525005 96.109375 23.72813 97.453125Q23.837505 98.203125 23.97813 98.53125Q24.10313 98.84375 24.368755 99.015625Q24.63438 99.1875 24.94688 99.1875Q25.44688 99.1875 25.775005 98.8125Q26.10313 98.4375 26.10313 97.71875Q26.10313 97.0 25.79063 96.453125Q25.47813 95.90625 24.931255 95.640625Q24.525005 95.4375 23.712505 95.4375L23.25938 95.4375ZM26.900005 87.359375L25.97813 87.359375Q27.07188 88.0625 27.07188 89.390625Q27.07188 90.265625 26.587505 91.0Q26.10313 91.71875 25.243755 92.125Q24.38438 92.515625 23.275005 92.515625Q22.19688 92.515625 21.306255 92.15625Q20.41563 91.796875 19.94688 91.078125Q19.47813 90.34375 19.47813 89.453125Q19.47813 88.796875 19.75938 88.28125Q20.025005 87.765625 20.47813 87.453125L16.88438 87.453125L16.88438 86.21875L26.900005 86.21875L26.900005 87.359375ZM23.275005 91.25Q24.66563 91.25 25.368755 90.671875Q26.056255 90.078125 26.056255 89.28125Q26.056255 88.46875 25.400005 87.90625Q24.72813 87.34375 23.38438 87.34375Q21.88438 87.34375 21.19688 87.921875Q20.493755 88.5 20.493755 89.328125Q20.493755 90.15625 21.16563 90.703125Q21.837505 91.25 23.275005 91.25ZM24.556255 79.109375L24.712505 77.828125Q25.837505 78.140625 26.462505 78.953125Q27.07188 79.765625 27.07188 81.03125Q27.07188 82.625 26.087505 83.5625Q25.10313 84.484375 23.337505 84.484375Q21.493755 84.484375 20.493755 83.546875Q19.47813 82.59375 19.47813 81.09375Q19.47813 79.640625 20.47813 78.71875Q21.462505 77.796875 23.25938 77.796875Q23.368755 77.796875 23.587505 77.796875L23.587505 83.21875Q24.775005 83.140625 25.41563 82.546875Q26.056255 81.9375 26.056255 81.015625Q26.056255 80.34375 25.69688 79.875Q25.337505 79.390625 24.556255 79.109375ZM22.57188 83.140625L22.57188 79.09375Q21.650005 79.171875 21.19688 79.5625Q20.493755 80.140625 20.493755 81.078125Q20.493755 81.9375 21.056255 82.515625Q21.618755 83.078125 22.57188 83.140625Z" fill-rule="nonzero"/><path fill="#000000" d="M55.478127 204.1625Q55.478127 202.38126 55.8375 201.30313Q56.2125 200.20938 56.93125 199.63126Q57.65 199.0375 58.74375 199.0375Q59.55625 199.0375 60.165627 199.36563Q60.775 199.69376 61.165627 200.30313Q61.571877 200.9125 61.790627 201.7875Q62.009377 202.6625 62.009377 204.1625Q62.009377 205.92813 61.65 207.00626Q61.290627 208.08438 60.571877 208.67813Q59.853127 209.27188 58.74375 209.27188Q57.30625 209.27188 56.478127 208.225Q55.478127 206.975 55.478127 204.1625ZM56.74375 204.1625Q56.74375 206.63126 57.321877 207.44376Q57.9 208.25626 58.74375 208.25626Q59.603127 208.25626 60.18125 207.44376Q60.759377 206.61563 60.759377 204.1625Q60.759377 201.67813 60.18125 200.86563Q59.603127 200.05313 58.728127 200.05313Q57.884377 200.05313 57.384377 200.77188Q56.74375 201.69376 56.74375 204.1625ZM64.15 209.1L64.15 207.69376L65.54063 207.69376L65.54063 209.1Q65.54063 209.86563 65.25938 210.33438Q64.99375 210.81876 64.4 211.08438L64.05625 210.55313Q64.44688 210.38126 64.63438 210.05313Q64.82188 209.725 64.8375 209.1L64.15 209.1ZM67.47813 204.1625Q67.47813 202.38126 67.8375 201.30313Q68.2125 200.20938 68.93125 199.63126Q69.65 199.0375 70.74375 199.0375Q71.55625 199.0375 72.16563 199.36563Q72.775 199.69376 73.16563 200.30313Q73.57188 200.9125 73.79063 201.7875Q74.00938 202.6625 74.00938 204.1625Q74.00938 205.92813 73.65 207.00626Q73.29063 208.08438 72.57188 208.67813Q71.85313 209.27188 70.74375 209.27188Q69.30625 209.27188 68.47813 208.225Q67.47813 206.975 67.47813 204.1625ZM68.74375 204.1625Q68.74375 206.63126 69.32188 207.44376Q69.9 208.25626 70.74375 208.25626Q71.60313 208.25626 72.18125 207.44376Q72.75938 206.61563 72.75938 204.1625Q72.75938 201.67813 72.18125 200.86563Q71.60313 200.05313 70.72813 200.05313Q69.88438 200.05313 69.38438 200.77188Q68.74375 201.69376 68.74375 204.1625Z" fill-rule="nonzero"/><path fill="#000000" d="M55.478127 167.7225Q55.478127 165.94125 55.8375 164.86313Q56.2125 163.76938 56.93125 163.19125Q57.65 162.5975 58.74375 162.5975Q59.55625 162.5975 60.165627 162.92563Q60.775 163.25375 61.165627 163.86313Q61.571877 164.4725 61.790627 165.3475Q62.009377 166.2225 62.009377 167.7225Q62.009377 169.48813 61.65 170.56625Q61.290627 171.64438 60.571877 172.23813Q59.853127 172.83188 58.74375 172.83188Q57.30625 172.83188 56.478127 171.785Q55.478127 170.535 55.478127 167.7225ZM56.74375 167.7225Q56.74375 170.19125 57.321877 171.00375Q57.9 171.81625 58.74375 171.81625Q59.603127 171.81625 60.18125 171.00375Q60.759377 170.17563 60.759377 167.7225Q60.759377 165.23813 60.18125 164.42563Q59.603127 163.61313 58.728127 163.61313Q57.884377 163.61313 57.384377 164.33188Q56.74375 165.25375 56.74375 167.7225ZM64.15 172.66L64.15 171.25375L65.54063 171.25375L65.54063 172.66Q65.54063 173.42563 65.25938 173.89438Q64.99375 174.37875 64.4 174.64438L64.05625 174.11313Q64.44688 173.94125 64.63438 173.61313Q64.82188 173.285 64.8375 172.66L64.15 172.66ZM72.11875 172.66L70.88438 172.66L70.88438 164.81625Q70.44688 165.23813 69.7125 165.67563Q68.99375 166.0975 68.43125 166.30063L68.43125 165.11313Q69.4625 164.62875 70.22813 163.94125Q71.00938 163.25375 71.32188 162.5975L72.11875 162.5975L72.11875 172.66Z" fill-rule="nonzero"/><path fill="#000000" d="M55.478127 131.2825Q55.478127 129.50125 55.8375 128.42313Q56.2125 127.32938 56.93125 126.75125Q57.65 126.1575 58.74375 126.1575Q59.55625 126.1575 60.165627 126.48563Q60.775 126.81375 61.165627 127.42313Q61.571877 128.0325 61.790627 128.9075Q62.009377 129.7825 62.009377 131.2825Q62.009377 133.04813 61.65 134.12625Q61.290627 135.20438 60.571877 135.79813Q59.853127 136.39188 58.74375 136.39188Q57.30625 136.39188 56.478127 135.345Q55.478127 134.095 55.478127 131.2825ZM56.74375 131.2825Q56.74375 133.75125 57.321877 134.56375Q57.9 135.37625 58.74375 135.37625Q59.603127 135.37625 60.18125 134.56375Q60.759377 133.73563 60.759377 131.2825Q60.759377 128.79813 60.18125 127.98563Q59.603127 127.17313 58.728127 127.17313Q57.884377 127.17313 57.384377 127.89188Q56.74375 128.81375 56.74375 131.2825ZM64.15 136.22L64.15 134.81375L65.54063 134.81375L65.54063 136.22Q65.54063 136.98563 65.25938 137.45438Q64.99375 137.93875 64.4 138.20438L64.05625 137.67313Q64.44688 137.50125 64.63438 137.17313Q64.82188 136.845 64.8375 136.22L64.15 136.22ZM73.94688 135.0325L73.94688 136.22L67.32188 136.22Q67.30625 135.7825 67.4625 135.36063Q67.72813 134.68875 68.275 134.0325Q68.8375 133.37625 69.88438 132.51688Q71.525 131.17313 72.0875 130.39188Q72.66563 129.61063 72.66563 128.9075Q72.66563 128.17313 72.13438 127.67313Q71.61875 127.17313 70.79063 127.17313Q69.9 127.17313 69.35313 127.70438Q68.82188 128.23563 68.82188 129.18875L67.55625 129.04813Q67.68125 127.64188 68.525 126.9075Q69.38438 126.1575 70.80625 126.1575Q72.25938 126.1575 73.0875 126.95438Q73.93125 127.75125 73.93125 128.93875Q73.93125 129.54813 73.68125 130.12625Q73.44688 130.70438 72.86875 131.345Q72.30625 131.98563 70.97813 133.11063Q69.86875 134.0325 69.55625 134.37625Q69.24375 134.70438 69.04063 135.0325L73.94688 135.0325Z" fill-rule="nonzero"/><path fill="#000000" d="M55.478127 94.8425Q55.478127 93.06125 55.8375 91.98312Q56.2125 90.88937 56.93125 90.31125Q57.65 89.7175 58.74375 89.7175Q59.55625 89.7175 60.165627 90.04562Q60.775 90.37375 61.165627 90.98312Q61.571877 91.5925 61.790627 92.4675Q62.009377 93.3425 62.009377 94.8425Q62.009377 96.60812 61.65 97.68625Q61.290627 98.76437 60.571877 99.35812Q59.853127 99.95187 58.74375 99.95187Q57.30625 99.95187 56.478127 98.905Q55.478127 97.655 55.478127 94.8425ZM56.74375 94.8425Q56.74375 97.31125 57.321877 98.12375Q57.9 98.93625 58.74375 98.93625Q59.603127 98.93625 60.18125 98.12375Q60.759377 97.29562 60.759377 94.8425Q60.759377 92.35812 60.18125 91.54562Q59.603127 90.73312 58.728127 90.73312Q57.884377 90.73312 57.384377 91.45187Q56.74375 92.37375 56.74375 94.8425ZM64.15 99.78L64.15 98.37375L65.54063 98.37375L65.54063 99.78Q65.54063 100.54562 65.25938 101.01437Q64.99375 101.49875 64.4 101.76437L64.05625 101.23312Q64.44688 101.06125 64.63438 100.73312Q64.82188 100.405 64.8375 99.78L64.15 99.78ZM67.49375 97.13937L68.7125 96.9675Q68.93125 98.01437 69.43125 98.48312Q69.94688 98.93625 70.68125 98.93625Q71.55625 98.93625 72.15 98.3425Q72.74375 97.73312 72.74375 96.8425Q72.74375 95.99875 72.18125 95.45187Q71.63438 94.905 70.79063 94.905Q70.43125 94.905 69.91563 95.03L70.05625 93.95187Q70.18125 93.9675 70.24375 93.9675Q71.04063 93.9675 71.66563 93.56125Q72.29063 93.155 72.29063 92.29562Q72.29063 91.62375 71.8375 91.18625Q71.38438 90.73312 70.65 90.73312Q69.93125 90.73312 69.44688 91.18625Q68.97813 91.62375 68.8375 92.53L67.61875 92.31125Q67.8375 91.07687 68.63438 90.405Q69.43125 89.7175 70.61875 89.7175Q71.44688 89.7175 72.13438 90.07687Q72.82188 90.42062 73.18125 91.03Q73.55625 91.63937 73.55625 92.32687Q73.55625 92.9675 73.2125 93.49875Q72.86875 94.03 72.18125 94.35812Q73.07188 94.56125 73.55625 95.20187Q74.05625 95.8425 74.05625 96.82687Q74.05625 98.13937 73.0875 99.04562Q72.13438 99.95187 70.68125 99.95187Q69.35313 99.95187 68.47813 99.17062Q67.61875 98.38937 67.49375 97.13937Z" fill-rule="nonzero"/><path fill="#000000" d="M55.478127 58.4025Q55.478127 56.62125 55.8375 55.543125Q56.2125 54.449375 56.93125 53.87125Q57.65 53.2775 58.74375 53.2775Q59.55625 53.2775 60.165627 53.605625Q60.775 53.93375 61.165627 54.543125Q61.571877 55.1525 61.790627 56.0275Q62.009377 56.9025 62.009377 58.4025Q62.009377 60.168125 61.65 61.24625Q61.290627 62.324375 60.571877 62.918125Q59.853127 63.511875 58.74375 63.511875Q57.30625 63.511875 56.478127 62.465Q55.478127 61.215 55.478127 58.4025ZM56.74375 58.4025Q56.74375 60.87125 57.321877 61.68375Q57.9 62.49625 58.74375 62.49625Q59.603127 62.49625 60.18125 61.68375Q60.759377 60.855625 60.759377 58.4025Q60.759377 55.918125 60.18125 55.105625Q59.603127 54.293125 58.728127 54.293125Q57.884377 54.293125 57.384377 55.011875Q56.74375 55.93375 56.74375 58.4025ZM64.15 63.34L64.15 61.93375L65.54063 61.93375L65.54063 63.34Q65.54063 64.10562 65.25938 64.57437Q64.99375 65.05875 64.4 65.32437L64.05625 64.79312Q64.44688 64.62125 64.63438 64.29312Q64.82188 63.965 64.8375 63.34L64.15 63.34ZM71.43125 63.34L71.43125 60.93375L67.07188 60.93375L67.07188 59.80875L71.65 53.324375L72.65 53.324375L72.65 59.80875L74.00938 59.80875L74.00938 60.93375L72.65 60.93375L72.65 63.34L71.43125 63.34ZM71.43125 59.80875L71.43125 55.293125L68.29063 59.80875L71.43125 59.80875Z" fill-rule="nonzero"/><path fill="#000000" d="M55.478127 21.9625Q55.478127 20.18125 55.8375 19.103125Q56.2125 18.009375 56.93125 17.43125Q57.65 16.8375 58.74375 16.8375Q59.55625 16.8375 60.165627 17.165625Q60.775 17.49375 61.165627 18.103125Q61.571877 18.7125 61.790627 19.5875Q62.009377 20.4625 62.009377 21.9625Q62.009377 23.728125 61.65 24.80625Q61.290627 25.884375 60.571877 26.478125Q59.853127 27.071875 58.74375 27.071875Q57.30625 27.071875 56.478127 26.025Q55.478127 24.775 55.478127 21.9625ZM56.74375 21.9625Q56.74375 24.43125 57.321877 25.24375Q57.9 26.05625 58.74375 26.05625Q59.603127 26.05625 60.18125 25.24375Q60.759377 24.415625 60.759377 21.9625Q60.759377 19.478125 60.18125 18.665625Q59.603127 17.853125 58.728127 17.853125Q57.884377 17.853125 57.384377 18.571875Q56.74375 19.49375 56.74375 21.9625ZM64.15 26.9L64.15 25.49375L65.54063 25.49375L65.54063 26.9Q65.54063 27.665625 65.25938 28.134375Q64.99375 28.61875 64.4 28.884375L64.05625 28.353125Q64.44688 28.18125 64.63438 27.853125Q64.82188 27.525 64.8375 26.9L64.15 26.9ZM67.47813 24.275L68.775 24.165625Q68.91563 25.103125 69.43125 25.5875Q69.9625 26.05625 70.69688 26.05625Q71.5875 26.05625 72.19688 25.384375Q72.82188 24.7125 72.82188 23.61875Q72.82188 22.55625 72.22813 21.946875Q71.63438 21.3375 70.68125 21.3375Q70.0875 21.3375 69.60313 21.61875Q69.13438 21.884375 68.85313 22.30625L67.69688 22.165625L68.66563 17.009375L73.65 17.009375L73.65 18.196875L69.65 18.196875L69.11875 20.884375Q70.025 20.259375 71.00938 20.259375Q72.32188 20.259375 73.2125 21.165625Q74.11875 22.071875 74.11875 23.509375Q74.11875 24.86875 73.3375 25.853125Q72.36875 27.071875 70.69688 27.071875Q69.3375 27.071875 68.4625 26.30625Q67.60313 25.540625 67.47813 24.275Z" fill-rule="nonzero"/><path fill="#000000" d="M148.41512 221.08438L148.41512 219.85L152.19637 219.85L152.19637 221.08438L148.41512 221.08438ZM160.02449 222.9125L160.02449 224.1L153.39949 224.1Q153.38387 223.6625 153.54012 223.24063Q153.80574 222.56876 154.35262 221.9125Q154.91512 221.25626 155.96199 220.39688Q157.60262 219.05313 158.16512 218.27188Q158.74324 217.49063 158.74324 216.7875Q158.74324 216.05313 158.21199 215.55313Q157.69637 215.05313 156.86824 215.05313Q155.97762 215.05313 155.43074 215.58438Q154.89949 216.11563 154.89949 217.06876L153.63387 216.92813Q153.75887 215.52188 154.60262 214.7875Q155.46199 214.0375 156.88387 214.0375Q158.33699 214.0375 159.16512 214.83438Q160.00887 215.63126 160.00887 216.81876Q160.00887 217.42813 159.75887 218.00626Q159.52449 218.58438 158.94637 219.225Q158.38387 219.86563 157.05574 220.99063Q155.94637 221.9125 155.63387 222.25626Q155.32137 222.58438 155.11824 222.9125L160.02449 222.9125Z" fill-rule="nonzero"/><path fill="#000000" d="M258.57812 219.1625Q258.57812 217.38126 258.9375 216.30313Q259.3125 215.20938 260.03125 214.63126Q260.75 214.0375 261.84375 214.0375Q262.65625 214.0375 263.26562 214.36563Q263.875 214.69376 264.26562 215.30313Q264.67188 215.9125 264.89062 216.7875Q265.10938 217.6625 265.10938 219.1625Q265.10938 220.92813 264.75 222.00626Q264.39062 223.08438 263.67188 223.67813Q262.95312 224.27188 261.84375 224.27188Q260.40625 224.27188 259.57812 223.225Q258.57812 221.975 258.57812 219.1625ZM259.84375 219.1625Q259.84375 221.63126 260.42188 222.44376Q261.0 223.25626 261.84375 223.25626Q262.70312 223.25626 263.28125 222.44376Q263.85938 221.61563 263.85938 219.1625Q263.85938 216.67813 263.28125 215.86563Q262.70312 215.05313 261.82812 215.05313Q260.98438 215.05313 260.48438 215.77188Q259.84375 216.69376 259.84375 219.1625Z" fill-rule="nonzero"/><path fill="#000000" d="M372.56927 222.9125L372.56927 224.1L365.94427 224.1Q365.92865 223.6625 366.0849 223.24063Q366.35052 222.56876 366.8974 221.9125Q367.4599 221.25626 368.50677 220.39688Q370.1474 219.05313 370.7099 218.27188Q371.28802 217.49063 371.28802 216.7875Q371.28802 216.05313 370.75677 215.55313Q370.24115 215.05313 369.41302 215.05313Q368.5224 215.05313 367.97552 215.58438Q367.44427 216.11563 367.44427 217.06876L366.17865 216.92813Q366.30365 215.52188 367.1474 214.7875Q368.00677 214.0375 369.42865 214.0375Q370.88177 214.0375 371.7099 214.83438Q372.55365 215.63126 372.55365 216.81876Q372.55365 217.42813 372.30365 218.00626Q372.06927 218.58438 371.49115 219.225Q370.92865 219.86563 369.60052 220.99063Q368.49115 221.9125 368.17865 222.25626Q367.86615 222.58438 367.66302 222.9125L372.56927 222.9125Z" fill-rule="nonzero"/></svg>