<svg version="1.1" viewBox="0.0 0.0 447.0 278.0" fill="none" stroke="none" stroke-linecap="square" stroke-miterlimit="10" width="447" height="278" xmlns:xlink="http://www.w3.org/1999/xlink" xmlns="http://www.w3.org/2000/svg"><path fill="#ffffff" d="M0 0L447.0 0L447.0 278.0L0 278.0L0 0Z" fill-rule="nonzero"/><path stroke="#333333" stroke-width="1.0" stroke-linecap="butt" d="M85.5 204.5L433.5 204.5" fill-rule="nonzero"/><path stroke="#efefef" stroke-width="1.0" stroke-linecap="butt" d="M85.5 158.5L433.5 158.5" fill-rule="nonzero"/><path stroke="#efefef" stroke-width="1.0" stroke-linecap="butt" d="M85.5 113.5L433.5 113.5" fill-rule="nonzero"/><path stroke="#efefef" stroke-width="1.0" stroke-linecap="butt" d="M85.5 67.5L433.5 67.5" fill-rule="nonzero"/><path stroke="#efefef" stroke-width="1.0" stroke-linecap="butt" d="M85.5 21.5L433.5 21.5" fill-rule="nonzero"/><clipPath id="id_0"><path d="M85.9 21.9L433.1 21.9L433.1 204.1L85.9 204.1L85.9 21.9Z" clip-rule="nonzero"/></clipPath><path stroke="#001128" stroke-width="1.0" stroke-linecap="butt" stroke-opacity="0.14901961" clip-path="url(#id_0)" d="M234.0 204.0L138.0 204.0L138.0 115.0C138.0 113.89543 138.89543 113.0 140.0 113.0L232.0 113.0C233.10457 113.0 234.0 113.89543 234.0 115.0Z" fill-rule="nonzero"/><path fill="#001128" fill-opacity="0.101960786" clip-path="url(#id_0)" d="M234.0 204.0L138.0 204.0L138.0 115.0C138.0 113.89543 138.89543 113.0 140.0 113.0L232.0 113.0C233.10457 113.0 234.0 113.89543 234.0 115.0Z" fill-rule="nonzero"/><path stroke="#000000" stroke-width="1.0" stroke-linecap="butt" stroke-opacity="0.14901961" clip-path="url(#id_0)" d="M381.0 204.0L285.0 204.0L285.0 115.0C285.0 113.89543 285.89542 113.0 287.0 113.0L379.0 113.0C380.10458 113.0 381.0 113.89543 381.0 115.0Z" fill-rule="nonzero"/><path fill="#001128" fill-opacity="0.101960786" clip-path="url(#id_0)" d="M381.0 204.0L285.0 204.0L285.0 115.0C285.0 113.89543 285.89542 113.0 287.0 113.0L379.0 113.0C380.10458 113.0 381.0 113.89543 381.0 115.0Z" fill-rule="nonzero"/><path fill="#000000" d="M218.07812 261.1L218.07812 251.08438L221.85938 251.08438Q222.85938 251.08438 223.39062 251.17813Q224.125 251.30313 224.625 251.64688Q225.125 251.99063 225.42188 252.61563Q225.73438 253.225 225.73438 253.975Q225.73438 255.25626 224.92188 256.14688Q224.10938 257.02188 221.98438 257.02188L219.40625 257.02188L219.40625 261.1L218.07812 261.1ZM219.40625 255.85L222.0 255.85Q223.28125 255.85 223.8125 255.36563Q224.35938 254.88126 224.35938 254.02188Q224.35938 253.38126 224.04688 252.94376Q223.73438 252.49063 223.20312 252.35Q222.875 252.25626 221.96875 252.25626L219.40625 252.25626L219.40625 255.85ZM226.46875 257.475Q226.46875 255.45938 227.59375 254.475Q228.51562 253.67813 229.875 253.67813Q231.35938 253.67813 232.3125 254.6625Q233.26562 255.63126 233.26562 257.36563Q233.26562 258.77188 232.84375 259.58438Q232.42188 260.38126 231.60938 260.83438Q230.8125 261.27188 229.875 261.27188Q228.34375 261.27188 227.40625 260.2875Q226.46875 259.30313 226.46875 257.475ZM227.73438 257.475Q227.73438 258.86563 228.34375 259.56876Q228.95312 260.25626 229.875 260.25626Q230.78125 260.25626 231.39062 259.55313Q232.0 258.85 232.0 257.42813Q232.0 256.08438 231.39062 255.39688Q230.78125 254.69376 229.875 254.69376Q228.95312 254.69376 228.34375 255.38126Q227.73438 256.06876 227.73438 257.475ZM234.4375 258.92813L235.64062 258.74063Q235.75 259.475 236.21875 259.86563Q236.6875 260.25626 237.53125 260.25626Q238.375 260.25626 238.78125 259.9125Q239.20312 259.56876 239.20312 259.1Q239.20312 258.67813 238.82812 258.44376Q238.57812 258.27188 237.57812 258.02188Q236.21875 257.67813 235.6875 257.42813Q235.17188 257.17813 234.90625 256.74063Q234.64062 256.30313 234.64062 255.77188Q234.64062 255.2875 234.85938 254.88126Q235.07812 254.45938 235.46875 254.17813Q235.75 253.975 236.23438 253.83438Q236.73438 253.67813 237.3125 253.67813Q238.15625 253.67813 238.79688 253.92813Q239.45312 254.1625 239.76562 254.58438Q240.07812 255.00626 240.1875 255.70938L238.98438 255.88126Q238.90625 255.31876 238.5 255.00626Q238.10938 254.69376 237.39062 254.69376Q236.54688 254.69376 236.1875 254.975Q235.82812 255.24063 235.82812 255.63126Q235.82812 255.86563 235.96875 256.05313Q236.125 256.25626 236.45312 256.38126Q236.625 256.44376 237.53125 256.69376Q238.84375 257.05313 239.35938 257.27188Q239.875 257.49063 240.15625 257.9125Q240.45312 258.33438 240.45312 258.95938Q240.45312 259.58438 240.09375 260.13126Q239.75 260.6625 239.0625 260.975Q238.39062 261.27188 237.53125 261.27188Q236.125 261.27188 235.375 260.67813Q234.64062 260.08438 234.4375 258.92813ZM241.9375 252.49063L241.9375 251.08438L243.15625 251.08438L243.15625 252.49063L241.9375 252.49063ZM241.9375 261.1L241.9375 253.83438L243.15625 253.83438L243.15625 261.1L241.9375 261.1ZM249.65625 258.44376L250.875 258.6Q250.67188 259.85 249.84375 260.56876Q249.03125 261.27188 247.84375 261.27188Q246.35938 261.27188 245.45312 260.30313Q244.54688 259.31876 244.54688 257.49063Q244.54688 256.31876 244.9375 255.44376Q245.32812 254.55313 246.125 254.11563Q246.92188 253.67813 247.85938 253.67813Q249.03125 253.67813 249.78125 254.27188Q250.54688 254.86563 250.75 255.975L249.5625 256.1625Q249.39062 255.42813 248.95312 255.06876Q248.51562 254.69376 247.90625 254.69376Q246.96875 254.69376 246.39062 255.36563Q245.8125 256.02188 245.8125 257.45938Q245.8125 258.92813 246.375 259.6Q246.9375 260.25626 247.82812 260.25626Q248.5625 260.25626 249.04688 259.81876Q249.53125 259.36563 249.65625 258.44376ZM246.8125 262.00626L247.15625 260.80313L248.07812 260.80313L247.84375 261.5375Q248.4375 261.6 248.71875 261.88126Q249.01562 262.17813 249.01562 262.5375Q249.01562 263.05313 248.51562 263.44376Q248.03125 263.83438 247.04688 263.83438Q246.48438 263.83438 246.0625 263.75626L246.14062 262.95938Q246.57812 262.99063 246.78125 262.99063Q247.42188 262.99063 247.6875 262.80313Q247.875 262.6625 247.875 262.475Q247.875 262.35 247.79688 262.25626Q247.71875 262.1625 247.5 262.08438Q247.29688 262.02188 246.8125 262.00626ZM256.65625 260.20938Q255.98438 260.7875 255.34375 261.0375Q254.71875 261.27188 253.98438 261.27188Q252.79688 261.27188 252.14062 260.69376Q251.5 260.1 251.5 259.17813Q251.5 258.64688 251.73438 258.20938Q251.98438 257.77188 252.375 257.50626Q252.78125 257.24063 253.26562 257.1Q253.625 257.00626 254.35938 256.9125Q255.85938 256.74063 256.5625 256.49063Q256.5625 256.24063 256.5625 256.17813Q256.5625 255.4125 256.21875 255.11563Q255.75 254.69376 254.8125 254.69376Q253.95312 254.69376 253.53125 255.00626Q253.125 255.30313 252.92188 256.06876L251.71875 255.9125Q251.875 255.13126 252.25 254.6625Q252.64062 254.19376 253.34375 253.94376Q254.0625 253.67813 255.0 253.67813Q255.92188 253.67813 256.5 253.89688Q257.07812 254.11563 257.34375 254.44376Q257.625 254.77188 257.73438 255.2875Q257.79688 255.6 257.79688 256.4125L257.79688 258.05313Q257.79688 259.77188 257.875 260.225Q257.95312 260.67813 258.1875 261.1L256.90625 261.1Q256.71875 260.70938 256.65625 260.20938ZM256.5625 257.45938Q255.89062 257.725 254.54688 257.92813Q253.79688 258.0375 253.46875 258.17813Q253.15625 258.30313 252.98438 258.56876Q252.8125 258.83438 252.8125 259.14688Q252.8125 259.64688 253.1875 259.975Q253.5625 260.30313 254.28125 260.30313Q255.0 260.30313 255.54688 259.99063Q256.09375 259.67813 256.35938 259.13126Q256.5625 258.725 256.5625 257.9125L256.5625 257.45938ZM252.5625 252.77188Q252.5625 252.05313 252.95312 251.63126Q253.34375 251.20938 253.95312 251.20938Q254.375 251.20938 255.10938 251.58438Q255.51562 251.7875 255.75 251.7875Q255.96875 251.7875 256.07812 251.6625Q256.20312 251.5375 256.25 251.19376L257.14062 251.19376Q257.10938 251.95938 256.73438 252.35Q256.375 252.74063 255.79688 252.74063Q255.35938 252.74063 254.65625 252.36563Q254.20312 252.11563 254.0 252.11563Q253.76562 252.11563 253.60938 252.2875Q253.46875 252.44376 253.46875 252.77188L252.5625 252.77188ZM259.46875 257.475Q259.46875 255.45938 260.59375 254.475Q261.51562 253.67813 262.875 253.67813Q264.35938 253.67813 265.3125 254.6625Q266.26562 255.63126 266.26562 257.36563Q266.26562 258.77188 265.84375 259.58438Q265.42188 260.38126 264.60938 260.83438Q263.8125 261.27188 262.875 261.27188Q261.34375 261.27188 260.40625 260.2875Q259.46875 259.30313 259.46875 257.475ZM260.73438 257.475Q260.73438 258.86563 261.34375 259.56876Q261.95312 260.25626 262.875 260.25626Q263.78125 260.25626 264.39062 259.55313Q265.0 258.85 265.0 257.42813Q265.0 256.08438 264.39062 255.39688Q263.78125 254.69376 262.875 254.69376Q261.95312 254.69376 261.34375 255.38126Q260.73438 256.06876 260.73438 257.475ZM272.15625 261.1L272.15625 251.08438L278.90625 251.08438L278.90625 252.25626L273.46875 252.25626L273.46875 255.36563L278.17188 255.36563L278.17188 256.55313L273.46875 256.55313L273.46875 261.1L272.15625 261.1ZM280.9375 252.49063L280.9375 251.08438L282.15625 251.08438L282.15625 252.49063L280.9375 252.49063ZM280.9375 261.1L280.9375 253.83438L282.15625 253.83438L282.15625 261.1L280.9375 261.1ZM283.92188 261.1L283.92188 253.83438L285.03125 253.83438L285.03125 254.86563Q285.82812 253.67813 287.34375 253.67813Q288.0 253.67813 288.54688 253.9125Q289.09375 254.14688 289.35938 254.5375Q289.64062 254.9125 289.75 255.44376Q289.82812 255.7875 289.82812 256.63126L289.82812 261.1L288.59375 261.1L288.59375 256.67813Q288.59375 255.92813 288.45312 255.56876Q288.3125 255.19376 287.9375 254.975Q287.57812 254.74063 287.07812 254.74063Q286.29688 254.74063 285.71875 255.24063Q285.15625 255.74063 285.15625 257.13126L285.15625 261.1L283.92188 261.1ZM296.65625 260.20938Q295.98438 260.7875 295.34375 261.0375Q294.71875 261.27188 293.98438 261.27188Q292.79688 261.27188 292.14062 260.69376Q291.5 260.1 291.5 259.17813Q291.5 258.64688 291.73438 258.20938Q291.98438 257.77188 292.375 257.50626Q292.78125 257.24063 293.26562 257.1Q293.625 257.00626 294.35938 256.9125Q295.85938 256.74063 296.5625 256.49063Q296.5625 256.24063 296.5625 256.17813Q296.5625 255.4125 296.21875 255.11563Q295.75 254.69376 294.8125 254.69376Q293.95312 254.69376 293.53125 255.00626Q293.125 255.30313 292.92188 256.06876L291.71875 255.9125Q291.875 255.13126 292.25 254.6625Q292.64062 254.19376 293.34375 253.94376Q294.0625 253.67813 295.0 253.67813Q295.92188 253.67813 296.5 253.89688Q297.07812 254.11563 297.34375 254.44376Q297.625 254.77188 297.73438 255.2875Q297.79688 255.6 297.79688 256.4125L297.79688 258.05313Q297.79688 259.77188 297.875 260.225Q297.95312 260.67813 298.1875 261.1L296.90625 261.1Q296.71875 260.70938 296.65625 260.20938ZM296.5625 257.45938Q295.89062 257.725 294.54688 257.92813Q293.79688 258.0375 293.46875 258.17813Q293.15625 258.30313 292.98438 258.56876Q292.8125 258.83438 292.8125 259.14688Q292.8125 259.64688 293.1875 259.975Q293.5625 260.30313 294.28125 260.30313Q295.0 260.30313 295.54688 259.99063Q296.09375 259.67813 296.35938 259.13126Q296.5625 258.725 296.5625 257.9125L296.5625 257.45938ZM299.89062 261.1L299.89062 251.08438L301.125 251.08438L301.125 261.1L299.89062 261.1Z" fill-rule="nonzero"/><path fill="#000000" d="M26.900005 162.92188L16.88438 162.92188L16.88438 159.14062Q16.88438 158.14062 16.97813 157.60938Q17.10313 156.875 17.44688 156.375Q17.79063 155.875 18.41563 155.57812Q19.025005 155.26562 19.775005 155.26562Q21.056255 155.26562 21.94688 156.07812Q22.82188 156.89062 22.82188 159.01562L22.82188 161.59375L26.900005 161.59375L26.900005 162.92188ZM21.650005 161.59375L21.650005 159.0Q21.650005 157.71875 21.16563 157.1875Q20.681255 156.64062 19.82188 156.64062Q19.181255 156.64062 18.743755 156.95312Q18.29063 157.26562 18.150005 157.79688Q18.056255 158.125 18.056255 159.03125L18.056255 161.59375L21.650005 161.59375ZM26.900005 154.09375L19.63438 154.09375L19.63438 152.98438L20.743755 152.98438Q19.962505 152.5625 19.72813 152.20312Q19.47813 151.84375 19.47813 151.40625Q19.47813 150.78125 19.868755 150.14062L21.00938 150.5625Q20.743755 151.01562 20.743755 151.46875Q20.743755 151.875 20.993755 152.20312Q21.22813 152.51562 21.66563 152.65625Q22.32188 152.85938 23.10313 152.85938L26.900005 152.85938L26.900005 154.09375ZM23.275005 149.53125Q21.25938 149.53125 20.275005 148.40625Q19.47813 147.48438 19.47813 146.125Q19.47813 144.64062 20.462505 143.6875Q21.431255 142.73438 23.16563 142.73438Q24.57188 142.73438 25.38438 143.15625Q26.181255 143.57812 26.63438 144.39062Q27.07188 145.1875 27.07188 146.125Q27.07188 147.65625 26.087505 148.59375Q25.10313 149.53125 23.275005 149.53125ZM23.275005 148.26562Q24.66563 148.26562 25.368755 147.65625Q26.056255 147.04688 26.056255 146.125Q26.056255 145.21875 25.35313 144.60938Q24.650005 144.0 23.22813 144.0Q21.88438 144.0 21.19688 144.60938Q20.493755 145.21875 20.493755 146.125Q20.493755 147.04688 21.181255 147.65625Q21.868755 148.26562 23.275005 148.26562ZM26.900005 139.9375L26.900005 141.07812L16.88438 141.07812L16.88438 139.85938L20.44688 139.85938Q19.47813 139.07812 19.47813 137.85938Q19.47813 137.1875 19.743755 136.59375Q20.00938 136.0 20.50938 135.60938Q20.993755 135.21875 21.681255 135.0Q22.368755 134.78125 23.16563 134.78125Q25.025005 134.78125 26.056255 135.71875Q27.07188 136.64062 27.07188 137.92188Q27.07188 139.20312 25.993755 139.9375L26.900005 139.9375ZM23.212505 139.95312Q24.525005 139.95312 25.10313 139.59375Q26.056255 139.01562 26.056255 138.03125Q26.056255 137.21875 25.35313 136.64062Q24.650005 136.04688 23.25938 136.04688Q21.837505 136.04688 21.16563 136.60938Q20.493755 137.17188 20.493755 137.96875Q20.493755 138.78125 21.19688 139.375Q21.88438 139.95312 23.212505 139.95312ZM26.00938 128.34375Q26.587505 129.01562 26.837505 129.65625Q27.07188 130.28125 27.07188 131.01562Q27.07188 132.20312 26.493755 132.85938Q25.900005 133.5 24.97813 133.5Q24.44688 133.5 24.00938 133.26562Q23.57188 133.01562 23.306255 132.625Q23.04063 132.21875 22.900005 131.73438Q22.806255 131.375 22.712505 130.64062Q22.54063 129.14062 22.29063 128.4375Q22.04063 128.4375 21.97813 128.4375Q21.212505 128.4375 20.91563 128.78125Q20.493755 129.25 20.493755 130.1875Q20.493755 131.04688 20.806255 131.46875Q21.10313 131.875 21.868755 132.07812L21.712505 133.28125Q20.931255 133.125 20.462505 132.75Q19.993755 132.35938 19.743755 131.65625Q19.47813 130.9375 19.47813 130.0Q19.47813 129.07812 19.69688 128.5Q19.91563 127.921875 20.243755 127.65625Q20.57188 127.375 21.087505 127.265625Q21.400005 127.203125 22.212505 127.203125L23.85313 127.203125Q25.57188 127.203125 26.025005 127.125Q26.47813 127.046875 26.900005 126.8125L26.900005 128.09375Q26.50938 128.28125 26.00938 128.34375ZM23.25938 128.4375Q23.525005 129.10938 23.72813 130.45312Q23.837505 131.20312 23.97813 131.53125Q24.10313 131.84375 24.368755 132.01562Q24.63438 132.1875 24.94688 132.1875Q25.44688 132.1875 25.775005 131.8125Q26.10313 131.4375 26.10313 130.71875Q26.10313 130.0 25.79063 129.45312Q25.47813 128.90625 24.931255 128.64062Q24.525005 128.4375 23.712505 128.4375L23.25938 128.4375ZM26.900005 123.9375L26.900005 125.078125L16.88438 125.078125L16.88438 123.859375L20.44688 123.859375Q19.47813 123.078125 19.47813 121.859375Q19.47813 121.1875 19.743755 120.59375Q20.00938 120.0 20.50938 119.609375Q20.993755 119.21875 21.681255 119.0Q22.368755 118.78125 23.16563 118.78125Q25.025005 118.78125 26.056255 119.71875Q27.07188 120.640625 27.07188 121.921875Q27.07188 123.203125 25.993755 123.9375L26.900005 123.9375ZM23.212505 123.953125Q24.525005 123.953125 25.10313 123.59375Q26.056255 123.015625 26.056255 122.03125Q26.056255 121.21875 25.35313 120.640625Q24.650005 120.046875 23.25938 120.046875Q21.837505 120.046875 21.16563 120.609375Q20.493755 121.171875 20.493755 121.96875Q20.493755 122.78125 21.19688 123.375Q21.88438 123.953125 23.212505 123.953125ZM18.29063 117.0625L16.88438 117.0625L16.88438 115.84375L18.29063 115.84375L18.29063 117.0625ZM26.900005 117.0625L19.63438 117.0625L19.63438 115.84375L26.900005 115.84375L26.900005 117.0625ZM26.900005 114.109375L16.88438 114.109375L16.88438 112.875L26.900005 112.875L26.900005 114.109375ZM18.29063 111.0625L16.88438 111.0625L16.88438 109.84375L18.29063 109.84375L18.29063 111.0625ZM26.900005 111.0625L19.63438 111.0625L19.63438 109.84375L26.900005 109.84375L26.900005 111.0625ZM26.900005 103.359375L25.97813 103.359375Q27.07188 104.0625 27.07188 105.390625Q27.07188 106.265625 26.587505 107.0Q26.10313 107.71875 25.243755 108.125Q24.38438 108.515625 23.275005 108.515625Q22.19688 108.515625 21.306255 108.15625Q20.41563 107.796875 19.94688 107.078125Q19.47813 106.34375 19.47813 105.453125Q19.47813 104.796875 19.75938 104.28125Q20.025005 103.765625 20.47813 103.453125L16.88438 103.453125L16.88438 102.21875L26.900005 102.21875L26.900005 103.359375ZM23.275005 107.25Q24.66563 107.25 25.368755 106.671875Q26.056255 106.078125 26.056255 105.28125Q26.056255 104.46875 25.400005 103.90625Q24.72813 103.34375 23.38438 103.34375Q21.88438 103.34375 21.19688 103.921875Q20.493755 104.5 20.493755 105.328125Q20.493755 106.15625 21.16563 106.703125Q21.837505 107.25 23.275005 107.25ZM26.00938 95.34375Q26.587505 96.015625 26.837505 96.65625Q27.07188 97.28125 27.07188 98.015625Q27.07188 99.203125 26.493755 99.859375Q25.900005 100.5 24.97813 100.5Q24.44688 100.5 24.00938 100.265625Q23.57188 100.015625 23.306255 99.625Q23.04063 99.21875 22.900005 98.734375Q22.806255 98.375 22.712505 97.640625Q22.54063 96.140625 22.29063 95.4375Q22.04063 95.4375 21.97813 95.4375Q21.212505 95.4375 20.91563 95.78125Q20.493755 96.25 20.493755 97.1875Q20.493755 98.046875 20.806255 98.46875Q21.10313 98.875 21.868755 99.078125L21.712505 100.28125Q20.931255 100.125 20.462505 99.75Q19.993755 99.359375 19.743755 98.65625Q19.47813 97.9375 19.47813 97.0Q19.47813 96.078125 19.69688 95.5Q19.91563 94.921875 20.243755 94.65625Q20.57188 94.375 21.087505 94.265625Q21.400005 94.203125 22.212505 94.203125L23.85313 94.203125Q25.57188 94.203125 26.025005 94.125Q26.47813 94.046875 26.900005 93.8125L26.900005 95.09375Q26.50938 95.28125 26.00938 95.34375ZM23.25938 95.4375Q23.525005 96.109375 23.72813 97.453125Q23.837505 98.203125 23.97813 98.53125Q24.10313 98.84375 24.368755 99.015625Q24.63438 99.1875 24.94688 99.1875Q25.44688 99.1875 25.775005 98.8125Q26.10313 98.4375 26.10313 97.71875Q26.10313 97.0 25.79063 96.453125Q25.47813 95.90625 24.931255 95.640625Q24.525005 95.4375 23.712505 95.4375L23.25938 95.4375ZM26.900005 87.359375L25.97813 87.359375Q27.07188 88.0625 27.07188 89.390625Q27.07188 90.265625 26.587505 91.0Q26.10313 91.71875 25.243755 92.125Q24.38438 92.515625 23.275005 92.515625Q22.19688 92.515625 21.306255 92.15625Q20.41563 91.796875 19.94688 91.078125Q19.47813 90.34375 19.47813 89.453125Q19.47813 88.796875 19.75938 88.28125Q20.025005 87.765625 20.47813 87.453125L16.88438 87.453125L16.88438 86.21875L26.900005 86.21875L26.900005 87.359375ZM23.275005 91.25Q24.66563 91.25 25.368755 90.671875Q26.056255 90.078125 26.056255 89.28125Q26.056255 88.46875 25.400005 87.90625Q24.72813 87.34375 23.38438 87.34375Q21.88438 87.34375 21.19688 87.921875Q20.493755 88.5 20.493755 89.328125Q20.493755 90.15625 21.16563 90.703125Q21.837505 91.25 23.275005 91.25ZM24.556255 79.109375L24.712505 77.828125Q25.837505 78.140625 26.462505 78.953125Q27.07188 79.765625 27.07188 81.03125Q27.07188 82.625 26.087505 83.5625Q25.10313 84.484375 23.337505 84.484375Q21.493755 84.484375 20.493755 83.546875Q19.47813 82.59375 19.47813 81.09375Q19.47813 79.640625 20.47813 78.71875Q21.462505 77.796875 23.25938 77.796875Q23.368755 77.796875 23.587505 77.796875L23.587505 83.21875Q24.775005 83.140625 25.41563 82.546875Q26.056255 81.9375 26.056255 81.015625Q26.056255 80.34375 25.69688 79.875Q25.337505 79.390625 24.556255 79.109375ZM22.57188 83.140625L22.57188 79.09375Q21.650005 79.171875 21.19688 79.5625Q20.493755 80.140625 20.493755 81.078125Q20.493755 81.9375 21.056255 82.515625Q21.618755 83.078125 22.57188 83.140625Z" fill-rule="nonzero"/><path fill="#000000" d="M51.478127 204.1625Q51.478127 202.38126 51.8375 201.30313Q52.2125 200.20938 52.93125 199.63126Q53.65 199.0375 54.74375 199.0375Q55.55625 199.0375 56.165627 199.36563Q56.775 199.69376 57.165627 200.30313Q57.571877 200.9125 57.790627 201.7875Q58.009377 202.6625 58.009377 204.1625Q58.009377 205.92813 57.65 207.00626Q57.290627 208.08438 56.571877 208.67813Q55.853127 209.27188 54.74375 209.27188Q53.30625 209.27188 52.478127 208.225Q51.478127 206.975 51.478127 204.1625ZM52.74375 204.1625Q52.74375 206.63126 53.321877 207.44376Q53.9 208.25626 54.74375 208.25626Q55.603127 208.25626 56.18125 207.44376Q56.759377 206.61563 56.759377 204.1625Q56.759377 201.67813 56.18125 200.86563Q55.603127 200.05313 54.728127 200.05313Q53.884377 200.05313 53.384377 200.77188Q52.74375 201.69376 52.74375 204.1625ZM60.15 209.1L60.15 207.69376L61.540627 207.69376L61.540627 209.1Q61.540627 209.86563 61.259377 210.33438Q60.99375 210.81876 60.4 211.08438L60.05625 210.55313Q60.446877 210.38126 60.634377 210.05313Q60.821877 209.725 60.8375 209.1L60.15 209.1ZM63.478127 204.1625Q63.478127 202.38126 63.8375 201.30313Q64.2125 200.20938 64.93125 199.63126Q65.65 199.0375 66.74375 199.0375Q67.55625 199.0375 68.16563 199.36563Q68.775 199.69376 69.16563 200.30313Q69.57188 200.9125 69.79063 201.7875Q70.00938 202.6625 70.00938 204.1625Q70.00938 205.92813 69.65 207.00626Q69.29063 208.08438 68.57188 208.67813Q67.85313 209.27188 66.74375 209.27188Q65.30625 209.27188 64.47813 208.225Q63.478127 206.975 63.478127 204.1625ZM64.74375 204.1625Q64.74375 206.63126 65.32188 207.44376Q65.9 208.25626 66.74375 208.25626Q67.60313 208.25626 68.18125 207.44376Q68.75938 206.61563 68.75938 204.1625Q68.75938 201.67813 68.18125 200.86563Q67.60313 200.05313 66.72813 200.05313Q65.88438 200.05313 65.38438 200.77188Q64.74375 201.69376 64.74375 204.1625ZM71.47813 204.1625Q71.47813 202.38126 71.8375 201.30313Q72.2125 200.20938 72.93125 199.63126Q73.65 199.0375 74.74375 199.0375Q75.55625 199.0375 76.16563 199.36563Q76.775 199.69376 77.16563 200.30313Q77.57188 200.9125 77.79063 201.7875Q78.00938 202.6625 78.00938 204.1625Q78.00938 205.92813 77.65 207.00626Q77.29063 208.08438 76.57188 208.67813Q75.85313 209.27188 74.74375 209.27188Q73.30625 209.27188 72.47813 208.225Q71.47813 206.975 71.47813 204.1625ZM72.74375 204.1625Q72.74375 206.63126 73.32188 207.44376Q73.9 208.25626 74.74375 208.25626Q75.60313 208.25626 76.18125 207.44376Q76.75938 206.61563 76.75938 204.1625Q76.75938 201.67813 76.18125 200.86563Q75.60313 200.05313 74.72813 200.05313Q73.88438 200.05313 73.38438 200.77188Q72.74375 201.69376 72.74375 204.1625Z" fill-rule="nonzero"/><path fill="#000000" d="M51.478127 158.6125Q51.478127 156.83125 51.8375 155.75313Q52.2125 154.65938 52.93125 154.08125Q53.65 153.4875 54.74375 153.4875Q55.55625 153.4875 56.165627 153.81563Q56.775 154.14375 57.165627 154.75313Q57.571877 155.3625 57.790627 156.2375Q58.009377 157.1125 58.009377 158.6125Q58.009377 160.37813 57.65 161.45625Q57.290627 162.53438 56.571877 163.12813Q55.853127 163.72188 54.74375 163.72188Q53.30625 163.72188 52.478127 162.675Q51.478127 161.425 51.478127 158.6125ZM52.74375 158.6125Q52.74375 161.08125 53.321877 161.89375Q53.9 162.70625 54.74375 162.70625Q55.603127 162.70625 56.18125 161.89375Q56.759377 161.06563 56.759377 158.6125Q56.759377 156.12813 56.18125 155.31563Q55.603127 154.50313 54.728127 154.50313Q53.884377 154.50313 53.384377 155.22188Q52.74375 156.14375 52.74375 158.6125ZM60.15 163.55L60.15 162.14375L61.540627 162.14375L61.540627 163.55Q61.540627 164.31563 61.259377 164.78438Q60.99375 165.26875 60.4 165.53438L60.05625 165.00313Q60.446877 164.83125 60.634377 164.50313Q60.821877 164.175 60.8375 163.55L60.15 163.55ZM69.94688 162.3625L69.94688 163.55L63.321877 163.55Q63.30625 163.1125 63.4625 162.69063Q63.728127 162.01875 64.275 161.3625Q64.8375 160.70625 65.88438 159.84688Q67.525 158.50313 68.0875 157.72188Q68.66563 156.94063 68.66563 156.2375Q68.66563 155.50313 68.13438 155.00313Q67.61875 154.50313 66.79063 154.50313Q65.9 154.50313 65.35313 155.03438Q64.82188 155.56563 64.82188 156.51875L63.55625 156.37813Q63.68125 154.97188 64.525 154.2375Q65.38438 153.4875 66.80625 153.4875Q68.25938 153.4875 69.0875 154.28438Q69.93125 155.08125 69.93125 156.26875Q69.93125 156.87813 69.68125 157.45625Q69.44688 158.03438 68.86875 158.675Q68.30625 159.31563 66.97813 160.44063Q65.86875 161.3625 65.55625 161.70625Q65.24375 162.03438 65.04063 162.3625L69.94688 162.3625ZM71.47813 160.925L72.775 160.81563Q72.91563 161.75313 73.43125 162.2375Q73.9625 162.70625 74.69688 162.70625Q75.5875 162.70625 76.19688 162.03438Q76.82188 161.3625 76.82188 160.26875Q76.82188 159.20625 76.22813 158.59688Q75.63438 157.9875 74.68125 157.9875Q74.0875 157.9875 73.60313 158.26875Q73.13438 158.53438 72.85313 158.95625L71.69688 158.81563L72.66563 153.65938L77.65 153.65938L77.65 154.84688L73.65 154.84688L73.11875 157.53438Q74.025 156.90938 75.00938 156.90938Q76.32188 156.90938 77.2125 157.81563Q78.11875 158.72188 78.11875 160.15938Q78.11875 161.51875 77.3375 162.50313Q76.36875 163.72188 74.69688 163.72188Q73.3375 163.72188 72.4625 162.95625Q71.60313 162.19063 71.47813 160.925Z" fill-rule="nonzero"/><path fill="#000000" d="M51.478127 113.0625Q51.478127 111.28125 51.8375 110.203125Q52.2125 109.109375 52.93125 108.53125Q53.65 107.9375 54.74375 107.9375Q55.55625 107.9375 56.165627 108.265625Q56.775 108.59375 57.165627 109.203125Q57.571877 109.8125 57.790627 110.6875Q58.009377 111.5625 58.009377 113.0625Q58.009377 114.828125 57.65 115.90625Q57.290627 116.984375 56.571877 117.578125Q55.853127 118.171875 54.74375 118.171875Q53.30625 118.171875 52.478127 117.125Q51.478127 115.875 51.478127 113.0625ZM52.74375 113.0625Q52.74375 115.53125 53.321877 116.34375Q53.9 117.15625 54.74375 117.15625Q55.603127 117.15625 56.18125 116.34375Q56.759377 115.515625 56.759377 113.0625Q56.759377 110.578125 56.18125 109.765625Q55.603127 108.953125 54.728127 108.953125Q53.884377 108.953125 53.384377 109.671875Q52.74375 110.59375 52.74375 113.0625ZM60.15 118.0L60.15 116.59375L61.540627 116.59375L61.540627 118.0Q61.540627 118.765625 61.259377 119.234375Q60.99375 119.71875 60.4 119.984375L60.05625 119.453125Q60.446877 119.28125 60.634377 118.953125Q60.821877 118.625 60.8375 118.0L60.15 118.0ZM63.478127 115.375L64.775 115.265625Q64.91563 116.203125 65.43125 116.6875Q65.9625 117.15625 66.69688 117.15625Q67.5875 117.15625 68.19688 116.484375Q68.82188 115.8125 68.82188 114.71875Q68.82188 113.65625 68.22813 113.046875Q67.63438 112.4375 66.68125 112.4375Q66.0875 112.4375 65.60313 112.71875Q65.13438 112.984375 64.85313 113.40625L63.696877 113.265625L64.66563 108.109375L69.65 108.109375L69.65 109.296875L65.65 109.296875L65.11875 111.984375Q66.025 111.359375 67.00938 111.359375Q68.32188 111.359375 69.2125 112.265625Q70.11875 113.171875 70.11875 114.609375Q70.11875 115.96875 69.3375 116.953125Q68.36875 118.171875 66.69688 118.171875Q65.3375 118.171875 64.4625 117.40625Q63.603127 116.640625 63.478127 115.375ZM71.47813 113.0625Q71.47813 111.28125 71.8375 110.203125Q72.2125 109.109375 72.93125 108.53125Q73.65 107.9375 74.74375 107.9375Q75.55625 107.9375 76.16563 108.265625Q76.775 108.59375 77.16563 109.203125Q77.57188 109.8125 77.79063 110.6875Q78.00938 111.5625 78.00938 113.0625Q78.00938 114.828125 77.65 115.90625Q77.29063 116.984375 76.57188 117.578125Q75.85313 118.171875 74.74375 118.171875Q73.30625 118.171875 72.47813 117.125Q71.47813 115.875 71.47813 113.0625ZM72.74375 113.0625Q72.74375 115.53125 73.32188 116.34375Q73.9 117.15625 74.74375 117.15625Q75.60313 117.15625 76.18125 116.34375Q76.75938 115.515625 76.75938 113.0625Q76.75938 110.578125 76.18125 109.765625Q75.60313 108.953125 74.72813 108.953125Q73.88438 108.953125 73.38438 109.671875Q72.74375 110.59375 72.74375 113.0625Z" fill-rule="nonzero"/><path fill="#000000" d="M51.478127 67.5125Q51.478127 65.73125 51.8375 64.65312Q52.2125 63.559372 52.93125 62.981247Q53.65 62.387497 54.74375 62.387497Q55.55625 62.387497 56.165627 62.715622Q56.775 63.043747 57.165627 63.653122Q57.571877 64.2625 57.790627 65.1375Q58.009377 66.0125 58.009377 67.5125Q58.009377 69.27812 57.65 70.35625Q57.290627 71.43437 56.571877 72.02812Q55.853127 72.62187 54.74375 72.62187Q53.30625 72.62187 52.478127 71.575Q51.478127 70.325 51.478127 67.5125ZM52.74375 67.5125Q52.74375 69.98125 53.321877 70.79375Q53.9 71.60625 54.74375 71.60625Q55.603127 71.60625 56.18125 70.79375Q56.759377 69.96562 56.759377 67.5125Q56.759377 65.02812 56.18125 64.21562Q55.603127 63.403122 54.728127 63.403122Q53.884377 63.403122 53.384377 64.12187Q52.74375 65.04375 52.74375 67.5125ZM60.15 72.45L60.15 71.04375L61.540627 71.04375L61.540627 72.45Q61.540627 73.21562 61.259377 73.68437Q60.99375 74.16875 60.4 74.43437L60.05625 73.90312Q60.446877 73.73125 60.634377 73.40312Q60.821877 73.075 60.8375 72.45L60.15 72.45ZM63.55625 63.746872L63.55625 62.559372L70.05625 62.559372L70.05625 63.512497Q69.0875 64.52812 68.15 66.21562Q67.2125 67.90312 66.69688 69.7Q66.3375 70.95 66.22813 72.45L64.9625 72.45Q64.97813 71.2625 65.41563 69.59062Q65.86875 67.91875 66.69688 66.37187Q67.54063 64.80937 68.47813 63.746872L63.55625 63.746872ZM71.47813 69.825L72.775 69.71562Q72.91563 70.65312 73.43125 71.1375Q73.9625 71.60625 74.69688 71.60625Q75.5875 71.60625 76.19688 70.93437Q76.82188 70.2625 76.82188 69.16875Q76.82188 68.10625 76.22813 67.49687Q75.63438 66.8875 74.68125 66.8875Q74.0875 66.8875 73.60313 67.16875Q73.13438 67.43437 72.85313 67.85625L71.69688 67.71562L72.66563 62.559372L77.65 62.559372L77.65 63.746872L73.65 63.746872L73.11875 66.43437Q74.025 65.80937 75.00938 65.80937Q76.32188 65.80937 77.2125 66.71562Q78.11875 67.62187 78.11875 69.05937Q78.11875 70.41875 77.3375 71.40312Q76.36875 72.62187 74.69688 72.62187Q73.3375 72.62187 72.4625 71.85625Q71.60313 71.09062 71.47813 69.825Z" fill-rule="nonzero"/><path fill="#000000" d="M56.11875 26.9L54.884377 26.9L54.884377 19.05625Q54.446877 19.478125 53.7125 19.915625Q52.99375 20.3375 52.43125 20.540625L52.43125 19.353125Q53.4625 18.86875 54.228127 18.18125Q55.009377 17.49375 55.321877 16.8375L56.11875 16.8375L56.11875 26.9ZM60.15 26.9L60.15 25.49375L61.540627 25.49375L61.540627 26.9Q61.540627 27.665625 61.259377 28.134375Q60.99375 28.61875 60.4 28.884375L60.05625 28.353125Q60.446877 28.18125 60.634377 27.853125Q60.821877 27.525 60.8375 26.9L60.15 26.9ZM63.478127 21.9625Q63.478127 20.18125 63.8375 19.103125Q64.2125 18.009375 64.93125 17.43125Q65.65 16.8375 66.74375 16.8375Q67.55625 16.8375 68.16563 17.165625Q68.775 17.49375 69.16563 18.103125Q69.57188 18.7125 69.79063 19.5875Q70.00938 20.4625 70.00938 21.9625Q70.00938 23.728125 69.65 24.80625Q69.29063 25.884375 68.57188 26.478125Q67.85313 27.071875 66.74375 27.071875Q65.30625 27.071875 64.47813 26.025Q63.478127 24.775 63.478127 21.9625ZM64.74375 21.9625Q64.74375 24.43125 65.32188 25.24375Q65.9 26.05625 66.74375 26.05625Q67.60313 26.05625 68.18125 25.24375Q68.75938 24.415625 68.75938 21.9625Q68.75938 19.478125 68.18125 18.665625Q67.60313 17.853125 66.72813 17.853125Q65.88438 17.853125 65.38438 18.571875Q64.74375 19.49375 64.74375 21.9625ZM71.47813 21.9625Q71.47813 20.18125 71.8375 19.103125Q72.2125 18.009375 72.93125 17.43125Q73.65 16.8375 74.74375 16.8375Q75.55625 16.8375 76.16563 17.165625Q76.775 17.49375 77.16563 18.103125Q77.57188 18.7125 77.79063 19.5875Q78.00938 20.4625 78.00938 21.9625Q78.00938 23.728125 77.65 24.80625Q77.29063 25.884375 76.57188 26.478125Q75.85313 27.071875 74.74375 27.071875Q73.30625 27.071875 72.47813 26.025Q71.47813 24.775 71.47813 21.9625ZM72.74375 21.9625Q72.74375 24.43125 73.32188 25.24375Q73.9 26.05625 74.74375 26.05625Q75.60313 26.05625 76.18125 25.24375Q76.75938 24.415625 76.75938 21.9625Q76.75938 19.478125 76.18125 18.665625Q75.60313 17.853125 74.72813 17.853125Q73.88438 17.853125 73.38438 18.571875Q72.74375 19.49375 72.74375 21.9625Z" fill-rule="nonzero"/><path fill="#000000" d="M179.56516 221.08438L179.56516 219.85L183.3464 219.85L183.3464 221.08438L179.56516 221.08438ZM189.3464 224.1L188.11203 224.1L188.11203 216.25626Q187.67453 216.67813 186.94016 217.11563Q186.2214 217.5375 185.6589 217.74063L185.6589 216.55313Q186.69016 216.06876 187.45578 215.38126Q188.23703 214.69376 188.54953 214.0375L189.3464 214.0375L189.3464 224.1Z" fill-rule="nonzero"/><path fill="#000000" d="M334.5911 224.1L333.35672 224.1L333.35672 216.25626Q332.91922 216.67813 332.18484 217.11563Q331.4661 217.5375 330.9036 217.74063L330.9036 216.55313Q331.93484 216.06876 332.70047 215.38126Q333.48172 214.69376 333.79422 214.0375L334.5911 214.0375L334.5911 224.1Z" fill-rule="nonzero"/></svg>