<svg version="1.1" viewBox="0.0 0.0 459.0 278.0" fill="none" stroke="none" stroke-linecap="square" stroke-miterlimit="10" width="459" height="278" xmlns:xlink="http://www.w3.org/1999/xlink" xmlns="http://www.w3.org/2000/svg"><path fill="#ffffff" d="M0 0L459.0 0L459.0 278.0L0 278.0L0 0Z" fill-rule="nonzero"/><path stroke="#333333" stroke-width="1.0" stroke-linecap="butt" d="M81.5 204.5L445.5 204.5" fill-rule="nonzero"/><path stroke="#efefef" stroke-width="1.0" stroke-linecap="butt" d="M81.5 158.5L445.5 158.5" fill-rule="nonzero"/><path stroke="#efefef" stroke-width="1.0" stroke-linecap="butt" d="M81.5 113.5L445.5 113.5" fill-rule="nonzero"/><path stroke="#efefef" stroke-width="1.0" stroke-linecap="butt" d="M81.5 67.5L445.5 67.5" fill-rule="nonzero"/><path stroke="#efefef" stroke-width="1.0" stroke-linecap="butt" d="M81.5 21.5L445.5 21.5" fill-rule="nonzero"/><clipPath id="id_0"><path d="M81.9 21.9L445.1 21.9L445.1 204.1L81.9 204.1L81.9 21.9Z" clip-rule="nonzero"/></clipPath><path stroke="#000000" stroke-width="1.0" stroke-linecap="butt" stroke-opacity="0.101960786" clip-path="url(#id_0)" d="M165.0 204.0L111.0 204.0L111.0 149.0C111.0 147.89543 111.89543 147.0 113.0 147.0L163.0 147.0C164.10457 147.0 165.0 147.89543 165.0 149.0Z" fill-rule="nonzero"/><path fill="#001128" fill-opacity="0.101960786" clip-path="url(#id_0)" d="M165.0 204.0L111.0 204.0L111.0 149.0C111.0 147.89543 111.89543 147.0 113.0 147.0L163.0 147.0C164.10457 147.0 165.0 147.89543 165.0 149.0Z" fill-rule="nonzero"/><path stroke="#001128" stroke-width="1.0" stroke-linecap="butt" stroke-opacity="0.14901961" clip-path="url(#id_0)" d="M249.0 204.0L195.0 204.0L195.0 35.0C195.0 33.89543 195.89543 33.0 197.0 33.0L247.0 33.0C248.10457 33.0 249.0 33.89543 249.0 35.0Z" fill-rule="nonzero"/><path fill="#001128" fill-opacity="0.101960786" clip-path="url(#id_0)" d="M249.0 204.0L195.0 204.0L195.0 35.0C195.0 33.89543 195.89543 33.0 197.0 33.0L247.0 33.0C248.10457 33.0 249.0 33.89543 249.0 35.0Z" fill-rule="nonzero"/><path stroke="#001128" stroke-width="1.0" stroke-linecap="butt" stroke-opacity="0.14901961" clip-path="url(#id_0)" d="M332.0 204.0L278.0 204.0L278.0 35.0C278.0 33.89543 278.89542 33.0 280.0 33.0L330.0 33.0C331.10458 33.0 332.0 33.89543 332.0 35.0Z" fill-rule="nonzero"/><path fill="#001128" fill-opacity="0.101960786" clip-path="url(#id_0)" d="M332.0 204.0L278.0 204.0L278.0 35.0C278.0 33.89543 278.89542 33.0 280.0 33.0L330.0 33.0C331.10458 33.0 332.0 33.89543 332.0 35.0Z" fill-rule="nonzero"/><path stroke="#001128" stroke-width="1.0" stroke-linecap="butt" stroke-opacity="0.14901961" clip-path="url(#id_0)" d="M416.0 204.0L362.0 204.0L362.0 149.0C362.0 147.89543 362.89542 147.0 364.0 147.0L414.0 147.0C415.10458 147.0 416.0 147.89543 416.0 149.0Z" fill-rule="nonzero"/><path fill="#001128" fill-opacity="0.101960786" clip-path="url(#id_0)" d="M416.0 204.0L362.0 204.0L362.0 149.0C362.0 147.89543 362.89542 147.0 364.0 147.0L414.0 147.0C415.10458 147.0 416.0 147.89543 416.0 149.0Z" fill-rule="nonzero"/><path fill="#000000" d="M222.07812 261.1L222.07812 251.08438L225.85938 251.08438Q226.85938 251.08438 227.39062 251.17813Q228.125 251.30313 228.625 251.64688Q229.125 251.99063 229.42188 252.61563Q229.73438 253.225 229.73438 253.975Q229.73438 255.25626 228.92188 256.14688Q228.10938 257.02188 225.98438 257.02188L223.40625 257.02188L223.40625 261.1L222.07812 261.1ZM223.40625 255.85L226.0 255.85Q227.28125 255.85 227.8125 255.36563Q228.35938 254.88126 228.35938 254.02188Q228.35938 253.38126 228.04688 252.94376Q227.73438 252.49063 227.20312 252.35Q226.875 252.25626 225.96875 252.25626L223.40625 252.25626L223.40625 255.85ZM230.46875 257.475Q230.46875 255.45938 231.59375 254.475Q232.51562 253.67813 233.875 253.67813Q235.35938 253.67813 236.3125 254.6625Q237.26562 255.63126 237.26562 257.36563Q237.26562 258.77188 236.84375 259.58438Q236.42188 260.38126 235.60938 260.83438Q234.8125 261.27188 233.875 261.27188Q232.34375 261.27188 231.40625 260.2875Q230.46875 259.30313 230.46875 257.475ZM231.73438 257.475Q231.73438 258.86563 232.34375 259.56876Q232.95312 260.25626 233.875 260.25626Q234.78125 260.25626 235.39062 259.55313Q236.0 258.85 236.0 257.42813Q236.0 256.08438 235.39062 255.39688Q234.78125 254.69376 233.875 254.69376Q232.95312 254.69376 232.34375 255.38126Q231.73438 256.06876 231.73438 257.475ZM238.4375 258.92813L239.64062 258.74063Q239.75 259.475 240.21875 259.86563Q240.6875 260.25626 241.53125 260.25626Q242.375 260.25626 242.78125 259.9125Q243.20312 259.56876 243.20312 259.1Q243.20312 258.67813 242.82812 258.44376Q242.57812 258.27188 241.57812 258.02188Q240.21875 257.67813 239.6875 257.42813Q239.17188 257.17813 238.90625 256.74063Q238.64062 256.30313 238.64062 255.77188Q238.64062 255.2875 238.85938 254.88126Q239.07812 254.45938 239.46875 254.17813Q239.75 253.975 240.23438 253.83438Q240.73438 253.67813 241.3125 253.67813Q242.15625 253.67813 242.79688 253.92813Q243.45312 254.1625 243.76562 254.58438Q244.07812 255.00626 244.1875 255.70938L242.98438 255.88126Q242.90625 255.31876 242.5 255.00626Q242.10938 254.69376 241.39062 254.69376Q240.54688 254.69376 240.1875 254.975Q239.82812 255.24063 239.82812 255.63126Q239.82812 255.86563 239.96875 256.05313Q240.125 256.25626 240.45312 256.38126Q240.625 256.44376 241.53125 256.69376Q242.84375 257.05313 243.35938 257.27188Q243.875 257.49063 244.15625 257.9125Q244.45312 258.33438 244.45312 258.95938Q244.45312 259.58438 244.09375 260.13126Q243.75 260.6625 243.0625 260.975Q242.39062 261.27188 241.53125 261.27188Q240.125 261.27188 239.375 260.67813Q238.64062 260.08438 238.4375 258.92813ZM245.9375 252.49063L245.9375 251.08438L247.15625 251.08438L247.15625 252.49063L245.9375 252.49063ZM245.9375 261.1L245.9375 253.83438L247.15625 253.83438L247.15625 261.1L245.9375 261.1ZM253.65625 258.44376L254.875 258.6Q254.67188 259.85 253.84375 260.56876Q253.03125 261.27188 251.84375 261.27188Q250.35938 261.27188 249.45312 260.30313Q248.54688 259.31876 248.54688 257.49063Q248.54688 256.31876 248.9375 255.44376Q249.32812 254.55313 250.125 254.11563Q250.92188 253.67813 251.85938 253.67813Q253.03125 253.67813 253.78125 254.27188Q254.54688 254.86563 254.75 255.975L253.5625 256.1625Q253.39062 255.42813 252.95312 255.06876Q252.51562 254.69376 251.90625 254.69376Q250.96875 254.69376 250.39062 255.36563Q249.8125 256.02188 249.8125 257.45938Q249.8125 258.92813 250.375 259.6Q250.9375 260.25626 251.82812 260.25626Q252.5625 260.25626 253.04688 259.81876Q253.53125 259.36563 253.65625 258.44376ZM250.8125 262.00626L251.15625 260.80313L252.07812 260.80313L251.84375 261.5375Q252.4375 261.6 252.71875 261.88126Q253.01562 262.17813 253.01562 262.5375Q253.01562 263.05313 252.51562 263.44376Q252.03125 263.83438 251.04688 263.83438Q250.48438 263.83438 250.0625 263.75626L250.14062 262.95938Q250.57812 262.99063 250.78125 262.99063Q251.42188 262.99063 251.6875 262.80313Q251.875 262.6625 251.875 262.475Q251.875 262.35 251.79688 262.25626Q251.71875 262.1625 251.5 262.08438Q251.29688 262.02188 250.8125 262.00626ZM260.65625 260.20938Q259.98438 260.7875 259.34375 261.0375Q258.71875 261.27188 257.98438 261.27188Q256.79688 261.27188 256.14062 260.69376Q255.5 260.1 255.5 259.17813Q255.5 258.64688 255.73438 258.20938Q255.98438 257.77188 256.375 257.50626Q256.78125 257.24063 257.26562 257.1Q257.625 257.00626 258.35938 256.9125Q259.85938 256.74063 260.5625 256.49063Q260.5625 256.24063 260.5625 256.17813Q260.5625 255.4125 260.21875 255.11563Q259.75 254.69376 258.8125 254.69376Q257.95312 254.69376 257.53125 255.00626Q257.125 255.30313 256.92188 256.06876L255.71875 255.9125Q255.875 255.13126 256.25 254.6625Q256.64062 254.19376 257.34375 253.94376Q258.0625 253.67813 259.0 253.67813Q259.92188 253.67813 260.5 253.89688Q261.07812 254.11563 261.34375 254.44376Q261.625 254.77188 261.73438 255.2875Q261.79688 255.6 261.79688 256.4125L261.79688 258.05313Q261.79688 259.77188 261.875 260.225Q261.95312 260.67813 262.1875 261.1L260.90625 261.1Q260.71875 260.70938 260.65625 260.20938ZM260.5625 257.45938Q259.89062 257.725 258.54688 257.92813Q257.79688 258.0375 257.46875 258.17813Q257.15625 258.30313 256.98438 258.56876Q256.8125 258.83438 256.8125 259.14688Q256.8125 259.64688 257.1875 259.975Q257.5625 260.30313 258.28125 260.30313Q259.0 260.30313 259.54688 259.99063Q260.09375 259.67813 260.35938 259.13126Q260.5625 258.725 260.5625 257.9125L260.5625 257.45938ZM256.5625 252.77188Q256.5625 252.05313 256.95312 251.63126Q257.34375 251.20938 257.95312 251.20938Q258.375 251.20938 259.10938 251.58438Q259.51562 251.7875 259.75 251.7875Q259.96875 251.7875 260.07812 251.6625Q260.20312 251.5375 260.25 251.19376L261.14062 251.19376Q261.10938 251.95938 260.73438 252.35Q260.375 252.74063 259.79688 252.74063Q259.35938 252.74063 258.65625 252.36563Q258.20312 252.11563 258.0 252.11563Q257.76562 252.11563 257.60938 252.2875Q257.46875 252.44376 257.46875 252.77188L256.5625 252.77188ZM263.46875 257.475Q263.46875 255.45938 264.59375 254.475Q265.51562 253.67813 266.875 253.67813Q268.35938 253.67813 269.3125 254.6625Q270.26562 255.63126 270.26562 257.36563Q270.26562 258.77188 269.84375 259.58438Q269.42188 260.38126 268.60938 260.83438Q267.8125 261.27188 266.875 261.27188Q265.34375 261.27188 264.40625 260.2875Q263.46875 259.30313 263.46875 257.475ZM264.73438 257.475Q264.73438 258.86563 265.34375 259.56876Q265.95312 260.25626 266.875 260.25626Q267.78125 260.25626 268.39062 259.55313Q269.0 258.85 269.0 257.42813Q269.0 256.08438 268.39062 255.39688Q267.78125 254.69376 266.875 254.69376Q265.95312 254.69376 265.34375 255.38126Q264.73438 256.06876 264.73438 257.475ZM276.15625 261.1L276.15625 251.08438L282.90625 251.08438L282.90625 252.25626L277.46875 252.25626L277.46875 255.36563L282.17188 255.36563L282.17188 256.55313L277.46875 256.55313L277.46875 261.1L276.15625 261.1ZM284.9375 252.49063L284.9375 251.08438L286.15625 251.08438L286.15625 252.49063L284.9375 252.49063ZM284.9375 261.1L284.9375 253.83438L286.15625 253.83438L286.15625 261.1L284.9375 261.1ZM287.92188 261.1L287.92188 253.83438L289.03125 253.83438L289.03125 254.86563Q289.82812 253.67813 291.34375 253.67813Q292.0 253.67813 292.54688 253.9125Q293.09375 254.14688 293.35938 254.5375Q293.64062 254.9125 293.75 255.44376Q293.82812 255.7875 293.82812 256.63126L293.82812 261.1L292.59375 261.1L292.59375 256.67813Q292.59375 255.92813 292.45312 255.56876Q292.3125 255.19376 291.9375 254.975Q291.57812 254.74063 291.07812 254.74063Q290.29688 254.74063 289.71875 255.24063Q289.15625 255.74063 289.15625 257.13126L289.15625 261.1L287.92188 261.1ZM300.65625 260.20938Q299.98438 260.7875 299.34375 261.0375Q298.71875 261.27188 297.98438 261.27188Q296.79688 261.27188 296.14062 260.69376Q295.5 260.1 295.5 259.17813Q295.5 258.64688 295.73438 258.20938Q295.98438 257.77188 296.375 257.50626Q296.78125 257.24063 297.26562 257.1Q297.625 257.00626 298.35938 256.9125Q299.85938 256.74063 300.5625 256.49063Q300.5625 256.24063 300.5625 256.17813Q300.5625 255.4125 300.21875 255.11563Q299.75 254.69376 298.8125 254.69376Q297.95312 254.69376 297.53125 255.00626Q297.125 255.30313 296.92188 256.06876L295.71875 255.9125Q295.875 255.13126 296.25 254.6625Q296.64062 254.19376 297.34375 253.94376Q298.0625 253.67813 299.0 253.67813Q299.92188 253.67813 300.5 253.89688Q301.07812 254.11563 301.34375 254.44376Q301.625 254.77188 301.73438 255.2875Q301.79688 255.6 301.79688 256.4125L301.79688 258.05313Q301.79688 259.77188 301.875 260.225Q301.95312 260.67813 302.1875 261.1L300.90625 261.1Q300.71875 260.70938 300.65625 260.20938ZM300.5625 257.45938Q299.89062 257.725 298.54688 257.92813Q297.79688 258.0375 297.46875 258.17813Q297.15625 258.30313 296.98438 258.56876Q296.8125 258.83438 296.8125 259.14688Q296.8125 259.64688 297.1875 259.975Q297.5625 260.30313 298.28125 260.30313Q299.0 260.30313 299.54688 259.99063Q300.09375 259.67813 300.35938 259.13126Q300.5625 258.725 300.5625 257.9125L300.5625 257.45938ZM303.89062 261.1L303.89062 251.08438L305.125 251.08438L305.125 261.1L303.89062 261.1Z" fill-rule="nonzero"/><path fill="#000000" d="M26.900005 162.92188L16.88438 162.92188L16.88438 159.14062Q16.88438 158.14062 16.97813 157.60938Q17.10313 156.875 17.44688 156.375Q17.79063 155.875 18.41563 155.57812Q19.025005 155.26562 19.775005 155.26562Q21.056255 155.26562 21.94688 156.07812Q22.82188 156.89062 22.82188 159.01562L22.82188 161.59375L26.900005 161.59375L26.900005 162.92188ZM21.650005 161.59375L21.650005 159.0Q21.650005 157.71875 21.16563 157.1875Q20.681255 156.64062 19.82188 156.64062Q19.181255 156.64062 18.743755 156.95312Q18.29063 157.26562 18.150005 157.79688Q18.056255 158.125 18.056255 159.03125L18.056255 161.59375L21.650005 161.59375ZM26.900005 154.09375L19.63438 154.09375L19.63438 152.98438L20.743755 152.98438Q19.962505 152.5625 19.72813 152.20312Q19.47813 151.84375 19.47813 151.40625Q19.47813 150.78125 19.868755 150.14062L21.00938 150.5625Q20.743755 151.01562 20.743755 151.46875Q20.743755 151.875 20.993755 152.20312Q21.22813 152.51562 21.66563 152.65625Q22.32188 152.85938 23.10313 152.85938L26.900005 152.85938L26.900005 154.09375ZM23.275005 149.53125Q21.25938 149.53125 20.275005 148.40625Q19.47813 147.48438 19.47813 146.125Q19.47813 144.64062 20.462505 143.6875Q21.431255 142.73438 23.16563 142.73438Q24.57188 142.73438 25.38438 143.15625Q26.181255 143.57812 26.63438 144.39062Q27.07188 145.1875 27.07188 146.125Q27.07188 147.65625 26.087505 148.59375Q25.10313 149.53125 23.275005 149.53125ZM23.275005 148.26562Q24.66563 148.26562 25.368755 147.65625Q26.056255 147.04688 26.056255 146.125Q26.056255 145.21875 25.35313 144.60938Q24.650005 144.0 23.22813 144.0Q21.88438 144.0 21.19688 144.60938Q20.493755 145.21875 20.493755 146.125Q20.493755 147.04688 21.181255 147.65625Q21.868755 148.26562 23.275005 148.26562ZM26.900005 139.9375L26.900005 141.07812L16.88438 141.07812L16.88438 139.85938L20.44688 139.85938Q19.47813 139.07812 19.47813 137.85938Q19.47813 137.1875 19.743755 136.59375Q20.00938 136.0 20.50938 135.60938Q20.993755 135.21875 21.681255 135.0Q22.368755 134.78125 23.16563 134.78125Q25.025005 134.78125 26.056255 135.71875Q27.07188 136.64062 27.07188 137.92188Q27.07188 139.20312 25.993755 139.9375L26.900005 139.9375ZM23.212505 139.95312Q24.525005 139.95312 25.10313 139.59375Q26.056255 139.01562 26.056255 138.03125Q26.056255 137.21875 25.35313 136.64062Q24.650005 136.04688 23.25938 136.04688Q21.837505 136.04688 21.16563 136.60938Q20.493755 137.17188 20.493755 137.96875Q20.493755 138.78125 21.19688 139.375Q21.88438 139.95312 23.212505 139.95312ZM26.00938 128.34375Q26.587505 129.01562 26.837505 129.65625Q27.07188 130.28125 27.07188 131.01562Q27.07188 132.20312 26.493755 132.85938Q25.900005 133.5 24.97813 133.5Q24.44688 133.5 24.00938 133.26562Q23.57188 133.01562 23.306255 132.625Q23.04063 132.21875 22.900005 131.73438Q22.806255 131.375 22.712505 130.64062Q22.54063 129.14062 22.29063 128.4375Q22.04063 128.4375 21.97813 128.4375Q21.212505 128.4375 20.91563 128.78125Q20.493755 129.25 20.493755 130.1875Q20.493755 131.04688 20.806255 131.46875Q21.10313 131.875 21.868755 132.07812L21.712505 133.28125Q20.931255 133.125 20.462505 132.75Q19.993755 132.35938 19.743755 131.65625Q19.47813 130.9375 19.47813 130.0Q19.47813 129.07812 19.69688 128.5Q19.91563 127.921875 20.243755 127.65625Q20.57188 127.375 21.087505 127.265625Q21.400005 127.203125 22.212505 127.203125L23.85313 127.203125Q25.57188 127.203125 26.025005 127.125Q26.47813 127.046875 26.900005 126.8125L26.900005 128.09375Q26.50938 128.28125 26.00938 128.34375ZM23.25938 128.4375Q23.525005 129.10938 23.72813 130.45312Q23.837505 131.20312 23.97813 131.53125Q24.10313 131.84375 24.368755 132.01562Q24.63438 132.1875 24.94688 132.1875Q25.44688 132.1875 25.775005 131.8125Q26.10313 131.4375 26.10313 130.71875Q26.10313 130.0 25.79063 129.45312Q25.47813 128.90625 24.931255 128.64062Q24.525005 128.4375 23.712505 128.4375L23.25938 128.4375ZM26.900005 123.9375L26.900005 125.078125L16.88438 125.078125L16.88438 123.859375L20.44688 123.859375Q19.47813 123.078125 19.47813 121.859375Q19.47813 121.1875 19.743755 120.59375Q20.00938 120.0 20.50938 119.609375Q20.993755 119.21875 21.681255 119.0Q22.368755 118.78125 23.16563 118.78125Q25.025005 118.78125 26.056255 119.71875Q27.07188 120.640625 27.07188 121.921875Q27.07188 123.203125 25.993755 123.9375L26.900005 123.9375ZM23.212505 123.953125Q24.525005 123.953125 25.10313 123.59375Q26.056255 123.015625 26.056255 122.03125Q26.056255 121.21875 25.35313 120.640625Q24.650005 120.046875 23.25938 120.046875Q21.837505 120.046875 21.16563 120.609375Q20.493755 121.171875 20.493755 121.96875Q20.493755 122.78125 21.19688 123.375Q21.88438 123.953125 23.212505 123.953125ZM18.29063 117.0625L16.88438 117.0625L16.88438 115.84375L18.29063 115.84375L18.29063 117.0625ZM26.900005 117.0625L19.63438 117.0625L19.63438 115.84375L26.900005 115.84375L26.900005 117.0625ZM26.900005 114.109375L16.88438 114.109375L16.88438 112.875L26.900005 112.875L26.900005 114.109375ZM18.29063 111.0625L16.88438 111.0625L16.88438 109.84375L18.29063 109.84375L18.29063 111.0625ZM26.900005 111.0625L19.63438 111.0625L19.63438 109.84375L26.900005 109.84375L26.900005 111.0625ZM26.900005 103.359375L25.97813 103.359375Q27.07188 104.0625 27.07188 105.390625Q27.07188 106.265625 26.587505 107.0Q26.10313 107.71875 25.243755 108.125Q24.38438 108.515625 23.275005 108.515625Q22.19688 108.515625 21.306255 108.15625Q20.41563 107.796875 19.94688 107.078125Q19.47813 106.34375 19.47813 105.453125Q19.47813 104.796875 19.75938 104.28125Q20.025005 103.765625 20.47813 103.453125L16.88438 103.453125L16.88438 102.21875L26.900005 102.21875L26.900005 103.359375ZM23.275005 107.25Q24.66563 107.25 25.368755 106.671875Q26.056255 106.078125 26.056255 105.28125Q26.056255 104.46875 25.400005 103.90625Q24.72813 103.34375 23.38438 103.34375Q21.88438 103.34375 21.19688 103.921875Q20.493755 104.5 20.493755 105.328125Q20.493755 106.15625 21.16563 106.703125Q21.837505 107.25 23.275005 107.25ZM26.00938 95.34375Q26.587505 96.015625 26.837505 96.65625Q27.07188 97.28125 27.07188 98.015625Q27.07188 99.203125 26.493755 99.859375Q25.900005 100.5 24.97813 100.5Q24.44688 100.5 24.00938 100.265625Q23.57188 100.015625 23.306255 99.625Q23.04063 99.21875 22.900005 98.734375Q22.806255 98.375 22.712505 97.640625Q22.54063 96.140625 22.29063 95.4375Q22.04063 95.4375 21.97813 95.4375Q21.212505 95.4375 20.91563 95.78125Q20.493755 96.25 20.493755 97.1875Q20.493755 98.046875 20.806255 98.46875Q21.10313 98.875 21.868755 99.078125L21.712505 100.28125Q20.931255 100.125 20.462505 99.75Q19.993755 99.359375 19.743755 98.65625Q19.47813 97.9375 19.47813 97.0Q19.47813 96.078125 19.69688 95.5Q19.91563 94.921875 20.243755 94.65625Q20.57188 94.375 21.087505 94.265625Q21.400005 94.203125 22.212505 94.203125L23.85313 94.203125Q25.57188 94.203125 26.025005 94.125Q26.47813 94.046875 26.900005 93.8125L26.900005 95.09375Q26.50938 95.28125 26.00938 95.34375ZM23.25938 95.4375Q23.525005 96.109375 23.72813 97.453125Q23.837505 98.203125 23.97813 98.53125Q24.10313 98.84375 24.368755 99.015625Q24.63438 99.1875 24.94688 99.1875Q25.44688 99.1875 25.775005 98.8125Q26.10313 98.4375 26.10313 97.71875Q26.10313 97.0 25.79063 96.453125Q25.47813 95.90625 24.931255 95.640625Q24.525005 95.4375 23.712505 95.4375L23.25938 95.4375ZM26.900005 87.359375L25.97813 87.359375Q27.07188 88.0625 27.07188 89.390625Q27.07188 90.265625 26.587505 91.0Q26.10313 91.71875 25.243755 92.125Q24.38438 92.515625 23.275005 92.515625Q22.19688 92.515625 21.306255 92.15625Q20.41563 91.796875 19.94688 91.078125Q19.47813 90.34375 19.47813 89.453125Q19.47813 88.796875 19.75938 88.28125Q20.025005 87.765625 20.47813 87.453125L16.88438 87.453125L16.88438 86.21875L26.900005 86.21875L26.900005 87.359375ZM23.275005 91.25Q24.66563 91.25 25.368755 90.671875Q26.056255 90.078125 26.056255 89.28125Q26.056255 88.46875 25.400005 87.90625Q24.72813 87.34375 23.38438 87.34375Q21.88438 87.34375 21.19688 87.921875Q20.493755 88.5 20.493755 89.328125Q20.493755 90.15625 21.16563 90.703125Q21.837505 91.25 23.275005 91.25ZM24.556255 79.109375L24.712505 77.828125Q25.837505 78.140625 26.462505 78.953125Q27.07188 79.765625 27.07188 81.03125Q27.07188 82.625 26.087505 83.5625Q25.10313 84.484375 23.337505 84.484375Q21.493755 84.484375 20.493755 83.546875Q19.47813 82.59375 19.47813 81.09375Q19.47813 79.640625 20.47813 78.71875Q21.462505 77.796875 23.25938 77.796875Q23.368755 77.796875 23.587505 77.796875L23.587505 83.21875Q24.775005 83.140625 25.41563 82.546875Q26.056255 81.9375 26.056255 81.015625Q26.056255 80.34375 25.69688 79.875Q25.337505 79.390625 24.556255 79.109375ZM22.57188 83.140625L22.57188 79.09375Q21.650005 79.171875 21.19688 79.5625Q20.493755 80.140625 20.493755 81.078125Q20.493755 81.9375 21.056255 82.515625Q21.618755 83.078125 22.57188 83.140625Z" fill-rule="nonzero"/><path fill="#000000" d="M55.478127 204.1625Q55.478127 202.38126 55.8375 201.30313Q56.2125 200.20938 56.93125 199.63126Q57.65 199.0375 58.74375 199.0375Q59.55625 199.0375 60.165627 199.36563Q60.775 199.69376 61.165627 200.30313Q61.571877 200.9125 61.790627 201.7875Q62.009377 202.6625 62.009377 204.1625Q62.009377 205.92813 61.65 207.00626Q61.290627 208.08438 60.571877 208.67813Q59.853127 209.27188 58.74375 209.27188Q57.30625 209.27188 56.478127 208.225Q55.478127 206.975 55.478127 204.1625ZM56.74375 204.1625Q56.74375 206.63126 57.321877 207.44376Q57.9 208.25626 58.74375 208.25626Q59.603127 208.25626 60.18125 207.44376Q60.759377 206.61563 60.759377 204.1625Q60.759377 201.67813 60.18125 200.86563Q59.603127 200.05313 58.728127 200.05313Q57.884377 200.05313 57.384377 200.77188Q56.74375 201.69376 56.74375 204.1625ZM64.15 209.1L64.15 207.69376L65.54063 207.69376L65.54063 209.1Q65.54063 209.86563 65.25938 210.33438Q64.99375 210.81876 64.4 211.08438L64.05625 210.55313Q64.44688 210.38126 64.63438 210.05313Q64.82188 209.725 64.8375 209.1L64.15 209.1ZM67.47813 204.1625Q67.47813 202.38126 67.8375 201.30313Q68.2125 200.20938 68.93125 199.63126Q69.65 199.0375 70.74375 199.0375Q71.55625 199.0375 72.16563 199.36563Q72.775 199.69376 73.16563 200.30313Q73.57188 200.9125 73.79063 201.7875Q74.00938 202.6625 74.00938 204.1625Q74.00938 205.92813 73.65 207.00626Q73.29063 208.08438 72.57188 208.67813Q71.85313 209.27188 70.74375 209.27188Q69.30625 209.27188 68.47813 208.225Q67.47813 206.975 67.47813 204.1625ZM68.74375 204.1625Q68.74375 206.63126 69.32188 207.44376Q69.9 208.25626 70.74375 208.25626Q71.60313 208.25626 72.18125 207.44376Q72.75938 206.61563 72.75938 204.1625Q72.75938 201.67813 72.18125 200.86563Q71.60313 200.05313 70.72813 200.05313Q69.88438 200.05313 69.38438 200.77188Q68.74375 201.69376 68.74375 204.1625Z" fill-rule="nonzero"/><path fill="#000000" d="M55.478127 158.6125Q55.478127 156.83125 55.8375 155.75313Q56.2125 154.65938 56.93125 154.08125Q57.65 153.4875 58.74375 153.4875Q59.55625 153.4875 60.165627 153.81563Q60.775 154.14375 61.165627 154.75313Q61.571877 155.3625 61.790627 156.2375Q62.009377 157.1125 62.009377 158.6125Q62.009377 160.37813 61.65 161.45625Q61.290627 162.53438 60.571877 163.12813Q59.853127 163.72188 58.74375 163.72188Q57.30625 163.72188 56.478127 162.675Q55.478127 161.425 55.478127 158.6125ZM56.74375 158.6125Q56.74375 161.08125 57.321877 161.89375Q57.9 162.70625 58.74375 162.70625Q59.603127 162.70625 60.18125 161.89375Q60.759377 161.06563 60.759377 158.6125Q60.759377 156.12813 60.18125 155.31563Q59.603127 154.50313 58.728127 154.50313Q57.884377 154.50313 57.384377 155.22188Q56.74375 156.14375 56.74375 158.6125ZM64.15 163.55L64.15 162.14375L65.54063 162.14375L65.54063 163.55Q65.54063 164.31563 65.25938 164.78438Q64.99375 165.26875 64.4 165.53438L64.05625 165.00313Q64.44688 164.83125 64.63438 164.50313Q64.82188 164.175 64.8375 163.55L64.15 163.55ZM72.11875 163.55L70.88438 163.55L70.88438 155.70625Q70.44688 156.12813 69.7125 156.56563Q68.99375 156.9875 68.43125 157.19063L68.43125 156.00313Q69.4625 155.51875 70.22813 154.83125Q71.00938 154.14375 71.32188 153.4875L72.11875 153.4875L72.11875 163.55Z" fill-rule="nonzero"/><path fill="#000000" d="M55.478127 113.0625Q55.478127 111.28125 55.8375 110.203125Q56.2125 109.109375 56.93125 108.53125Q57.65 107.9375 58.74375 107.9375Q59.55625 107.9375 60.165627 108.265625Q60.775 108.59375 61.165627 109.203125Q61.571877 109.8125 61.790627 110.6875Q62.009377 111.5625 62.009377 113.0625Q62.009377 114.828125 61.65 115.90625Q61.290627 116.984375 60.571877 117.578125Q59.853127 118.171875 58.74375 118.171875Q57.30625 118.171875 56.478127 117.125Q55.478127 115.875 55.478127 113.0625ZM56.74375 113.0625Q56.74375 115.53125 57.321877 116.34375Q57.9 117.15625 58.74375 117.15625Q59.603127 117.15625 60.18125 116.34375Q60.759377 115.515625 60.759377 113.0625Q60.759377 110.578125 60.18125 109.765625Q59.603127 108.953125 58.728127 108.953125Q57.884377 108.953125 57.384377 109.671875Q56.74375 110.59375 56.74375 113.0625ZM64.15 118.0L64.15 116.59375L65.54063 116.59375L65.54063 118.0Q65.54063 118.765625 65.25938 119.234375Q64.99375 119.71875 64.4 119.984375L64.05625 119.453125Q64.44688 119.28125 64.63438 118.953125Q64.82188 118.625 64.8375 118.0L64.15 118.0ZM73.94688 116.8125L73.94688 118.0L67.32188 118.0Q67.30625 117.5625 67.4625 117.140625Q67.72813 116.46875 68.275 115.8125Q68.8375 115.15625 69.88438 114.296875Q71.525 112.953125 72.0875 112.171875Q72.66563 111.390625 72.66563 110.6875Q72.66563 109.953125 72.13438 109.453125Q71.61875 108.953125 70.79063 108.953125Q69.9 108.953125 69.35313 109.484375Q68.82188 110.015625 68.82188 110.96875L67.55625 110.828125Q67.68125 109.421875 68.525 108.6875Q69.38438 107.9375 70.80625 107.9375Q72.25938 107.9375 73.0875 108.734375Q73.93125 109.53125 73.93125 110.71875Q73.93125 111.328125 73.68125 111.90625Q73.44688 112.484375 72.86875 113.125Q72.30625 113.765625 70.97813 114.890625Q69.86875 115.8125 69.55625 116.15625Q69.24375 116.484375 69.04063 116.8125L73.94688 116.8125Z" fill-rule="nonzero"/><path fill="#000000" d="M55.478127 67.5125Q55.478127 65.73125 55.8375 64.65312Q56.2125 63.559372 56.93125 62.981247Q57.65 62.387497 58.74375 62.387497Q59.55625 62.387497 60.165627 62.715622Q60.775 63.043747 61.165627 63.653122Q61.571877 64.2625 61.790627 65.1375Q62.009377 66.0125 62.009377 67.5125Q62.009377 69.27812 61.65 70.35625Q61.290627 71.43437 60.571877 72.02812Q59.853127 72.62187 58.74375 72.62187Q57.30625 72.62187 56.478127 71.575Q55.478127 70.325 55.478127 67.5125ZM56.74375 67.5125Q56.74375 69.98125 57.321877 70.79375Q57.9 71.60625 58.74375 71.60625Q59.603127 71.60625 60.18125 70.79375Q60.759377 69.96562 60.759377 67.5125Q60.759377 65.02812 60.18125 64.21562Q59.603127 63.403122 58.728127 63.403122Q57.884377 63.403122 57.384377 64.12187Q56.74375 65.04375 56.74375 67.5125ZM64.15 72.45L64.15 71.04375L65.54063 71.04375L65.54063 72.45Q65.54063 73.21562 65.25938 73.68437Q64.99375 74.16875 64.4 74.43437L64.05625 73.90312Q64.44688 73.73125 64.63438 73.40312Q64.82188 73.075 64.8375 72.45L64.15 72.45ZM67.49375 69.80937L68.7125 69.6375Q68.93125 70.68437 69.43125 71.15312Q69.94688 71.60625 70.68125 71.60625Q71.55625 71.60625 72.15 71.0125Q72.74375 70.40312 72.74375 69.5125Q72.74375 68.66875 72.18125 68.12187Q71.63438 67.575 70.79063 67.575Q70.43125 67.575 69.91563 67.7L70.05625 66.62187Q70.18125 66.6375 70.24375 66.6375Q71.04063 66.6375 71.66563 66.23125Q72.29063 65.825 72.29063 64.96562Q72.29063 64.29375 71.8375 63.856247Q71.38438 63.403122 70.65 63.403122Q69.93125 63.403122 69.44688 63.856247Q68.97813 64.29375 68.8375 65.2L67.61875 64.98125Q67.8375 63.746872 68.63438 63.074997Q69.43125 62.387497 70.61875 62.387497Q71.44688 62.387497 72.13438 62.746872Q72.82188 63.090622 73.18125 63.699997Q73.55625 64.30937 73.55625 64.99687Q73.55625 65.6375 73.2125 66.16875Q72.86875 66.7 72.18125 67.02812Q73.07188 67.23125 73.55625 67.87187Q74.05625 68.5125 74.05625 69.49687Q74.05625 70.80937 73.0875 71.71562Q72.13438 72.62187 70.68125 72.62187Q69.35313 72.62187 68.47813 71.84062Q67.61875 71.05937 67.49375 69.80937Z" fill-rule="nonzero"/><path fill="#000000" d="M55.478127 21.9625Q55.478127 20.18125 55.8375 19.103125Q56.2125 18.009375 56.93125 17.43125Q57.65 16.8375 58.74375 16.8375Q59.55625 16.8375 60.165627 17.165625Q60.775 17.49375 61.165627 18.103125Q61.571877 18.7125 61.790627 19.5875Q62.009377 20.4625 62.009377 21.9625Q62.009377 23.728125 61.65 24.80625Q61.290627 25.884375 60.571877 26.478125Q59.853127 27.071875 58.74375 27.071875Q57.30625 27.071875 56.478127 26.025Q55.478127 24.775 55.478127 21.9625ZM56.74375 21.9625Q56.74375 24.43125 57.321877 25.24375Q57.9 26.05625 58.74375 26.05625Q59.603127 26.05625 60.18125 25.24375Q60.759377 24.415625 60.759377 21.9625Q60.759377 19.478125 60.18125 18.665625Q59.603127 17.853125 58.728127 17.853125Q57.884377 17.853125 57.384377 18.571875Q56.74375 19.49375 56.74375 21.9625ZM64.15 26.9L64.15 25.49375L65.54063 25.49375L65.54063 26.9Q65.54063 27.665625 65.25938 28.134375Q64.99375 28.61875 64.4 28.884375L64.05625 28.353125Q64.44688 28.18125 64.63438 27.853125Q64.82188 27.525 64.8375 26.9L64.15 26.9ZM71.43125 26.9L71.43125 24.49375L67.07188 24.49375L67.07188 23.36875L71.65 16.884375L72.65 16.884375L72.65 23.36875L74.00938 23.36875L74.00938 24.49375L72.65 24.49375L72.65 26.9L71.43125 26.9ZM71.43125 23.36875L71.43125 18.853125L68.29063 23.36875L71.43125 23.36875Z" fill-rule="nonzero"/><path fill="#000000" d="M132.19612 221.08438L132.19612 219.85L135.97737 219.85L135.97737 221.08438L132.19612 221.08438ZM137.35237 221.45938L138.57112 221.2875Q138.78987 222.33438 139.28987 222.80313Q139.8055 223.25626 140.53987 223.25626Q141.41487 223.25626 142.00862 222.6625Q142.60237 222.05313 142.60237 221.1625Q142.60237 220.31876 142.03987 219.77188Q141.493 219.225 140.64925 219.225Q140.28987 219.225 139.77425 219.35L139.91487 218.27188Q140.03987 218.2875 140.10237 218.2875Q140.89925 218.2875 141.52425 217.88126Q142.14925 217.475 142.14925 216.61563Q142.14925 215.94376 141.69612 215.50626Q141.243 215.05313 140.50862 215.05313Q139.78987 215.05313 139.3055 215.50626Q138.83675 215.94376 138.69612 216.85L137.47737 216.63126Q137.69612 215.39688 138.493 214.725Q139.28987 214.0375 140.47737 214.0375Q141.3055 214.0375 141.993 214.39688Q142.6805 214.74063 143.03987 215.35Q143.41487 215.95938 143.41487 216.64688Q143.41487 217.2875 143.07112 217.81876Q142.72737 218.35 142.03987 218.67813Q142.9305 218.88126 143.41487 219.52188Q143.91487 220.1625 143.91487 221.14688Q143.91487 222.45938 142.94612 223.36563Q141.993 224.27188 140.53987 224.27188Q139.21175 224.27188 138.33675 223.49063Q137.47737 222.70938 137.35237 221.45938Z" fill-rule="nonzero"/><path fill="#000000" d="M215.69037 221.08438L215.69037 219.85L219.47162 219.85L219.47162 221.08438L215.69037 221.08438ZM225.47162 224.1L224.23724 224.1L224.23724 216.25626Q223.79974 216.67813 223.06537 217.11563Q222.34662 217.5375 221.78412 217.74063L221.78412 216.55313Q222.81537 216.06876 223.581 215.38126Q224.36224 214.69376 224.67474 214.0375L225.47162 214.0375L225.47162 224.1Z" fill-rule="nonzero"/><path fill="#000000" d="M306.46588 224.1L305.2315 224.1L305.2315 216.25626Q304.794 216.67813 304.05963 217.11563Q303.34088 217.5375 302.77838 217.74063L302.77838 216.55313Q303.80963 216.06876 304.57526 215.38126Q305.3565 214.69376 305.669 214.0375L306.46588 214.0375L306.46588 224.1Z" fill-rule="nonzero"/><path fill="#000000" d="M385.33514 221.45938L386.5539 221.2875Q386.77264 222.33438 387.27264 222.80313Q387.78827 223.25626 388.52264 223.25626Q389.39764 223.25626 389.9914 222.6625Q390.58514 222.05313 390.58514 221.1625Q390.58514 220.31876 390.02264 219.77188Q389.47577 219.225 388.63202 219.225Q388.27264 219.225 387.75702 219.35L387.89764 218.27188Q388.02264 218.2875 388.08514 218.2875Q388.88202 218.2875 389.50702 217.88126Q390.13202 217.475 390.13202 216.61563Q390.13202 215.94376 389.6789 215.50626Q389.22577 215.05313 388.4914 215.05313Q387.77264 215.05313 387.28827 215.50626Q386.81952 215.94376 386.6789 216.85L385.46014 216.63126Q385.6789 215.39688 386.47577 214.725Q387.27264 214.0375 388.46014 214.0375Q389.28827 214.0375 389.97577 214.39688Q390.66327 214.74063 391.02264 215.35Q391.39764 215.95938 391.39764 216.64688Q391.39764 217.2875 391.0539 217.81876Q390.71014 218.35 390.02264 218.67813Q390.91327 218.88126 391.39764 219.52188Q391.89764 220.1625 391.89764 221.14688Q391.89764 222.45938 390.9289 223.36563Q389.97577 224.27188 388.52264 224.27188Q387.19452 224.27188 386.31952 223.49063Q385.46014 222.70938 385.33514 221.45938Z" fill-rule="nonzero"/></svg>