<svg id="visual" viewBox="0 0 1900 91" width="1900" height="91" xmlns="http://www.w3.org/2000/svg" xmlns:xlink="http://www.w3.org/1999/xlink" version="1.1"><path d="M0 73L173 78L345 83L518 68L691 76L864 77L1036 91L1209 88L1382 77L1555 86L1727 69L1900 64L1900 0L1727 0L1555 0L1382 0L1209 0L1036 0L864 0L691 0L518 0L345 0L173 0L0 0Z" fill="#f8f9ff"></path><path d="M0 63L173 72L345 43L518 38L691 58L864 51L1036 66L1209 47L1382 49L1555 57L1727 71L1900 58L1900 0L1727 0L1555 0L1382 0L1209 0L1036 0L864 0L691 0L518 0L345 0L173 0L0 0Z" fill="#c5d2ee"></path><path d="M0 23L173 22L345 24L518 35L691 34L864 25L1036 32L1209 56L1382 20L1555 29L1727 45L1900 43L1900 0L1727 0L1555 0L1382 0L1209 0L1036 0L864 0L691 0L518 0L345 0L173 0L0 0Z" fill="#85afdc"></path><path d="M0 8L173 13L345 35L518 10L691 28L864 33L1036 14L1209 20L1382 12L1555 10L1727 9L1900 33L1900 0L1727 0L1555 0L1382 0L1209 0L1036 0L864 0L691 0L518 0L345 0L173 0L0 0Z" fill="#128fc8"></path></svg>