<svg id="visual" viewBox="0 0 1900 540" width="1900" height="540" xmlns="http://www.w3.org/2000/svg" xmlns:xlink="http://www.w3.org/1999/xlink" version="1.1"><path d="M0 397L238 406L475 363L713 384L950 392L1188 366L1425 412L1663 391L1900 429L1900 541L1663 541L1425 541L1188 541L950 541L713 541L475 541L238 541L0 541Z" fill="#f8f9ff"></path><path d="M0 448L238 448L475 439L713 391L950 392L1188 450L1425 393L1663 410L1900 403L1900 541L1663 541L1425 541L1188 541L950 541L713 541L475 541L238 541L0 541Z" fill="#d2dbf2"></path><path d="M0 471L238 452L475 428L713 459L950 458L1188 423L1425 470L1663 449L1900 462L1900 541L1663 541L1425 541L1188 541L950 541L713 541L475 541L238 541L0 541Z" fill="#a7c0e5"></path><path d="M0 473L238 498L475 461L713 460L950 455L1188 456L1425 457L1663 472L1900 472L1900 541L1663 541L1425 541L1188 541L950 541L713 541L475 541L238 541L0 541Z" fill="#72a7d7"></path><path d="M0 519L238 508L475 500L713 490L950 514L1188 510L1425 504L1663 491L1900 496L1900 541L1663 541L1425 541L1188 541L950 541L713 541L475 541L238 541L0 541Z" fill="#128fc8"></path></svg>