<svg id="visual" viewBox="0 0 960 200" width="960" height="200" xmlns="http://www.w3.org/2000/svg" xmlns:xlink="http://www.w3.org/1999/xlink" version="1.1"><path d="M0 179L107 156L213 169L320 173L427 176L533 146L640 173L747 147L853 159L960 158L960 201L853 201L747 201L640 201L533 201L427 201L320 201L213 201L107 201L0 201Z" fill="#f8f9ff"></path><path d="M0 177L107 166L213 175L320 162L427 180L533 182L640 172L747 163L853 183L960 164L960 201L853 201L747 201L640 201L533 201L427 201L320 201L213 201L107 201L0 201Z" fill="#c5d2ee"></path><path d="M0 193L107 189L213 169L320 186L427 169L533 174L640 185L747 169L853 175L960 193L960 201L853 201L747 201L640 201L533 201L427 201L320 201L213 201L107 201L0 201Z" fill="#85afdc"></path><path d="M0 182L107 179L213 191L320 194L427 187L533 178L640 179L747 187L853 191L960 189L960 201L853 201L747 201L640 201L533 201L427 201L320 201L213 201L107 201L0 201Z" fill="#128fc8"></path></svg>