<svg id="visual" viewBox="0 0 540 960" width="540" height="960" xmlns="http://www.w3.org/2000/svg" xmlns:xlink="http://www.w3.org/1999/xlink" version="1.1"><g><g transform="translate(472 507)"><path d="M0 -36.6L36.6 0L0 36.6L-36.6 0Z" fill="none" stroke="#2f9dd0" stroke-width="2"></path></g><g transform="translate(47 74)"><path d="M0 -12L12 0L0 12L-12 0Z" fill="none" stroke="#2f9dd0" stroke-width="2"></path></g><g transform="translate(415 612)"><path d="M0 -23L23 0L0 23L-23 0Z" stroke="#2f9dd0" fill="none" stroke-width="2"></path></g><g transform="translate(299 717)"><path d="M0 -10L10 0L0 10L-10 0Z" stroke="#2f9dd0" fill="none" stroke-width="2"></path></g><g transform="translate(276 44)"><path d="M0 -23L23 0L0 23L-23 0Z" stroke="#2f9dd0" fill="none" stroke-width="2"></path></g><g transform="translate(115 830)"><path d="M0 -25L25 0L0 25L-25 0Z" stroke="#2f9dd0" fill="none" stroke-width="2"></path></g><g transform="translate(53 463)"><path d="M0 -34L34 0L0 34L-34 0Z" stroke="#2f9dd0" fill="none" stroke-width="2"></path></g><g transform="translate(190 494)"><path d="M0 -26L26 0L0 26L-26 0Z" stroke="#2f9dd0" fill="none" stroke-width="2"></path></g><g transform="translate(295 159)"><path d="M0 -27L27 0L0 27L-27 0Z" stroke="#2f9dd0" fill="none" stroke-width="2"></path></g><g transform="translate(437 712)"><path d="M0 -23L23 0L0 23L-23 0Z" stroke="#2f9dd0" fill="none" stroke-width="2"></path></g></g></svg>